SplineFontDB: 3.0
FontName: Ranga-Bold
FullName: Ranga Bold
FamilyName: Ranga
Weight: Bold
Copyright: Copyright (c) 2014 by TipTopTyp. All rights reserved under SIL openfont License 1.1
Version: 1.0.2
ItalicAngle: 14.3
UnderlinePosition: -204
UnderlineWidth: 60
Ascent: 1624
Descent: 424
UFOAscent: 1556.48
UFODescent: -409.6
LayerCount: 2
Layer: 0 1 "Back"  1
Layer: 1 1 "Fore"  0
FSType: 4
OS2Version: 3
OS2_WeightWidthSlopeOnly: 0
OS2_UseTypoMetrics: 0
CreationTime: 1418124483
ModificationTime: 1418192255
PfmFamily: 65
TTFWeight: 700
TTFWidth: 5
LineGap: 0
VLineGap: 0
Panose: 0 0 0 0 0 0 0 0 0 0
OS2TypoAscent: 1583
OS2TypoAOffset: 0
OS2TypoDescent: -465
OS2TypoDOffset: 0
OS2TypoLinegap: 512
OS2WinAscent: 1836
OS2WinAOffset: 0
OS2WinDescent: 724
OS2WinDOffset: 0
HheadAscent: 1836
HheadAOffset: 0
HheadDescent: -724
HheadDOffset: 0
OS2SubXSize: 1434
OS2SubYSize: 1331
OS2SubXOff: 0
OS2SubYOff: 287
OS2SupXSize: 1434
OS2SupYSize: 1331
OS2SupXOff: 0
OS2SupYOff: 977
OS2StrikeYSize: 102
OS2StrikeYPos: 512
OS2Vendor: 'KORK'
OS2CodePages: 00000001.00000000
OS2UnicodeRanges: 80008223.00002042.00000000.00000000
Lookup: 4 0 0 "halnHalantFormslookup29"  {"halnHalantFormslookup29 subtable"  } ['haln' ('deva' <'dflt' 'MAR ' 'NEP ' > 'DFLT' <'dflt' > ) ]
Lookup: 1 0 0 "LocalizedMrForms_lookup0"  {"LocalizedMrForms_lookup0 subtable"  } ['locl' ('deva' <'MAR ' > ) ]
Lookup: 4 0 0 "LocalizedMrHalfFormslookup1"  {"LocalizedMrHalfFormslookup1 subtable"  } ['locl' ('deva' <'MAR ' > ) ]
Lookup: 1 0 0 "LocalizedNpFormslookup2"  {"LocalizedNpFormslookup2 subtable"  } ['locl' ('deva' <'NEP ' > ) ]
Lookup: 4 0 0 "LocalizedNpFormslookup3"  {"LocalizedNpFormslookup3 subtable"  } ['locl' ('deva' <'NEP ' > ) ]
Lookup: 4 0 0 "NuktaFormslookup5"  {"NuktaFormslookup5 subtable"  } ['nukt' ('deva' <'dflt' 'MAR ' 'NEP ' > ) ]
Lookup: 4 0 0 "AkhandFormslookup6"  {"AkhandFormslookup6 subtable"  } ['akhn' ('deva' <'dflt' 'MAR ' 'NEP ' > ) ]

StartChar: .notdef
Encoding: 65536 -1 0
Width: 1495
VWidth: 0
Flags: W
LayerCount: 2
Fore
SplineSet
610 1382 m 1,0,-1
 268 102 l 1,1,-1
 958 102 l 1,2,-1
 1300 1382 l 1,3,-1
 610 1382 l 1,0,-1
1438 1432 m 2,4,5
 1069 55 l 2,6,7
 1060 23 1060 23 1044.5 11.5 c 128,-1,8
 1029 0 1029 0 995 0 c 2,9,-1
 180 0 l 2,10,11
 119 0 119 0 139 70 c 1,12,-1
 502 1430 l 2,13,14
 509 1460 509 1460 524.5 1471.5 c 128,-1,15
 540 1483 540 1483 569 1483 c 2,16,-1
 1399 1483 l 2,17,18
 1451 1483 1451 1483 1438 1432 c 2,4,5
EndSplineSet
EndChar

StartChar: A
Encoding: 65 65 1
Width: 1044
VWidth: 0
Flags: W
LayerCount: 2
Fore
SplineSet
318 399 m 1,0,-1
 141 39 l 2,1,2
 120 -5 120 -5 63 -2 c 2,3,-1
 -96 4 l 2,4,5
 -133 5 -133 5 -145 28 c 128,-1,6
 -157 51 -157 51 -141 80 c 2,7,-1
 543 1397 l 2,8,9
 564 1437 564 1437 594 1458 c 128,-1,10
 624 1479 624 1479 655 1479 c 2,11,-1
 891 1481 l 2,12,13
 929 1481 929 1481 951.5 1456 c 128,-1,14
 974 1431 974 1431 971 1382 c 2,15,-1
 895 45 l 2,16,17
 892 0 892 0 834 0 c 2,18,-1
 668 0 l 2,19,20
 618 0 618 0 621 55 c 2,21,-1
 643 399 l 1,22,-1
 318 399 l 1,0,-1
437 643 m 1,23,-1
 660 643 l 1,24,-1
 695 1169 l 1,25,-1
 437 643 l 1,23,-1
EndSplineSet
EndChar

StartChar: AE
Encoding: 198 198 2
Width: 1568
VWidth: 0
Flags: W
LayerCount: 2
Fore
SplineSet
327 399 m 1,0,-1
 100 39 l 1,1,2
 78 -7 78 -7 23 -2 c 1,3,-1
 -158 4 l 2,4,5
 -197 6 -197 6 -208 30.5 c 128,-1,6
 -219 55 -219 55 -195 92 c 2,7,-1
 674 1397 l 1,8,9
 733 1483 733 1483 795 1483 c 2,10,-1
 881 1483 l 1,11,-1
 1042 1483 l 1,12,-1
 1056 1483 l 1,13,-1
 1640 1483 l 2,14,15
 1703 1483 1703 1483 1688 1417 c 2,16,-1
 1661 1296 l 1,17,18
 1657 1273 1657 1273 1635.5 1256 c 128,-1,19
 1614 1239 1614 1239 1591 1239 c 2,20,-1
 1098 1239 l 1,21,-1
 1045 926 l 1,22,-1
 1468 926 l 2,23,24
 1526 926 1526 926 1511 860 c 1,25,-1
 1487 739 l 2,26,27
 1483 716 1483 716 1463 699 c 128,-1,28
 1443 682 1443 682 1421 682 c 2,29,-1
 1003 682 l 1,30,-1
 929 244 l 1,31,-1
 1337 244 l 2,32,33
 1399 244 1399 244 1384 178 c 2,34,-1
 1358 57 l 2,35,36
 1354 34 1354 34 1332.5 17 c 128,-1,37
 1311 0 1311 0 1288 0 c 2,38,-1
 834 0 l 1,39,-1
 674 0 l 1,40,-1
 668 0 l 2,41,42
 642 0 642 0 630 15 c 128,-1,43
 618 30 618 30 621 55 c 1,44,-1
 681 399 l 1,45,-1
 327 399 l 1,0,-1
480 643 m 1,46,-1
 724 643 l 1,47,-1
 819 1183 l 1,48,-1
 480 643 l 1,46,-1
EndSplineSet
EndChar

StartChar: Aring
Encoding: 197 197 10
Width: 1134
VWidth: 0
Flags: W
LayerCount: 2
Fore
SplineSet
686 1483 m 0,0,1
 666 1423 666 1423 682.5 1371.5 c 128,-1,2
 699 1320 699 1320 743 1307 c 0,3,4
 787 1295 787 1295 832 1326.5 c 128,-1,5
 877 1358 877 1358 897 1415 c 0,6,7
 917 1475 917 1475 899 1526 c 128,-1,8
 881 1577 881 1577 836 1591 c 0,9,10
 793 1605 793 1605 749 1573 c 128,-1,11
 705 1541 705 1541 686 1483 c 0,0,1
469 1452 m 1,12,13
 484 1581 484 1581 589 1673 c 128,-1,14
 694 1765 694 1765 827 1765 c 128,-1,15
 960 1765 960 1765 1044.5 1673 c 128,-1,16
 1129 1581 1129 1581 1114 1452 c 1,17,18
 1096 1311 1096 1311 973 1216 c 1,19,-1
 903 45 l 2,20,21
 900 0 900 0 842 0 c 2,22,-1
 676 0 l 2,23,24
 626 0 626 0 629 55 c 2,25,-1
 652 399 l 1,26,-1
 325 399 l 1,27,-1
 150 39 l 2,28,29
 129 -5 129 -5 72 -2 c 2,30,-1
 -88 4 l 2,31,32
 -125 5 -125 5 -137 28 c 128,-1,33
 -149 51 -149 51 -133 80 c 2,34,-1
 492 1285 l 1,35,36
 457 1364 457 1364 469 1452 c 1,12,13
686 1144 m 1,37,38
 443 643 l 1,39,-1
 669 643 l 1,40,-1
 703 1141 l 1,41,42
 700 1142 700 1142 694.5 1143 c 128,-1,43
 689 1144 689 1144 686 1144 c 1,37,38
EndSplineSet
EndChar

StartChar: B
Encoding: 66 66 12
Width: 1036
VWidth: 0
Flags: W
LayerCount: 2
Fore
SplineSet
462 869 m 1,0,-1
 500 866 l 1,1,2
 678 861 678 861 723 1098 c 0,3,4
 736 1171 736 1171 715 1207 c 128,-1,5
 694 1243 694 1243 629 1243 c 2,6,-1
 557 1243 l 1,7,-1
 462 869 l 1,0,-1
276 1243 m 1,8,-1
 223 1243 l 2,9,10
 196 1243 196 1243 176 1259 c 128,-1,11
 156 1275 156 1275 162 1296 c 2,12,-1
 201 1442 l 2,13,14
 205 1460 205 1460 220 1471.5 c 128,-1,15
 235 1483 235 1483 248 1483 c 2,16,-1
 387 1483 l 1,17,-1
 561 1483 l 1,18,-1
 651 1483 l 2,19,20
 837 1483 837 1483 940.5 1406 c 128,-1,21
 1044 1329 1044 1329 1044 1186 c 0,22,23
 1044 1108 1044 1108 1021.5 1025.5 c 128,-1,24
 999 943 999 943 963 885 c 0,25,26
 902 788 902 788 801 749 c 1,27,28
 850 715 850 715 866.5 652 c 128,-1,29
 883 589 883 589 872 481 c 1,30,31
 861 386 861 386 809.5 280 c 128,-1,32
 758 174 758 174 684 111 c 0,33,34
 664 93 664 93 642.5 78.5 c 128,-1,35
 621 64 621 64 604 53 c 128,-1,36
 587 42 587 42 560 33.5 c 128,-1,37
 533 25 533 25 520 19.5 c 128,-1,38
 507 14 507 14 474.5 10 c 128,-1,39
 442 6 442 6 432 4 c 128,-1,40
 422 2 422 2 383 1 c 128,-1,41
 344 0 344 0 336.5 0 c 128,-1,42
 329 -0 329 -0 283.5 0 c 128,-1,43
 238 0 238 0 231 0 c 2,44,-1
 190 0 l 1,45,-1
 137 0 l 1,46,-1
 16 0 l 2,47,48
 -9 0 -9 0 -20 18.5 c 128,-1,49
 -31 37 -31 37 -25 63 c 2,50,-1
 276 1243 l 1,8,-1
305 254 m 1,51,-1
 352 256 l 1,52,53
 443 261 443 261 502.5 302 c 128,-1,54
 562 343 562 343 596 449 c 0,55,56
 639 585 639 585 580 633 c 0,57,58
 551 657 551 657 408 659 c 1,59,-1
 305 254 l 1,51,-1
EndSplineSet
EndChar

StartChar: C
Encoding: 67 67 13
Width: 890
VWidth: 0
Flags: W
LayerCount: 2
Fore
SplineSet
950 1104 m 0,0,1
 957 1055 957 1055 909 1038 c 1,2,-1
 729 985 l 2,3,4
 706 979 706 979 685.5 993 c 128,-1,5
 665 1007 665 1007 664 1032 c 1,6,7
 658 1102 658 1102 649 1139.5 c 128,-1,8
 640 1177 640 1177 621 1225 c 1,9,10
 609 1229 609 1229 596 1229 c 0,11,12
 470 1229 470 1229 350 770 c 0,13,14
 297 569 297 569 295 409.5 c 128,-1,15
 293 250 293 250 348 233 c 1,16,17
 369 240 369 240 387.5 253.5 c 128,-1,18
 406 267 406 267 418 279 c 128,-1,19
 430 291 430 291 449 323 c 128,-1,20
 468 355 468 355 478.5 374 c 128,-1,21
 489 393 489 393 516 446 c 1,22,23
 537 485 537 485 552 493.5 c 128,-1,24
 567 502 567 502 600 489 c 1,25,-1
 768 416 l 1,26,27
 788 409 788 409 789 384 c 128,-1,28
 790 359 790 359 774 334 c 0,29,30
 694 206 694 206 629.5 134.5 c 128,-1,31
 565 63 565 63 483 23.5 c 128,-1,32
 401 -16 401 -16 295 -16 c 0,33,34
 233 -16 233 -16 164 27 c 0,35,36
 71 84 71 84 32 210 c 128,-1,37
 -7 336 -7 336 2.5 492 c 128,-1,38
 12 648 12 648 59 836 c 0,39,40
 106 1026 106 1026 185.5 1174 c 128,-1,41
 265 1322 265 1322 376.5 1410.5 c 128,-1,42
 488 1499 488 1499 612 1499 c 0,43,44
 659 1499 659 1499 721 1483 c 1,45,46
 821 1459 821 1459 873 1371 c 128,-1,47
 925 1283 925 1283 950 1104 c 0,0,1
EndSplineSet
EndChar

StartChar: D
Encoding: 68 68 18
Width: 946
VWidth: 0
Flags: W
LayerCount: 2
Fore
SplineSet
553 1230 m 1,0,1
 305 258 l 1,2,3
 323 256 323 256 377 256 c 0,4,5
 518 256 518 256 631 698 c 0,6,7
 681 894 681 894 676 1049 c 128,-1,8
 671 1204 671 1204 614 1221 c 1,9,10
 598 1227 598 1227 553 1230 c 1,0,1
269 1219 m 1,11,12
 236 1215 236 1215 207 1208.5 c 128,-1,13
 178 1202 178 1202 166 1202 c 0,14,15
 141 1202 141 1202 130.5 1219 c 128,-1,16
 120 1236 120 1236 123 1260 c 2,17,-1
 143 1421 l 1,18,19
 148 1451 148 1451 190 1462 c 0,20,21
 191 1462 191 1462 215 1467 c 128,-1,22
 239 1472 239 1472 253.5 1474.5 c 128,-1,23
 268 1477 268 1477 301.5 1482 c 128,-1,24
 335 1487 335 1487 366 1490 c 128,-1,25
 397 1493 397 1493 443.5 1495 c 128,-1,26
 490 1497 490 1497 539 1497 c 0,27,28
 635 1497 635 1497 709.5 1474 c 128,-1,29
 784 1451 784 1451 833 1411 c 128,-1,30
 882 1371 882 1371 913.5 1314.5 c 128,-1,31
 945 1258 945 1258 958 1195.5 c 128,-1,32
 971 1133 971 1133 971 1059 c 0,33,34
 971 876 971 876 905 625 c 0,35,36
 877 518 877 518 840.5 426.5 c 128,-1,37
 804 335 804 335 752 253.5 c 128,-1,38
 700 172 700 172 638.5 115 c 128,-1,39
 577 58 577 58 497.5 25 c 128,-1,40
 418 -8 418 -8 328 -8 c 0,41,42
 112 -8 112 -8 37 6 c 0,43,44
 -2 14 -2 14 -15 37 c 128,-1,45
 -28 60 -28 60 -16 106 c 2,46,-1
 269 1219 l 1,11,12
EndSplineSet
EndChar

StartChar: Danda
Encoding: 65537 -1 19
Width: 550
VWidth: 0
Flags: W
LayerCount: 2
Fore
SplineSet
170 -47 m 1,0,1
 12 35 l 2,2,3
 -20 51 -20 51 -10 94 c 1,4,-1
 303 1311 l 2,5,6
 309 1335 309 1335 327 1343.5 c 128,-1,7
 345 1352 345 1352 367 1341 c 2,8,-1
 514 1266 l 1,9,10
 559 1245 559 1245 545 1186 c 1,11,-1
 233 -20 l 1,12,13
 220 -65 220 -65 170 -47 c 1,0,1
EndSplineSet
EndChar

StartChar: Dcroat
Encoding: 272 272 21
Width: 946
VWidth: 0
Flags: W
LayerCount: 2
Fore
SplineSet
41 885 m 2,0,1
 183 885 l 1,2,-1
 269 1219 l 1,3,4
 236 1215 236 1215 207 1208.5 c 128,-1,5
 178 1202 178 1202 166 1202 c 0,6,7
 141 1202 141 1202 130.5 1219 c 128,-1,8
 120 1236 120 1236 123 1260 c 2,9,-1
 143 1421 l 1,10,11
 148 1451 148 1451 190 1462 c 0,12,13
 191 1462 191 1462 215 1467 c 128,-1,14
 239 1472 239 1472 253.5 1474.5 c 128,-1,15
 268 1477 268 1477 301.5 1482 c 128,-1,16
 335 1487 335 1487 366 1490 c 128,-1,17
 397 1493 397 1493 443.5 1495 c 128,-1,18
 490 1497 490 1497 539 1497 c 0,19,20
 635 1497 635 1497 709.5 1474 c 128,-1,21
 784 1451 784 1451 833 1411 c 128,-1,22
 882 1371 882 1371 913.5 1314.5 c 128,-1,23
 945 1258 945 1258 958 1195.5 c 128,-1,24
 971 1133 971 1133 971 1059 c 0,25,26
 971 876 971 876 905 625 c 0,27,28
 877 518 877 518 840.5 426.5 c 128,-1,29
 804 335 804 335 752 253.5 c 128,-1,30
 700 172 700 172 638.5 115 c 128,-1,31
 577 58 577 58 497.5 25 c 128,-1,32
 418 -8 418 -8 328 -8 c 0,33,34
 112 -8 112 -8 37 6 c 0,35,36
 -2 14 -2 14 -15 37 c 128,-1,37
 -28 60 -28 60 -16 106 c 2,38,-1
 121 641 l 1,39,-1
 14 641 l 2,40,41
 -17 641 -17 641 -26 658 c 128,-1,42
 -35 675 -35 675 -25 715 c 2,43,-1
 8 844 l 2,44,45
 14 870 14 870 20.5 877.5 c 128,-1,46
 27 885 27 885 41 885 c 2,0,1
553 1230 m 1,47,-1
 465 885 l 1,48,-1
 549 885 l 2,49,50
 611 885 611 885 596 819 c 2,51,-1
 569 698 l 1,52,53
 565 675 565 675 544 658 c 128,-1,54
 523 641 523 641 500 641 c 2,55,-1
 403 641 l 1,56,-1
 305 258 l 1,57,58
 323 256 323 256 377 256 c 0,59,60
 518 256 518 256 631 698 c 0,61,62
 681 894 681 894 676 1049 c 128,-1,63
 671 1204 671 1204 614 1221 c 1,64,65
 598 1227 598 1227 553 1230 c 1,47,-1
EndSplineSet
EndChar

StartChar: E
Encoding: 69 69 22
Width: 927
VWidth: 0
Flags: W
LayerCount: 2
Fore
SplineSet
647 0 m 2,0,1
 193 0 l 1,2,-1
 72 0 l 1,3,-1
 18 0 l 2,4,5
 -7 0 -7 0 -18 18.5 c 128,-1,6
 -29 37 -29 37 -23 63 c 2,7,-1
 277 1239 l 1,8,-1
 203 1239 l 2,9,10
 172 1239 172 1239 163 1256 c 128,-1,11
 154 1273 154 1273 164 1313 c 2,12,-1
 197 1442 l 2,13,14
 203 1469 203 1469 210 1476 c 128,-1,15
 217 1483 217 1483 238 1483 c 2,16,-1
 389 1483 l 1,17,-1
 563 1483 l 1,18,-1
 997 1483 l 2,19,20
 1059 1483 1059 1483 1044 1417 c 2,21,-1
 1018 1296 l 2,22,23
 1014 1273 1014 1273 992.5 1256 c 128,-1,24
 971 1239 971 1239 948 1239 c 2,25,-1
 558 1239 l 1,26,-1
 478 926 l 1,27,-1
 827 926 l 2,28,29
 885 926 885 926 870 860 c 2,30,-1
 844 739 l 2,31,32
 840 716 840 716 820 699 c 128,-1,33
 800 682 800 682 778 682 c 2,34,-1
 416 682 l 1,35,-1
 305 244 l 1,36,-1
 696 244 l 2,37,38
 754 244 754 244 739 178 c 2,39,-1
 713 57 l 2,40,41
 709 34 709 34 689 17 c 128,-1,42
 669 0 669 0 647 0 c 2,0,1
EndSplineSet
EndChar

StartChar: Eth
Encoding: 208 208 31
Width: 946
VWidth: 0
Flags: W
LayerCount: 2
Fore
SplineSet
166 780 m 2,0,1
 803 780 l 2,2,3
 864 780 864 780 850 715 c 2,4,-1
 823 594 l 1,5,6
 819 571 819 571 798 554 c 128,-1,7
 777 537 777 537 754 537 c 2,8,9
 139 537 l 2,10,11
 108 537 108 537 99 553.5 c 128,-1,12
 90 570 90 570 100 610 c 2,13,-1
 133 739 l 2,14,15
 139 765 139 765 145.5 772.5 c 128,-1,16
 152 780 152 780 166 780 c 2,0,1
EndSplineSet
EndChar

StartChar: Euro
Encoding: 8364 8364 32
Width: 921
VWidth: 0
Flags: W
LayerCount: 2
Fore
SplineSet
-106 657 m 2,0,1
 24 657 l 1,2,3
 30 701 30 701 39 743 c 1,4,-1
 -76 743 l 2,5,6
 -107 743 -107 743 -116 760 c 128,-1,7
 -125 777 -125 777 -115 817 c 1,8,-1
 -96 883 l 2,9,10
 -89 910 -89 910 -83 917 c 128,-1,11
 -77 924 -77 924 -63 924 c 2,12,-1
 84 924 l 1,13,14
 127 1065 127 1065 190 1179 c 128,-1,15
 253 1293 253 1293 331.5 1371 c 128,-1,16
 410 1449 410 1449 505.5 1481 c 128,-1,17
 601 1513 601 1513 702 1487 c 0,18,19
 830 1455 830 1455 877 1375 c 128,-1,20
 924 1295 924 1295 924 1118 c 0,21,22
 924 1068 924 1068 883 1053 c 1,23,-1
 686 991 l 2,24,25
 666 985 666 985 657.5 993.5 c 128,-1,26
 649 1002 649 1002 651 1024 c 0,27,28
 658 1105 658 1105 651.5 1148 c 128,-1,29
 645 1191 645 1191 610 1200 c 0,30,31
 553 1216 553 1216 499.5 1146 c 128,-1,32
 446 1076 446 1076 395 924 c 1,33,-1
 809 924 l 2,34,35
 871 924 871 924 856 858 c 1,36,-1
 844 801 l 2,37,38
 840 778 840 778 818.5 760.5 c 128,-1,39
 797 743 797 743 774 743 c 2,40,-1
 343 743 l 1,41,42
 333 701 333 701 325 657 c 1,43,-1
 735 657 l 2,44,45
 796 657 796 657 782 592 c 2,46,-1
 770 535 l 2,47,48
 766 512 766 512 744.5 494.5 c 128,-1,49
 723 477 723 477 700 477 c 2,50,-1
 303 477 l 1,51,52
 298 368 298 368 313 302 c 128,-1,53
 328 236 328 236 362 236 c 0,54,55
 392 236 392 236 409.5 238.5 c 128,-1,56
 427 241 427 241 444 253.5 c 128,-1,57
 461 266 461 266 469.5 276 c 128,-1,58
 478 286 478 286 503 317 c 128,-1,59
 528 348 528 348 549 373 c 1,60,61
 570 403 570 403 581.5 408 c 128,-1,62
 593 413 593 413 633 408 c 2,63,-1
 774 387 l 2,64,65
 791 385 791 385 796.5 375 c 128,-1,66
 802 365 802 365 800 353 c 128,-1,67
 798 341 798 341 791 319 c 0,68,69
 713 99 713 99 592 23.5 c 128,-1,70
 471 -52 471 -52 281 -2 c 0,71,72
 144 34 144 34 76.5 160.5 c 128,-1,73
 9 287 9 287 10 477 c 1,74,-1
 -119 477 l 2,75,76
 -150 477 -150 477 -159 494 c 128,-1,77
 -168 511 -168 511 -158 551 c 1,78,-1
 -139 616 l 2,79,80
 -132 643 -132 643 -126 650 c 128,-1,81
 -120 657 -120 657 -106 657 c 2,0,1
EndSplineSet
EndChar

StartChar: Euro.001
Encoding: 65538 -1 33
Width: 1116
VWidth: 0
Flags: W
LayerCount: 2
Fore
SplineSet
940 748 m 2,0,1
 486 748 l 1,2,3
 469 678 469 678 468 672 c 1,4,-1
 895 672 l 2,5,6
 923 672 923 672 923 648 c 0,7,8
 923 641 923 641 922 637 c 2,9,-1
 909 578 l 2,10,11
 902 543 902 543 866 543 c 2,12,-1
 447 543 l 1,13,14
 429 414 429 414 442.5 325 c 128,-1,15
 456 236 456 236 500 236 c 0,16,17
 538 236 538 236 566.5 271 c 128,-1,18
 595 306 595 306 645 401 c 0,19,20
 665 438 665 438 680.5 445.5 c 128,-1,21
 696 453 696 453 729 444 c 1,22,-1
 911 406 l 1,23,24
 930 399 930 399 931 373.5 c 128,-1,25
 932 348 932 348 918 324 c 1,26,27
 828 153 828 153 715 68.5 c 128,-1,28
 602 -16 602 -16 457 -16 c 0,29,30
 375 -16 375 -16 305 27 c 0,31,32
 112 146 112 146 149 543 c 1,33,-1
 53 543 l 2,34,35
 36 543 36 543 28.5 547.5 c 128,-1,36
 21 552 21 552 21 566 c 0,37,38
 21 570 21 570 25 590 c 2,39,-1
 37 645 l 1,40,41
 42 660 42 660 47.5 666 c 128,-1,42
 53 672 53 672 63 672 c 2,43,-1
 166 672 l 1,44,45
 169 691 169 691 180 748 c 1,46,-1
 94 748 l 2,47,48
 72 748 72 748 65.5 757 c 128,-1,49
 59 766 59 766 66 795 c 2,50,-1
 78 850 l 1,51,52
 83 865 83 865 88.5 871 c 128,-1,53
 94 877 94 877 104 877 c 2,54,-1
 211 877 l 1,55,56
 287 1155 287 1155 433 1327 c 128,-1,57
 579 1499 579 1499 764 1499 c 0,58,59
 852 1499 852 1499 918 1461 c 128,-1,60
 984 1423 984 1423 1018 1360 c 0,61,62
 1073 1257 1073 1257 1085 1104 c 0,63,64
 1088 1054 1088 1054 1044 1038 c 1,65,-1
 870 985 l 1,66,67
 840 978 840 978 822.5 991 c 128,-1,68
 805 1004 805 1004 805 1032 c 0,69,70
 805 1229 805 1229 737 1229 c 0,71,72
 627 1229 627 1229 521 877 c 1,73,-1
 969 877 l 2,74,75
 987 877 987 877 992.5 868.5 c 128,-1,76
 998 860 998 860 995 842 c 2,77,-1
 983 782 l 2,78,79
 976 748 976 748 940 748 c 2,0,1
EndSplineSet
EndChar

StartChar: F
Encoding: 70 70 34
Width: 884
VWidth: 0
Flags: W
LayerCount: 2
Fore
SplineSet
752 580 m 2,0,1
 388 580 l 1,2,-1
 252 45 l 2,3,4
 240 0 240 0 190 0 c 2,5,-1
 16 0 l 2,6,7
 -9 0 -9 0 -20 18.5 c 128,-1,8
 -31 37 -31 37 -25 63 c 2,9,-1
 275 1239 l 1,10,-1
 203 1239 l 2,11,12
 172 1239 172 1239 163 1256 c 128,-1,13
 154 1273 154 1273 164 1313 c 2,14,-1
 197 1442 l 2,15,16
 203 1469 203 1469 210 1476 c 128,-1,17
 217 1483 217 1483 238 1483 c 2,18,19
 387 1483 l 1,20,-1
 561 1483 l 1,21,-1
 997 1483 l 2,22,23
 1059 1483 1059 1483 1044 1417 c 2,24,-1
 1018 1296 l 2,25,26
 1014 1273 1014 1273 992.5 1256 c 128,-1,27
 971 1239 971 1239 948 1239 c 2,28,-1
 556 1239 l 1,29,-1
 450 823 l 1,30,-1
 801 823 l 2,31,32
 858 823 858 823 844 758 c 2,33,-1
 817 637 l 1,34,35
 813 614 813 614 793.5 597 c 128,-1,36
 774 580 774 580 752 580 c 2,0,1
EndSplineSet
EndChar

StartChar: G
Encoding: 71 71 35
Width: 921
VWidth: 0
Flags: W
LayerCount: 2
Fore
SplineSet
449 715 m 2,0,1
 889 715 l 2,2,3
 922 715 922 715 907 670 c 1,4,-1
 874 555 l 2,5,6
 861 512 861 512 848 503 c 1,7,8
 846 495 846 495 840 477 c 0,9,10
 768 252 768 252 644.5 120 c 128,-1,11
 521 -12 521 -12 358 -12 c 0,12,13
 244 -12 244 -12 166 33 c 1,14,15
 78 86 78 86 40 190.5 c 128,-1,16
 2 295 2 295 2 453 c 0,17,18
 2 613 2 613 59 836 c 1,19,20
 106 1026 106 1026 185.5 1174 c 128,-1,21
 265 1322 265 1322 376.5 1410.5 c 128,-1,22
 488 1499 488 1499 612 1499 c 0,23,24
 732 1499 732 1499 815 1446 c 1,25,26
 889 1400 889 1400 921.5 1311 c 128,-1,27
 954 1222 954 1222 954 1081 c 0,28,29
 954 1031 954 1031 913 1016 c 1,30,-1
 682 946 l 2,31,32
 662 940 662 940 653.5 948.5 c 128,-1,33
 645 957 645 957 647 979 c 0,34,35
 647 990 647 990 648.330348788 1011.70321584 c 0,36,37
 655 1188 655 1188 610 1200 c 1,38,39
 541 1220 541 1220 476 1110.5 c 128,-1,40
 411 1001 411 1001 350 770 c 0,41,42
 297 572 297 572 299 423.5 c 128,-1,43
 301 275 301 275 356 262 c 1,44,45
 405 249 405 249 463 312 c 128,-1,46
 521 375 521 375 558 498 c 1,47,-1
 406 498 l 2,48,49
 366 498 366 498 381 555 c 2,50,-1
 418 690 l 2,51,52
 422 705 422 705 428.5 710 c 128,-1,53
 435 715 435 715 449 715 c 2,0,1
EndSplineSet
EndChar

StartChar: Gastick
Encoding: 65539 -1 36
Width: 442
VWidth: 0
Flags: W
LayerCount: 2
Fore
SplineSet
360 559 m 1,0,1
 346 556 346 556 337 544.5 c 128,-1,2
 328 533 328 533 328 522 c 0,3,4
 328 508 328 508 332 496 c 1,5,6
 343 510 343 510 360 559 c 1,0,1
399 709 m 1,7,-1
 543 1282 l 1,8,-1
 676 1210 l 1,9,-1
 518 578 l 2,10,11
 517 574 517 574 516 570 c 128,-1,12
 515 566 515 566 514.5 563 c 128,-1,13
 514 560 514 560 512.474039931 555.084398672 c 0,14,15
 494 479 494 479 483.5 447.5 c 128,-1,16
 473 416 473 416 444 382 c 128,-1,17
 415 348 415 348 373 348 c 0,18,19
 345 348 345 348 311 367 c 1,20,21
 257 395 257 395 223.5 454.5 c 128,-1,22
 190 514 190 514 190 573 c 0,23,24
 190 709 190 709 381 709 c 2,25,-1
 399 709 l 1,7,-1
EndSplineSet
EndChar

StartChar: H
Encoding: 72 72 39
Width: 1226
VWidth: 0
Flags: W
LayerCount: 2
Fore
SplineSet
334 1438 m 2,0,1
 346 1483 346 1483 395 1483 c 2,2,-1
 569 1483 l 2,3,4
 594 1483 594 1483 605 1464 c 128,-1,5
 616 1445 616 1445 610 1419 c 2,6,-1
 485 926 l 1,7,-1
 877 926 l 1,8,-1
 1008 1438 l 2,9,10
 1020 1483 1020 1483 1069 1483 c 2,11,-1
 1243 1483 l 2,12,13
 1268 1483 1268 1483 1279 1464 c 128,-1,14
 1290 1445 1290 1445 1284 1419 c 2,15,-1
 934 45 l 2,16,17
 922 0 922 0 872 0 c 2,18,-1
 698 0 l 2,19,20
 673 0 673 0 662 18.5 c 128,-1,21
 651 37 651 37 657 63 c 2,22,-1
 815 682 l 1,23,-1
 422 682 l 1,24,-1
 260 45 l 2,25,26
 248 0 248 0 199 0 c 2,27,-1
 25 0 l 2,28,29
 -0 0 -0 0 -11 18.5 c 128,-1,30
 -22 37 -22 37 -16 63 c 2,31,-1
 334 1438 l 2,0,1
EndSplineSet
EndChar

StartChar: I
Encoding: 73 73 40
Width: 565
VWidth: 0
Flags: W
LayerCount: 2
Fore
SplineSet
326 1438 m 2,0,1
 338 1483 338 1483 387 1483 c 2,2,-1
 561 1483 l 2,3,4
 586 1483 586 1483 597 1464 c 128,-1,5
 608 1445 608 1445 602 1419 c 2,6,-1
 252 45 l 2,7,8
 240 0 240 0 190 0 c 2,9,-1
 16 0 l 2,10,11
 -9 0 -9 0 -20 18.5 c 128,-1,12
 -31 37 -31 37 -25 63 c 2,13,-1
 326 1438 l 2,0,1
EndSplineSet
EndChar

StartChar: Iacute
Encoding: 205 205 41
Width: 565
VWidth: 0
Flags: W
LayerCount: 2
Fore
SplineSet
326 1438 m 2,0,1
 338 1483 338 1483 387 1483 c 2,2,-1
 561 1483 l 2,3,4
 586 1483 586 1483 597 1464 c 128,-1,5
 608 1445 608 1445 602 1419 c 2,6,-1
 252 45 l 2,7,8
 240 0 240 0 190 0 c 2,9,-1
 16 0 l 2,10,11
 -9 0 -9 0 -20 18.5 c 128,-1,12
 -31 37 -31 37 -25 63 c 2,13,-1
 326 1438 l 2,0,1
811 1929 m 2,14,15
 833 1929 833 1929 839.5 1915 c 128,-1,16
 846 1901 846 1901 825 1878 c 1,17,-1
 600 1653 l 2,18,19
 571 1624 571 1624 530 1624 c 2,20,-1
 430 1624 l 2,21,22
 410 1624 410 1624 405.5 1635.5 c 128,-1,23
 401 1647 401 1647 410 1659 c 1,24,-1
 551 1894 l 2,25,26
 573 1929 573 1929 614 1929 c 2,27,-1
 811 1929 l 2,14,15
EndSplineSet
EndChar

StartChar: Icircumflex
Encoding: 206 206 42
Width: 565
VWidth: 0
Flags: W
LayerCount: 2
Fore
SplineSet
326 1438 m 2,0,1
 338 1483 338 1483 387 1483 c 2,2,-1
 561 1483 l 2,3,4
 586 1483 586 1483 597 1464 c 128,-1,5
 608 1445 608 1445 602 1419 c 2,6,-1
 252 45 l 2,7,8
 240 0 240 0 190 0 c 2,9,-1
 16 0 l 2,10,11
 -9 0 -9 0 -20 18.5 c 128,-1,12
 -31 37 -31 37 -25 63 c 2,13,-1
 326 1438 l 2,0,1
519 1748 m 1,14,-1
 395 1624 l 2,15,16
 380 1609 380 1609 370 1605.5 c 128,-1,17
 360 1602 360 1602 338 1602 c 2,18,-1
 221 1602 l 2,19,20
 198 1602 198 1602 194 1617 c 128,-1,21
 190 1632 190 1632 209 1649 c 2,22,-1
 481 1898 l 1,23,24
 518 1929 518 1929 539 1927 c 2,25,-1
 575 1925 l 1,26,27
 606 1922 606 1922 625 1888 c 2,28,-1
 764 1636 l 1,29,30
 773 1622 773 1622 767 1612 c 128,-1,31
 761 1602 761 1602 743 1602 c 2,32,-1
 616 1602 l 2,33,34
 595 1602 595 1602 587 1606 c 128,-1,35
 579 1610 579 1610 573 1624 c 2,36,-1
 519 1748 l 1,14,-1
EndSplineSet
EndChar

StartChar: Idieresis
Encoding: 207 207 43
Width: 565
VWidth: 0
Flags: W
LayerCount: 2
Fore
SplineSet
326 1438 m 2,0,1
 338 1483 338 1483 387 1483 c 2,2,-1
 561 1483 l 2,3,4
 586 1483 586 1483 597 1464 c 128,-1,5
 608 1445 608 1445 602 1419 c 2,6,-1
 252 45 l 2,7,8
 240 0 240 0 190 0 c 2,9,-1
 16 0 l 2,10,11
 -9 0 -9 0 -20 18.5 c 128,-1,12
 -31 37 -31 37 -25 63 c 2,13,-1
 326 1438 l 2,0,1
565 1802 m 0,14,15
 565 1858 565 1858 606 1897.5 c 128,-1,16
 647 1937 647 1937 709 1937 c 2,17,-1
 735 1937 l 2,18,19
 783 1937 783 1937 824.5 1895.5 c 128,-1,20
 866 1854 866 1854 866 1802 c 0,21,22
 866 1745 866 1745 824 1706 c 128,-1,23
 782 1667 782 1667 719 1667 c 2,24,-1
 694 1667 l 2,25,26
 642 1667 642 1667 603.5 1707.5 c 128,-1,27
 565 1748 565 1748 565 1802 c 0,14,15
156 1802 m 0,28,29
 156 1858 156 1858 196.5 1897.5 c 128,-1,30
 237 1937 237 1937 299 1937 c 2,31,-1
 326 1937 l 2,32,33
 374 1937 374 1937 415.5 1895.5 c 128,-1,34
 457 1854 457 1854 457 1802 c 0,35,36
 457 1745 457 1745 414.5 1706 c 128,-1,37
 372 1667 372 1667 309 1667 c 2,38,-1
 285 1667 l 2,39,40
 233 1667 233 1667 194.5 1707.5 c 128,-1,41
 156 1748 156 1748 156 1802 c 0,28,29
EndSplineSet
EndChar

StartChar: Igrave
Encoding: 204 204 45
Width: 565
VWidth: 0
Flags: W
LayerCount: 2
Fore
SplineSet
326 1438 m 2,0,1
 338 1483 338 1483 387 1483 c 2,2,-1
 561 1483 l 2,3,4
 586 1483 586 1483 597 1464 c 128,-1,5
 608 1445 608 1445 602 1419 c 2,6,-1
 252 45 l 2,7,8
 240 0 240 0 190 0 c 2,9,-1
 16 0 l 2,10,11
 -9 0 -9 0 -20 18.5 c 128,-1,12
 -31 37 -31 37 -25 63 c 2,13,-1
 326 1438 l 2,0,1
330 1929 m 2,14,15
 371 1929 371 1929 393 1894 c 2,16,-1
 532 1669 l 1,17,18
 544 1647 544 1647 535.5 1635.5 c 128,-1,19
 527 1624 527 1624 506 1624 c 2,20,-1
 418 1624 l 2,21,22
 377 1624 377 1624 348 1653 c 2,23,-1
 106 1892 l 2,24,25
 93 1906 93 1906 97 1917.5 c 128,-1,26
 101 1929 101 1929 113 1929 c 2,27,-1
 330 1929 l 2,14,15
EndSplineSet
EndChar

StartChar: J
Encoding: 74 74 48
Width: 626
VWidth: 0
Flags: W
LayerCount: 2
Fore
SplineSet
446 1483 m 2,0,1
 623 1483 l 2,2,3
 648 1483 648 1483 659 1464.5 c 128,-1,4
 670 1446 670 1446 664 1421 c 2,5,-1
 313 45 l 2,6,7
 292 -34 292 -34 251 -102.5 c 128,-1,8
 210 -171 210 -171 165 -215 c 128,-1,9
 120 -259 120 -259 67.5 -294.5 c 128,-1,10
 15 -330 15 -330 -23.5 -347.5 c 128,-1,11
 -62 -365 -62 -365 -96 -375 c 0,12,13
 -143 -388 -143 -388 -160 -358 c 1,14,-1
 -215 -244 l 2,15,16
 -240 -192 -240 -192 -199 -176 c 0,17,18
 -119 -145 -119 -145 -51.5 -77 c 128,-1,19
 16 -9 16 -9 41 84 c 1,20,-1
 387 1438 l 2,21,22
 399 1483 399 1483 446 1483 c 2,0,1
EndSplineSet
EndChar

StartChar: K
Encoding: 75 75 49
Width: 1019
VWidth: 0
Flags: W
LayerCount: 2
Fore
SplineSet
326 1438 m 2,0,1
 338 1483 338 1483 387 1483 c 2,2,-1
 561 1483 l 2,3,4
 586 1483 586 1483 597 1464 c 128,-1,5
 608 1445 608 1445 602 1419 c 2,6,-1
 466 885 l 1,7,-1
 879 1456 l 2,8,9
 887 1466 887 1466 891.5 1470.5 c 128,-1,10
 896 1475 896 1475 908.5 1479 c 128,-1,11
 921 1483 921 1483 940 1483 c 2,12,-1
 1141 1483 l 2,13,14
 1176 1483 1176 1483 1182.5 1459 c 128,-1,15
 1189 1435 1189 1435 1165 1407 c 1,16,17
 669 754 l 1,18,-1
 840 61 l 1,19,20
 859 0 859 0 793 0 c 2,21,-1
 631 0 l 2,22,23
 569 0 569 0 555 51 c 1,24,-1
 410 666 l 1,25,-1
 252 45 l 2,26,27
 240 0 240 0 190 0 c 2,28,-1
 16 0 l 2,29,30
 -9 0 -9 0 -20 18.5 c 128,-1,31
 -31 37 -31 37 -25 63 c 2,32,-1
 326 1438 l 2,0,1
EndSplineSet
EndChar

StartChar: L
Encoding: 76 76 51
Width: 831
VWidth: 0
Flags: W
LayerCount: 2
Fore
SplineSet
645 0 m 2,0,1
 190 0 l 1,2,-1
 31 0 l 1,3,-1
 16 0 l 2,4,5
 -9 0 -9 0 -20 18.5 c 128,-1,6
 -31 37 -31 37 -25 63 c 2,7,-1
 326 1438 l 2,8,9
 338 1483 338 1483 387 1483 c 2,10,-1
 561 1483 l 2,11,12
 586 1483 586 1483 597 1464 c 128,-1,13
 608 1445 608 1445 602 1419 c 2,14,-1
 303 244 l 1,15,-1
 696 244 l 2,16,17
 758 244 758 244 743 178 c 2,18,-1
 715 57 l 1,19,20
 711 34 711 34 689.5 17 c 128,-1,21
 668 0 668 0 645 0 c 2,0,1
EndSplineSet
EndChar

StartChar: Lslash
Encoding: 321 321 55
Width: 927
VWidth: 0
Flags: W
LayerCount: 2
Fore
SplineSet
-37 666 m 2,0,1
 285 891 l 1,2,-1
 424 1438 l 2,3,4
 436 1483 436 1483 485 1483 c 2,5,-1
 659 1483 l 2,6,7
 684 1483 684 1483 695 1464 c 128,-1,8
 706 1445 706 1445 700 1419 c 2,9,-1
 627 1131 l 1,10,-1
 821 1268 l 1,11,12
 871 1300 871 1300 897 1241 c 1,13,-1
 944 1126 l 2,14,15
 953 1105 953 1105 946.5 1078 c 128,-1,16
 940 1051 940 1051 920 1038 c 2,17,-1
 534 768 l 1,18,-1
 401 244 l 1,19,-1
 795 244 l 2,20,21
 857 244 857 244 842 178 c 2,22,-1
 813 57 l 1,23,24
 809 34 809 34 787.5 17 c 128,-1,25
 766 0 766 0 743 0 c 2,26,-1
 289 0 l 1,27,-1
 129 0 l 1,28,-1
 115 0 l 2,29,30
 90 0 90 0 79 18.5 c 128,-1,31
 68 37 68 37 74 63 c 2,32,-1
 192 528 l 1,33,-1
 82 451 l 2,34,35
 56 434 56 434 38.5 442.5 c 128,-1,36
 21 451 21 451 6 489 c 2,37,-1
 -41 614 l 2,38,39
 -51 641 -51 641 -49.5 649.5 c 128,-1,40
 -48 658 -48 658 -37 666 c 2,0,1
EndSplineSet
EndChar

StartChar: M
Encoding: 77 77 56
Width: 1314
VWidth: 0
Flags: W
LayerCount: 2
Fore
SplineSet
326 1438 m 2,0,1
 338 1483 338 1483 387 1483 c 2,2,-1
 446 1483 l 1,3,-1
 561 1483 l 1,4,-1
 584 1483 l 2,5,6
 608 1483 608 1483 619 1472 c 128,-1,7
 630 1461 630 1461 633 1436 c 0,8,9
 671 1031 671 1031 657 726 c 1,10,-1
 1073 1444 l 2,11,12
 1086 1466 1086 1466 1100 1474.5 c 128,-1,13
 1114 1483 1114 1483 1135 1483 c 2,14,-1
 1157 1483 l 1,15,-1
 1245 1483 l 1,16,-1
 1331 1483 l 2,17,18
 1356 1483 1356 1483 1367 1464 c 128,-1,19
 1378 1445 1378 1445 1372 1419 c 2,20,-1
 1022 45 l 2,21,22
 1010 0 1010 0 961 0 c 2,23,-1
 786 0 l 2,24,25
 761 0 761 0 750 18.5 c 128,-1,26
 739 37 739 37 745 63 c 2,27,-1
 904 687 l 1,28,29
 817 545 817 545 770 465 c 0,30,31
 714 371 714 371 639 371 c 1,32,-1
 504 385 l 2,33,34
 433 393 433 393 438 467 c 0,35,36
 448 617 448 617 442 790 c 1,37,-1
 252 45 l 2,38,39
 240 0 240 0 190 0 c 2,40,-1
 16 0 l 2,41,42
 -9 0 -9 0 -20 18.5 c 128,-1,43
 -31 37 -31 37 -25 63 c 2,44,-1
 326 1438 l 2,0,1
EndSplineSet
EndChar

StartChar: N
Encoding: 78 78 57
Width: 1218
VWidth: 0
Flags: W
LayerCount: 2
Fore
SplineSet
326 1438 m 2,0,1
 338 1483 338 1483 387 1483 c 2,2,-1
 401 1483 l 1,3,-1
 528 1483 l 1,4,-1
 561 1483 l 2,5,6
 583 1483 583 1483 594 1469 c 1,7,8
 600 1465 600 1465 604 1458.5 c 128,-1,9
 608 1452 608 1452 609.5 1447 c 128,-1,10
 611 1442 611 1442 613 1432.5 c 128,-1,11
 615 1423 615 1423 616 1419 c 2,12,-1
 795 635 l 1,13,-1
 999 1438 l 2,14,15
 1011 1483 1011 1483 1061 1483 c 2,16,-1
 1235 1483 l 2,17,18
 1260 1483 1260 1483 1271 1464 c 128,-1,19
 1282 1445 1282 1445 1276 1419 c 2,20,-1
 926 45 l 2,21,22
 914 0 914 0 864 0 c 2,23,-1
 858 0 l 1,24,-1
 690 0 l 1,25,-1
 684 0 l 2,26,27
 662 0 662 0 654 19 c 1,28,29
 647 31 647 31 647 45 c 1,30,31
 645 57 645 57 643 63 c 2,32,-1
 461 865 l 1,33,-1
 252 45 l 2,34,35
 240 0 240 0 190 0 c 2,36,-1
 16 0 l 2,37,38
 -9 0 -9 0 -20 18.5 c 128,-1,39
 -31 37 -31 37 -25 63 c 2,40,-1
 326 1438 l 2,0,1
EndSplineSet
EndChar

StartChar: Nastick
Encoding: 65541 -1 59
Width: 538
VWidth: 0
Flags: W
LayerCount: 2
Fore
SplineSet
492 518 m 1,0,-1
 367 504 l 1,1,-1
 272 735 l 1,2,3
 258 758 258 758 266 785.5 c 128,-1,4
 274 813 274 813 311 813 c 2,5,-1
 758 813 l 1,6,-1
 803 672 l 1,7,-1
 426 672 l 1,8,-1
 492 518 l 1,0,-1
EndSplineSet
EndChar

StartChar: Nastick45
Encoding: 65542 -1 60
Width: 638
VWidth: 0
Flags: W
LayerCount: 2
Fore
SplineSet
389 18 m 1,0,-1
 412 -121 l 1,1,-1
 170 -76 l 1,2,-1
 155 -70 l 2,3,4
 140 -64 140 -64 123 -52 c 128,-1,5
 106 -40 106 -40 92 -25 c 128,-1,6
 78 -10 78 -10 79.5 10.5 c 128,-1,7
 81 31 81 31 104 51 c 2,8,-1
 481 381 l 1,9,-1
 588 262 l 1,10,-1
 322 31 l 1,11,-1
 389 18 l 1,0,-1
EndSplineSet
EndChar

StartChar: O
Encoding: 79 79 64
Width: 921
VWidth: 0
Flags: W
LayerCount: 2
Fore
SplineSet
350 770 m 0,0,1
 308 608 308 608 294.5 486 c 128,-1,2
 281 364 281 364 297.5 298.5 c 128,-1,3
 314 233 314 233 358 233 c 0,4,5
 392 233 392 233 420 255.5 c 128,-1,6
 448 278 448 278 483 336 c 1,7,8
 547 448 547 448 610 698 c 0,9,10
 640 820 640 820 656 915 c 128,-1,11
 672 1010 672 1010 675 1081 c 128,-1,12
 678 1152 678 1152 662.5 1189.5 c 128,-1,13
 647 1227 647 1227 614 1227 c 0,14,15
 572 1227 572 1227 543.5 1209.5 c 128,-1,16
 515 1192 515 1192 483 1139 c 0,17,18
 418 1033 418 1033 350 770 c 0,0,1
59 836 m 0,19,20
 108 1026 108 1026 187.5 1173.5 c 128,-1,21
 267 1321 267 1321 378.5 1410 c 128,-1,22
 490 1499 490 1499 614 1499 c 0,23,24
 662 1499 662 1499 719 1485.5 c 128,-1,25
 776 1472 776 1472 817 1448 c 0,26,27
 891 1404 891 1404 922.5 1315.5 c 128,-1,28
 954 1227 954 1227 954 1083 c 0,29,30
 954 898 954 898 885 625 c 0,31,32
 851 492 851 492 803.5 381 c 128,-1,33
 756 270 756 270 691.5 180.5 c 128,-1,34
 627 91 627 91 542 40.5 c 128,-1,35
 457 -10 457 -10 360 -10 c 0,36,37
 241 -10 241 -10 168 31 c 0,38,39
 79 81 79 81 41.5 185 c 128,-1,40
 4 289 4 289 4 451 c 0,41,42
 4 623 4 623 59 836 c 0,19,20
EndSplineSet
EndChar

StartChar: OE
Encoding: 338 338 65
Width: 1830
VWidth: 0
Flags: W
LayerCount: 2
Fore
SplineSet
664 1239 m 1,0,-1
 633 1239 l 1,1,-1
 592 1239 l 2,2,3
 513 1239 513 1239 438.5 1132.5 c 128,-1,4
 364 1026 364 1026 303 788 c 1,5,6
 269 651 269 651 256 551 c 128,-1,7
 243 451 243 451 252 394 c 128,-1,8
 261 337 261 337 277.5 306.5 c 128,-1,9
 294 276 294 276 322 258 c 0,10,11
 343 245 343 245 411 244 c 1,12,-1
 664 1239 l 1,0,-1
459 0 m 1,13,-1
 434 0 l 1,14,-1
 383 0 l 2,15,16
 270 0 270 0 187.5 32 c 128,-1,17
 105 64 105 64 58 123 c 128,-1,18
 11 182 11 182 -11 257.5 c 128,-1,19
 -33 333 -33 333 -33 428 c 0,20,21
 -33 611 -33 611 33 862 c 0,22,23
 61 969 61 969 97 1059 c 128,-1,24
 133 1149 133 1149 184 1229 c 128,-1,25
 235 1309 235 1309 295.5 1364 c 128,-1,26
 356 1419 356 1419 435 1451 c 128,-1,27
 514 1483 514 1483 604 1483 c 2,28,-1
 776 1483 l 1,29,-1
 788 1483 l 1,30,-1
 895 1483 l 1,31,-1
 950 1483 l 1,32,-1
 1384 1483 l 2,33,34
 1447 1483 1447 1483 1432 1417 c 2,35,-1
 1405 1296 l 1,36,37
 1401 1273 1401 1273 1379.5 1256 c 128,-1,38
 1358 1239 1358 1239 1335 1239 c 2,39,-1
 945 1239 l 1,40,-1
 865 926 l 1,41,-1
 1214 926 l 2,42,43
 1272 926 1272 926 1257 860 c 2,44,-1
 1231 739 l 2,45,46
 1227 716 1227 716 1207 699 c 128,-1,47
 1187 682 1187 682 1165 682 c 2,48,-1
 803 682 l 1,49,-1
 692 244 l 1,50,-1
 1083 244 l 2,51,52
 1141 244 1141 244 1126 178 c 2,53,-1
 1100 57 l 2,54,55
 1096 34 1096 34 1076 17 c 128,-1,56
 1056 0 1056 0 1034 0 c 2,57,-1
 580 0 l 1,58,-1
 459 0 l 1,13,-1
EndSplineSet
EndChar

StartChar: Oslash
Encoding: 216 216 72
Width: 921
VWidth: 0
Flags: W
LayerCount: 2
Fore
SplineSet
1137 1374 m 1,0,1
 953 1151 l 1,2,3
 954 1129 954 1129 954 1083 c 0,4,5
 954 898 954 898 885 625 c 0,6,7
 851 492 851 492 803.5 381 c 128,-1,8
 756 270 756 270 691.5 180.5 c 128,-1,9
 627 91 627 91 542 40.5 c 128,-1,10
 457 -10 457 -10 360 -10 c 0,11,12
 241 -10 241 -10 168 31 c 0,13,14
 119 59 119 59 86 103 c 1,15,-1
 55 66 l 1,16,17
 12 12 12 12 -14 33 c 2,18,-1
 -104 104 l 2,19,20
 -122 119 -122 119 -129 128.5 c 128,-1,21
 -136 138 -136 138 -134 156 c 128,-1,22
 -132 174 -132 174 -113 197 c 2,23,-1
 8 344 l 1,24,25
 4 388 4 388 4 451 c 0,26,27
 4 623 4 623 59 836 c 0,28,29
 108 1026 108 1026 187.5 1173.5 c 128,-1,30
 267 1321 267 1321 378.5 1410 c 128,-1,31
 490 1499 490 1499 614 1499 c 0,32,33
 662 1499 662 1499 719 1485.5 c 128,-1,34
 776 1472 776 1472 817 1448 c 0,35,36
 852 1427 852 1427 876 1398 c 1,37,-1
 950 1489 l 2,38,39
 984 1531 984 1531 1024 1503 c 2,40,-1
 1112 1444 l 1,41,42
 1169 1411 1169 1411 1137 1374 c 1,0,1
350 770 m 0,43,44
 349 768 349 768 347.5 762.5 c 128,-1,45
 346 757 346 757 346 754 c 1,46,-1
 672 1151 l 1,47,48
 661 1227 661 1227 614 1227 c 0,49,50
 572 1227 572 1227 543.5 1209.5 c 128,-1,51
 515 1192 515 1192 483 1139 c 0,52,53
 418 1033 418 1033 350 770 c 0,43,44
290 350 m 1,54,55
 299 233 299 233 358 233 c 0,56,57
 392 233 392 233 420 255.5 c 128,-1,58
 448 278 448 278 483 336 c 1,59,60
 547 448 547 448 610 698 c 0,61,62
 615 717 615 717 623 753 c 1,63,-1
 290 350 l 1,54,55
EndSplineSet
EndChar

StartChar: P
Encoding: 80 80 74
Width: 962
VWidth: 0
Flags: W
LayerCount: 2
Fore
SplineSet
447 810 m 1,0,-1
 522 815 l 2,1,2
 642 822 642 822 688 926 c 0,3,4
 706 967 706 967 721.5 1050 c 128,-1,5
 737 1133 737 1133 737 1176 c 0,6,7
 737 1206 737 1206 718 1222.5 c 128,-1,8
 699 1239 699 1239 676 1239 c 0,9,10
 667 1239 667 1239 650.5 1239.5 c 128,-1,11
 634 1240 634 1240 606 1240.5 c 128,-1,12
 578 1241 578 1241 557 1241 c 1,13,-1
 447 810 l 1,0,-1
276 1243 m 1,14,-1
 207 1243 l 2,15,16
 182 1243 182 1243 170 1260 c 128,-1,17
 158 1277 158 1277 164 1300 c 2,18,-1
 201 1442 l 2,19,20
 205 1460 205 1460 220 1471.5 c 128,-1,21
 235 1483 235 1483 248 1483 c 2,22,-1
 387 1483 l 1,23,-1
 561 1483 l 1,24,-1
 684 1483 l 2,25,26
 823 1483 823 1483 909 1417 c 128,-1,27
 995 1351 995 1351 995 1217 c 0,28,29
 995 1089 995 1089 942.5 943 c 128,-1,30
 890 797 890 797 831 741 c 0,31,32
 829 739 829 739 826.5 737 c 128,-1,33
 824 735 824 735 821.01505261 731.413424605 c 0,34,35
 794 705 794 705 770 687.5 c 128,-1,36
 746 670 746 670 698 646.5 c 128,-1,37
 650 623 650 623 572.5 610.5 c 128,-1,38
 495 598 495 598 392 597 c 1,39,-1
 252 45 l 2,40,41
 240 0 240 0 190 0 c 2,42,-1
 16 0 l 2,43,44
 -9 0 -9 0 -20 18.5 c 128,-1,45
 -31 37 -31 37 -25 63 c 2,46,-1
 276 1243 l 1,14,-1
EndSplineSet
EndChar

StartChar: Q
Encoding: 81 81 75
Width: 921
VWidth: 0
Flags: W
LayerCount: 2
Fore
SplineSet
154 -139 m 2,0,1
 178 -31 l 1,2,3
 182 -6 182 -6 203 8 c 0,4,5
 204 8 204 8 206.5 10 c 128,-1,6
 209 12 209 12 211 12 c 1,7,8
 191 19 191 19 168 31 c 0,9,10
 79 81 79 81 41.5 185 c 128,-1,11
 4 289 4 289 4 451 c 0,12,13
 4 623 4 623 59 836 c 0,14,15
 108 1026 108 1026 187.5 1173.5 c 128,-1,16
 267 1321 267 1321 378.5 1410 c 128,-1,17
 490 1499 490 1499 614 1499 c 0,18,19
 662 1499 662 1499 719 1485.5 c 128,-1,20
 776 1472 776 1472 817 1448 c 0,21,22
 891 1404 891 1404 922.5 1315.5 c 128,-1,23
 954 1227 954 1227 954 1083 c 0,24,25
 954 898 954 898 885 625 c 0,26,27
 825 387 825 387 720.5 221 c 128,-1,28
 616 55 616 55 469 7 c 1,29,30
 573 -22 573 -22 692 14 c 0,31,32
 712 21 712 21 722.5 3.5 c 128,-1,33
 733 -14 733 -14 727 -45 c 2,34,-1
 705 -160 l 2,35,36
 702 -178 702 -178 693.5 -187.5 c 128,-1,37
 685 -197 685 -197 666 -203 c 0,38,39
 523 -250 523 -250 432 -207 c 1,40,41
 325 -155 325 -155 184 -207 c 0,42,43
 161 -216 161 -216 153.5 -196 c 128,-1,44
 146 -176 146 -176 154 -139 c 2,0,1
350 770 m 0,45,46
 308 608 308 608 294.5 486 c 128,-1,47
 281 364 281 364 297.5 298.5 c 128,-1,48
 314 233 314 233 358 233 c 0,49,50
 392 233 392 233 420 255.5 c 128,-1,51
 448 278 448 278 483 336 c 1,52,53
 547 448 547 448 610 698 c 0,54,55
 640 820 640 820 656 915 c 128,-1,56
 672 1010 672 1010 675 1081 c 128,-1,57
 678 1152 678 1152 662.5 1189.5 c 128,-1,58
 647 1227 647 1227 614 1227 c 0,59,60
 572 1227 572 1227 543.5 1209.5 c 128,-1,61
 515 1192 515 1192 483 1139 c 0,62,63
 418 1033 418 1033 350 770 c 0,45,46
EndSplineSet
EndChar

StartChar: R
Encoding: 82 82 76
Width: 980
VWidth: 0
Flags: W
LayerCount: 2
Fore
SplineSet
445 804 m 1,0,-1
 522 815 l 2,1,2
 578 822 578 822 618 846 c 128,-1,3
 658 870 658 870 688 926 c 1,4,5
 704 975 704 975 720.5 1059 c 128,-1,6
 737 1143 737 1143 737 1192 c 0,7,8
 737 1211 737 1211 717.5 1225 c 128,-1,9
 698 1239 698 1239 676 1239 c 0,10,11
 667 1239 667 1239 650.5 1239.5 c 128,-1,12
 634 1240 634 1240 606 1240.5 c 128,-1,13
 578 1241 578 1241 557 1241 c 1,14,-1
 445 804 l 1,0,-1
276 1243 m 1,15,-1
 207 1243 l 2,16,17
 182 1243 182 1243 170 1260 c 128,-1,18
 158 1277 158 1277 164 1300 c 2,19,-1
 201 1442 l 2,20,21
 205 1460 205 1460 220 1471.5 c 128,-1,22
 235 1483 235 1483 248 1483 c 2,23,-1
 387 1483 l 1,24,-1
 561 1483 l 1,25,-1
 684 1483 l 2,26,27
 823 1483 823 1483 909 1417 c 128,-1,28
 995 1351 995 1351 995 1217 c 0,29,30
 995 1088 995 1088 943 941.5 c 128,-1,31
 891 795 891 795 831 741 c 1,32,33
 762 672 762 672 699 641 c 1,34,-1
 782 86 l 2,35,36
 794 0 794 0 727 0 c 2,37,-1
 565 0 l 2,38,39
 537 0 537 0 517.5 28 c 128,-1,40
 498 56 498 56 492 102 c 2,41,-1
 430 597 l 1,42,-1
 393 597 l 1,43,-1
 252 45 l 2,44,45
 240 0 240 0 190 0 c 2,46,-1
 16 0 l 2,47,48
 -9 0 -9 0 -20 18.5 c 128,-1,49
 -31 37 -31 37 -25 63 c 2,50,-1
 276 1243 l 1,15,-1
EndSplineSet
EndChar

StartChar: Rastick
Encoding: 65543 -1 78
Width: 532
VWidth: 0
Flags: W
LayerCount: 2
Fore
SplineSet
156 41 m 1,0,1
 78 125 l 2,2,3
 72 131 72 131 74 142.5 c 128,-1,4
 76 154 76 154 84 160 c 2,5,6
 471 498 l 1,7,-1
 573 379 l 1,8,-1
 190 43 l 2,9,10
 168 24 168 24 156 41 c 1,0,1
EndSplineSet
EndChar

StartChar: S
Encoding: 83 83 81
Width: 950
VWidth: 0
Flags: W
LayerCount: 2
Fore
SplineSet
717 1505 m 0,0,1
 863 1505 863 1505 931 1392.5 c 128,-1,2
 999 1280 999 1280 999 1081 c 0,3,4
 999 1028 999 1028 950 1016 c 2,5,-1
 801 977 l 2,6,7
 780 971 780 971 755 980.5 c 128,-1,8
 730 990 730 990 729 1020 c 0,9,10
 722 1192 722 1192 666 1264 c 1,11,12
 660 1267 660 1267 651 1262 c 0,13,14
 616 1242 616 1242 571 1152 c 128,-1,15
 526 1062 526 1062 526 983 c 0,16,17
 526 926 526 926 550 903.5 c 128,-1,18
 574 881 574 881 639 862 c 1,19,-1
 676 852 l 2,20,21
 718 840 718 840 746 825 c 128,-1,22
 774 810 774 810 801 780 c 128,-1,23
 828 750 828 750 841 698.5 c 128,-1,24
 854 647 854 647 854 573 c 0,25,26
 854 465 854 465 809 354 c 128,-1,27
 764 243 764 243 692.5 158.5 c 128,-1,28
 621 74 621 74 528 20.5 c 128,-1,29
 435 -33 435 -33 344 -33 c 0,30,31
 269 -33 269 -33 212 -8 c 128,-1,32
 155 17 155 17 123 54 c 128,-1,33
 91 91 91 91 71 144 c 128,-1,34
 51 197 51 197 45 243.5 c 128,-1,35
 39 290 39 290 39 342 c 0,36,37
 39 375 39 375 51.5 402 c 128,-1,38
 64 429 64 429 88 438 c 2,39,-1
 246 494 l 1,40,41
 283 506 283 506 304.5 497 c 128,-1,42
 326 488 326 488 326 463 c 0,43,44
 320 218 320 218 356 176 c 1,45,46
 376 176 376 176 391 182 c 1,47,48
 445 209 445 209 492 292 c 128,-1,49
 539 375 539 375 539 481 c 0,50,51
 539 510 539 510 538 526.5 c 128,-1,52
 537 543 537 543 531 563.5 c 128,-1,53
 525 584 525 584 513 596.5 c 128,-1,54
 501 609 501 609 479.5 621 c 128,-1,55
 458 633 458 633 426 641 c 2,56,-1
 393 649 l 2,57,58
 362 657 362 657 332.5 671.5 c 128,-1,59
 303 686 303 686 272.5 711.5 c 128,-1,60
 242 737 242 737 223.5 779 c 128,-1,61
 205 821 205 821 205 874 c 0,62,63
 205 973 205 973 247 1084.5 c 128,-1,64
 289 1196 289 1196 357.5 1289 c 128,-1,65
 426 1382 426 1382 522 1443.5 c 128,-1,66
 618 1505 618 1505 717 1505 c 0,0,1
EndSplineSet
EndChar

StartChar: SiroCopy
Encoding: 65544 -1 86
Width: 0
VWidth: 0
Flags: W
LayerCount: 2
Fore
SplineSet
1532 1278 m 1,0,1
 1565 1112 l 2,2,3
 1569 1089 1569 1089 1553.5 1073 c 128,-1,4
 1538 1057 1538 1057 1513 1057 c 2,5,-1
 264 1057 l 2,6,7
 227 1057 227 1057 206 1074 c 128,-1,8
 185 1091 185 1091 176 1130 c 1,9,-1
 152 1249 l 2,10,11
 146 1278 146 1278 159.5 1293.5 c 128,-1,12
 173 1309 173 1309 195 1309 c 2,13,-1
 1489 1309 l 2,14,15
 1524 1309 1524 1309 1532 1278 c 1,0,1
EndSplineSet
EndChar

StartChar: T
Encoding: 84 84 87
Width: 905
VWidth: 0
Flags: W
LayerCount: 2
Fore
SplineSet
1020 1239 m 2,0,1
 726 1239 l 1,2,-1
 422 45 l 2,3,4
 410 0 410 0 360 0 c 2,5,-1
 186 0 l 2,6,7
 161 0 161 0 150 18.5 c 128,-1,8
 139 37 139 37 145 63 c 2,9,-1
 445 1239 l 1,10,-1
 133 1239 l 2,11,12
 102 1239 102 1239 93 1256 c 128,-1,13
 84 1273 84 1273 94 1313 c 2,14,-1
 127 1442 l 2,15,16
 133 1468 133 1468 145.5 1475.5 c 128,-1,17
 158 1483 158 1483 188 1483 c 2,18,-1
 557 1483 l 1,19,-1
 731 1483 l 1,20,-1
 1069 1483 l 2,21,22
 1131 1483 1131 1483 1116 1417 c 2,23,-1
 1090 1296 l 2,24,25
 1086 1273 1086 1273 1064.5 1256 c 128,-1,26
 1043 1239 1043 1239 1020 1239 c 2,0,1
EndSplineSet
EndChar

StartChar: Thorn
Encoding: 222 222 90
Width: 962
VWidth: 0
Flags: W
LayerCount: 2
Fore
SplineSet
326 1438 m 2,0,1
 338 1483 338 1483 387 1483 c 2,2,-1
 561 1483 l 2,3,4
 586 1483 586 1483 597 1464 c 128,-1,5
 608 1445 608 1445 602 1419 c 2,6,-1
 582 1341 l 1,7,-1
 651 1341 l 2,8,9
 790 1341 790 1341 876.5 1275 c 128,-1,10
 963 1209 963 1209 963 1075 c 0,11,12
 963 946 963 946 911 800 c 128,-1,13
 859 654 859 654 799 600 c 0,14,15
 797 598 797 598 792.659679708 593.62206857 c 0,16,17
 770 570 770 570 755 557.5 c 128,-1,18
 740 545 740 545 702.5 523 c 128,-1,19
 665 501 665 501 624 488.5 c 128,-1,20
 583 476 583 476 512.5 466 c 128,-1,21
 442 456 442 456 356 455 c 1,22,-1
 252 45 l 2,23,24
 240 0 240 0 190 0 c 2,25,-1
 16 0 l 2,26,27
 -9 0 -9 0 -20 18.5 c 128,-1,28
 -31 37 -31 37 -25 63 c 2,29,-1
 326 1438 l 2,0,1
411 668 m 1,30,-1
 489 674 l 1,31,32
 599 680 599 680 655 784 c 1,33,34
 672 833 672 833 688.5 917.5 c 128,-1,35
 705 1002 705 1002 705 1051 c 0,36,37
 705 1070 705 1070 685 1084 c 128,-1,38
 665 1098 665 1098 643 1098 c 0,39,40
 634 1098 634 1098 617 1098.5 c 128,-1,41
 600 1099 600 1099 571 1099.5 c 128,-1,42
 542 1100 542 1100 521 1100 c 1,43,-1
 411 668 l 1,30,-1
EndSplineSet
EndChar

StartChar: U
Encoding: 85 85 91
Width: 1122
VWidth: 0
Flags: W
LayerCount: 2
Fore
SplineSet
442 -14 m 0,0,1
 247 -14 247 -14 164 72 c 1,2,3
 84 153 84 153 73.5 291.5 c 128,-1,4
 63 430 63 430 115 618 c 1,5,-1
 326 1438 l 2,6,7
 338 1483 338 1483 387 1483 c 2,8,-1
 569 1483 l 2,9,10
 594 1483 594 1483 605 1464 c 128,-1,11
 616 1445 616 1445 610 1419 c 2,12,-1
 403 596 l 1,13,14
 351 401 351 401 362.5 305 c 128,-1,15
 374 209 374 209 461 209 c 0,16,17
 509 209 509 209 546 241.5 c 128,-1,18
 583 274 583 274 621 361 c 128,-1,19
 659 448 659 448 698 602 c 2,20,-1
 911 1438 l 2,21,22
 923 1483 923 1483 973 1483 c 2,23,-1
 1139 1483 l 2,24,25
 1164 1483 1164 1483 1175 1464 c 128,-1,26
 1186 1445 1186 1445 1180 1419 c 2,27,-1
 979 625 l 2,28,29
 950 511 950 511 921.5 425.5 c 128,-1,30
 893 340 893 340 847.5 253 c 128,-1,31
 802 166 802 166 748 110.5 c 128,-1,32
 694 55 694 55 615.5 20.5 c 128,-1,33
 537 -14 537 -14 442 -14 c 0,0,1
EndSplineSet
EndChar

StartChar: V
Encoding: 86 86 100
Width: 1032
VWidth: 0
Flags: W
LayerCount: 2
Fore
SplineSet
378 309 m 1,0,-1
 932 1440 l 2,1,2
 954 1486 954 1486 1010 1481 c 1,3,-1
 1169 1475 l 2,4,5
 1239 1472 1239 1472 1214 1399 c 1,6,-1
 530 82 l 1,7,8
 511 43 511 43 480 21.5 c 128,-1,9
 449 0 449 0 418 0 c 2,10,-1
 182 -2 l 1,11,12
 145 -5 145 -5 122 21 c 128,-1,13
 99 47 99 47 102 96 c 2,14,-1
 178 1434 l 1,15,16
 183 1479 183 1479 240 1479 c 2,17,-1
 406 1479 l 2,18,19
 432 1479 432 1479 444 1463.5 c 128,-1,20
 456 1448 456 1448 453 1423 c 1,21,-1
 378 309 l 1,0,-1
EndSplineSet
EndChar

StartChar: W
Encoding: 87 87 101
Width: 1476
VWidth: 0
Flags: W
LayerCount: 2
Fore
SplineSet
539 1483 m 2,0,1
 563 1483 563 1483 569.5 1465 c 128,-1,2
 576 1447 576 1447 555 1403 c 1,3,4
 511 1324 511 1324 453 1140 c 128,-1,5
 395 956 395 956 355 720.5 c 128,-1,6
 315 485 315 485 335 335 c 1,7,8
 469 517 469 517 588 784 c 128,-1,9
 707 1051 707 1051 750 1262 c 1,10,-1
 754 1264 l 1,11,12
 774 1362 774 1362 793 1430 c 1,13,14
 803 1460 803 1460 818.5 1471.5 c 128,-1,15
 834 1483 834 1483 864 1483 c 2,16,-1
 1049 1483 l 2,17,18
 1097 1483 1097 1483 1075 1421 c 1,19,20
 975 1124 975 1124 954 850 c 1,21,22
 922 452 922 452 957 302 c 1,23,24
 1059 430 1059 430 1147 651 c 128,-1,25
 1235 872 1235 872 1281.5 1078.5 c 128,-1,26
 1328 1285 1328 1285 1335 1434 c 0,27,28
 1336 1454 1336 1454 1337.5 1461.5 c 128,-1,29
 1339 1469 1339 1469 1348 1476 c 128,-1,30
 1357 1483 1357 1483 1376 1483 c 2,31,-1
 1561 1483 l 2,32,33
 1595 1483 1595 1483 1605.5 1472.5 c 128,-1,34
 1616 1462 1616 1462 1616 1432 c 0,35,36
 1616 1330 1616 1330 1584.5 1172 c 128,-1,37
 1553 1014 1553 1014 1492 831 c 128,-1,38
 1431 648 1431 648 1352 480 c 128,-1,39
 1273 312 1273 312 1167 179.5 c 128,-1,40
 1061 47 1061 47 952 0 c 1,41,-1
 811 0 l 2,42,43
 790 0 790 0 779 9.5 c 128,-1,44
 768 19 768 19 760 41 c 0,45,46
 703 206 703 206 692 460 c 1,47,48
 618 327 618 327 527.5 204 c 128,-1,49
 437 81 437 81 354 0 c 1,50,-1
 201 0 l 2,51,52
 155 0 155 0 141 41 c 0,53,54
 53 317 53 317 97 737 c 128,-1,55
 141 1157 141 1157 283 1454 c 1,56,57
 298 1483 298 1483 338 1483 c 2,58,-1
 539 1483 l 2,0,1
1002 219 m 1,59,60
 1010 215 1010 215 1016 215 c 1,61,-1
 1002 219 l 1,59,60
EndSplineSet
EndChar

StartChar: X
Encoding: 88 88 102
Width: 870
VWidth: 0
Flags: W
LayerCount: 2
Fore
SplineSet
613 688 m 1,0,-1
 743 82 l 1,1,2
 754 43 754 43 741 21.5 c 128,-1,3
 728 0 728 0 692 0 c 2,4,-1
 539 0 l 2,5,6
 469 0 469 0 455 70 c 1,7,-1
 413 421 l 1,8,-1
 238 35 l 1,9,10
 227 17 227 17 214 8.5 c 128,-1,11
 201 0 201 0 170 0 c 2,12,-1
 -27 0 l 2,13,14
 -61 0 -61 0 -71 21.5 c 128,-1,15
 -81 43 -81 43 -59 86 c 2,16,-1
 307 769 l 1,17,-1
 170 1403 l 1,18,19
 147 1485 147 1485 223 1485 c 2,20,-1
 375 1485 l 2,21,22
 445 1485 445 1485 459 1415 c 1,23,-1
 526 1027 l 1,24,-1
 729 1450 l 1,25,26
 740 1468 740 1468 753 1476.5 c 128,-1,27
 766 1485 766 1485 797 1485 c 2,28,-1
 991 1485 l 2,29,30
 1023 1485 1023 1485 1036.5 1472 c 128,-1,31
 1050 1459 1050 1459 1047 1440.5 c 128,-1,32
 1044 1422 1044 1422 1030 1399 c 2,33,-1
 613 688 l 1,0,-1
EndSplineSet
EndChar

StartChar: Y
Encoding: 89 89 103
Width: 892
VWidth: 0
Flags: W
LayerCount: 2
Fore
SplineSet
535 916 m 1,0,1
 744 1232 744 1232 844 1456 c 0,2,3
 857 1486 857 1486 905 1483 c 2,4,-1
 1079 1475 l 2,5,6
 1103 1473 1103 1473 1112 1453 c 128,-1,7
 1121 1433 1121 1433 1104 1401 c 1,8,9
 876 1000 876 1000 580 604 c 1,10,-1
 438 45 l 2,11,12
 426 0 426 0 377 0 c 2,13,-1
 203 0 l 2,14,15
 178 0 178 0 167 18.5 c 128,-1,16
 156 37 156 37 162 63 c 2,17,-1
 305 628 l 1,18,19
 305 764 305 764 273.5 1013.5 c 128,-1,20
 242 1263 242 1263 209 1391 c 1,21,22
 196 1427 196 1427 210 1453 c 128,-1,23
 224 1479 224 1479 254 1481 c 2,24,-1
 418 1489 l 2,25,26
 447 1491 447 1491 459 1482 c 128,-1,27
 471 1473 471 1473 477 1440 c 0,28,29
 524 1160 524 1160 535 916 c 1,0,1
EndSplineSet
EndChar

StartChar: Z
Encoding: 90 90 106
Width: 968
VWidth: 0
Flags: W
LayerCount: 2
Fore
SplineSet
319 1483 m 2,0,1
 1018 1483 l 2,2,3
 1061 1483 1061 1483 1067 1449 c 1,4,-1
 1067 1415 l 1,5,-1
 1063 1409 l 1,6,-1
 1038 1296 l 1,7,8
 1034 1273 1034 1273 1013 1256 c 128,-1,9
 992 1239 992 1239 969 1239 c 2,10,-1
 959 1239 l 1,11,-1
 349 244 l 1,12,-1
 715 244 l 2,13,14
 777 244 777 244 762 178 c 2,15,-1
 735 57 l 1,16,17
 731 34 731 34 710 17 c 128,-1,18
 689 0 689 0 666 0 c 2,19,-1
 23 0 l 2,20,21
 -12 0 -12 0 -29.5 13 c 128,-1,22
 -47 26 -47 26 -47 47.5 c 128,-1,23
 -47 69 -47 69 -41 96 c 1,24,-1
 -39 97 l 1,25,-1
 670 1239 l 1,26,-1
 293 1239 l 2,27,28
 262 1239 262 1239 253 1256 c 128,-1,29
 244 1273 244 1273 254 1313 c 2,30,-1
 287 1442 l 2,31,32
 293 1469 293 1469 299 1476 c 128,-1,33
 305 1483 305 1483 319 1483 c 2,0,1
EndSplineSet
EndChar

StartChar: a
Encoding: 97 97 111
Width: 866
VWidth: 0
Flags: W
LayerCount: 2
Fore
SplineSet
451 12 m 1,0,1
 397 141 l 1,2,-1
 398 141 l 1,3,-1
 394 150 l 1,4,-1
 375 127 l 2,5,6
 312 52 312 52 276.5 23 c 128,-1,7
 241 -6 241 -6 205 -6 c 2,8,-1
 190 -6 l 2,9,10
 155 -6 155 -6 88 61 c 0,11,12
 -1 150 -1 150 10 260 c 0,13,14
 32 482 32 482 126 732.5 c 128,-1,15
 220 983 220 983 307 1049 c 0,16,17
 376 1102 376 1102 471 1102 c 0,18,19
 560 1102 560 1102 639 1045 c 1,20,-1
 641 1055 l 2,21,22
 645 1072 645 1072 649 1082 c 128,-1,23
 653 1092 653 1092 664 1101 c 128,-1,24
 675 1110 675 1110 692 1110 c 2,25,-1
 823 1112 l 1,26,27
 899 1112 899 1112 881 1044 c 1,28,-1
 656 292 l 1,29,30
 685 323 685 323 700 348 c 0,31,32
 720 381 720 381 752 362 c 1,33,-1
 842 303 l 2,34,35
 874 281 874 281 856 256 c 0,36,37
 784 151 784 151 688 76 c 128,-1,38
 592 1 592 1 487 -10 c 0,39,40
 463 -13 463 -13 451 12 c 1,0,1
597 874 m 1,41,42
 517 900 517 900 487 879 c 1,43,44
 445 847 445 847 379.5 670 c 128,-1,45
 314 493 314 493 291 367 c 0,46,47
 284 329 284 329 285.5 317 c 128,-1,48
 287 305 287 305 301 305 c 0,49,50
 317 305 317 305 348.5 341.5 c 128,-1,51
 380 378 380 378 420 446 c 0,52,53
 512 604 512 604 597 874 c 1,41,42
EndSplineSet
EndChar

StartChar: a.sans
Encoding: 65546 -1 112
Width: 858
VWidth: 0
Flags: W
LayerCount: 2
Fore
SplineSet
597 874 m 1,0,1
 517 900 517 900 487 879 c 1,2,3
 445 847 445 847 379.5 670 c 128,-1,4
 314 493 314 493 291 367 c 0,5,6
 284 329 284 329 285.5 317 c 128,-1,7
 287 305 287 305 301 305 c 0,8,9
 317 305 317 305 348.5 341.5 c 128,-1,10
 380 378 380 378 420 446 c 0,11,12
 512 604 512 604 597 874 c 1,0,1
639 1045 m 1,13,14
 641 1055 l 2,15,16
 645 1072 645 1072 649 1082 c 128,-1,17
 653 1092 653 1092 664 1101 c 128,-1,18
 675 1110 675 1110 692 1110 c 2,19,-1
 823 1112 l 1,20,21
 899 1112 899 1112 881 1044 c 1,22,-1
 594 57 l 2,23,24
 584 22 584 22 563 11 c 128,-1,25
 542 0 542 0 502 0 c 2,26,-1
 418 0 l 2,27,28
 392 0 392 0 376.5 18 c 128,-1,29
 361 36 361 36 371 74 c 2,30,31
 391 147 l 1,32,-1
 375 127 l 1,33,34
 312 52 312 52 276.5 23 c 128,-1,35
 241 -6 241 -6 205 -6 c 2,36,-1
 190 -6 l 2,37,38
 155 -6 155 -6 88 61 c 0,39,40
 -1 150 -1 150 10 260 c 0,41,42
 32 482 32 482 126 732.5 c 128,-1,43
 220 983 220 983 307 1049 c 0,44,45
 376 1102 376 1102 471 1102 c 0,46,47
 560 1102 560 1102 639 1045 c 1,13,14
EndSplineSet
EndChar

StartChar: aadeva
Encoding: 2310 2310 114
Width: 1953
VWidth: 0
Flags: W
AnchorPoint: "DVAnchor3" 1585 1296 basechar 0
LayerCount: 2
Fore
SplineSet
307 637 m 1,0,1
 268 795 l 2,2,3
 266 806 266 806 275 826 c 128,-1,4
 284 846 284 846 293 846 c 2,5,-1
 416 846 l 2,6,7
 502 846 502 846 584 913.5 c 128,-1,8
 666 981 666 981 666 1042 c 0,9,10
 666 1055 666 1055 654.5 1066 c 128,-1,11
 643 1077 643 1077 625 1077 c 0,12,13
 602 1077 602 1077 547 1034 c 1,14,15
 529 1022 529 1022 501.5 1030 c 128,-1,16
 474 1038 474 1038 455 1065 c 2,17,-1
 381 1169 l 2,18,19
 369 1186 369 1186 364.5 1193 c 128,-1,20
 360 1200 360 1200 354.5 1214.5 c 128,-1,21
 349 1229 349 1229 354 1241.5 c 128,-1,22
 359 1254 359 1254 373 1268 c 1,23,24
 433 1311 433 1311 476.5 1322 c 128,-1,25
 520 1333 520 1333 582 1333 c 0,26,27
 722 1333 722 1333 815.5 1224 c 128,-1,28
 909 1115 909 1115 909 958 c 0,29,30
 909 871 909 871 858.5 794 c 128,-1,31
 808 717 808 717 722 665 c 1,32,33
 724 662 724 662 728.5 656 c 128,-1,34
 733 650 733 650 735 647 c 1,35,-1
 1051 647 l 1,36,-1
 1153 1057 l 1,37,-1
 1006 1057 l 2,38,39
 961 1057 961 1057 950 1094 c 1,40,-1
 913 1268 l 1,41,42
 907 1309 907 1309 944 1309 c 2,43,-1
 1456 1309 l 1,44,-1
 1571 1309 l 1,45,-1
 2083 1309 l 2,46,47
 2128 1309 2128 1309 2136 1268 c 1,48,-1
 2175 1094 l 2,49,50
 2180 1074 2180 1074 2173 1065.5 c 128,-1,51
 2166 1057 2166 1057 2144 1057 c 2,52,-1
 1938 1057 l 1,53,-1
 1667 -33 l 2,54,55
 1661 -55 1661 -55 1652 -60 c 128,-1,56
 1643 -65 1643 -65 1624 -57 c 1,57,-1
 1448 35 l 1,58,59
 1415 51 1415 51 1425 94 c 2,60,-1
 1665 1057 l 1,61,-1
 1632 1057 l 1,62,-1
 1518 1057 l 1,63,-1
 1426 1057 l 1,64,-1
 1155 -33 l 2,65,66
 1149 -55 1149 -55 1140 -60 c 128,-1,67
 1131 -65 1131 -65 1112 -57 c 1,68,-1
 936 35 l 1,69,70
 903 51 903 51 913 94 c 2,71,-1
 996 428 l 1,72,-1
 786 428 l 1,73,74
 777 265 777 265 677 159 c 128,-1,75
 577 53 577 53 424 53 c 0,76,77
 346 53 346 53 277.5 86.5 c 128,-1,78
 209 120 209 120 162 175.5 c 128,-1,79
 115 231 115 231 83.5 299 c 128,-1,80
 52 367 52 367 39 440 c 0,81,82
 34 465 34 465 52 483.5 c 128,-1,83
 70 502 70 502 102 496 c 1,84,-1
 176 475 l 2,85,86
 198 469 198 469 208.5 453 c 128,-1,87
 219 437 219 437 233 399 c 0,88,89
 269 305 269 305 354 305 c 0,90,91
 429 305 429 305 479.5 371.5 c 128,-1,92
 530 438 530 438 530 520 c 0,93,94
 530 594 530 594 424 594 c 2,95,-1
 389 594 l 2,96,97
 351 594 351 594 334.5 601.5 c 128,-1,98
 318 609 318 609 307 637 c 1,0,1
EndSplineSet
EndChar

StartChar: aasigndeva
Encoding: 2366 2366 115
Width: 536
VWidth: 0
Flags: W
AnchorPoint: "DVAnchor3" 457 1296 basechar 0
LayerCount: 2
Fore
SplineSet
764 1268 m 1,0,1
 803 1094 l 2,2,3
 808 1074 808 1074 801 1065.5 c 128,-1,4
 794 1057 794 1057 772 1057 c 2,5,-1
 565 1057 l 1,6,-1
 295 -33 l 2,7,8
 289 -55 289 -55 280 -60 c 128,-1,9
 271 -65 271 -65 252 -57 c 1,10,-1
 76 35 l 1,11,12
 43 51 43 51 53 94 c 2,13,-1
 293 1057 l 1,14,-1
 145 1057 l 2,15,16
 101 1057 101 1057 90 1094 c 1,17,-1
 53 1268 l 1,18,19
 47 1309 47 1309 84 1309 c 2,20,-1
 711 1309 l 2,21,22
 756 1309 756 1309 764 1268 c 1,0,1
EndSplineSet
EndChar

StartChar: abbreviationsigndeva
Encoding: 2416 2416 116
Width: 1116
VWidth: 0
Flags: W
LayerCount: 2
Fore
SplineSet
528 844 m 128,-1,1
 616 844 616 844 679.5 906.5 c 128,-1,2
 743 969 743 969 743 1057 c 128,-1,3
 743 1145 743 1145 679.5 1208.5 c 128,-1,4
 616 1272 616 1272 528 1272 c 128,-1,5
 440 1272 440 1272 377.5 1208.5 c 128,-1,6
 315 1145 315 1145 315 1057 c 128,-1,7
 315 969 315 969 377.5 906.5 c 128,-1,0
 440 844 440 844 528 844 c 128,-1,1
885 1061 m 0,8,9
 885 915 885 915 781.5 813 c 128,-1,10
 678 711 678 711 530 711 c 128,-1,11
 382 711 382 711 279 813 c 128,-1,12
 176 915 176 915 176 1061 c 0,13,14
 176 1206 176 1206 279 1307.5 c 128,-1,15
 382 1409 382 1409 530 1409 c 128,-1,16
 678 1409 678 1409 781.5 1307.5 c 128,-1,17
 885 1206 885 1206 885 1061 c 0,8,9
EndSplineSet
EndChar

StartChar: acandradeva
Encoding: 2418 2418 118
Width: 1454
VWidth: 0
Flags: W
LayerCount: 2
Fore
SplineSet
1014 1804 m 2,0,1
 1104 1759 l 2,2,3
 1134 1745 1134 1745 1130 1690 c 0,4,5
 1127 1661 1127 1661 1135 1634 c 0,6,7
 1144 1604 1144 1604 1163 1590.5 c 128,-1,8
 1182 1577 1182 1577 1235 1577 c 0,9,10
 1342 1577 1342 1577 1401 1630.5 c 128,-1,11
 1460 1684 1460 1684 1491 1774 c 1,12,13
 1497 1795 1497 1795 1519 1800.5 c 128,-1,14
 1541 1806 1541 1806 1559 1796 c 2,15,-1
 1673 1737 l 2,16,17
 1684 1731 1684 1731 1686 1722.5 c 128,-1,18
 1688 1714 1688 1714 1681 1690 c 0,19,20
 1660 1616 1660 1616 1602.5 1542 c 128,-1,21
 1545 1468 1545 1468 1457.5 1415 c 128,-1,22
 1370 1362 1370 1362 1280 1362 c 0,23,24
 1189 1362 1189 1362 1108 1416.5 c 128,-1,25
 1027 1471 1027 1471 983 1563 c 0,26,27
 958 1615 958 1615 958 1683 c 0,28,29
 958 1695 958 1695 962 1716.5 c 128,-1,30
 966 1738 966 1738 972.5 1761 c 128,-1,31
 979 1784 979 1784 990.5 1797 c 128,-1,32
 1002 1810 1002 1810 1014 1804 c 2,0,1
307 637 m 1,33,-1
 268 795 l 2,34,35
 266 806 266 806 275 826 c 128,-1,36
 284 846 284 846 293 846 c 2,37,-1
 416 846 l 2,38,39
 502 846 502 846 584 913.5 c 128,-1,40
 666 981 666 981 666 1042 c 0,41,42
 666 1055 666 1055 654.5 1066 c 128,-1,43
 643 1077 643 1077 625 1077 c 0,44,45
 602 1077 602 1077 547 1034 c 1,46,47
 529 1022 529 1022 501.5 1030 c 128,-1,48
 474 1038 474 1038 455 1065 c 2,49,-1
 381 1169 l 2,50,51
 369 1186 369 1186 364.5 1193 c 128,-1,52
 360 1200 360 1200 354.5 1214.5 c 128,-1,53
 349 1229 349 1229 354 1241.5 c 128,-1,54
 359 1254 359 1254 373 1268 c 1,55,56
 433 1311 433 1311 476.5 1322 c 128,-1,57
 520 1333 520 1333 582 1333 c 0,58,59
 722 1333 722 1333 815.5 1224 c 128,-1,60
 909 1115 909 1115 909 958 c 0,61,62
 909 871 909 871 858.5 794 c 128,-1,63
 808 717 808 717 722 665 c 1,64,65
 724 662 724 662 728.5 656 c 128,-1,66
 733 650 733 650 735 647 c 1,67,-1
 1063 647 l 1,68,-1
 1165 1057 l 1,69,-1
 1018 1057 l 2,70,71
 974 1057 974 1057 963 1094 c 1,72,-1
 926 1268 l 1,73,74
 920 1309 920 1309 956 1309 c 2,75,76
 1583 1309 l 2,77,78
 1628 1309 1628 1309 1636 1268 c 1,79,-1
 1675 1094 l 2,80,81
 1680 1074 1680 1074 1673.5 1065.5 c 128,-1,82
 1667 1057 1667 1057 1645 1057 c 2,83,-1
 1438 1057 l 1,84,-1
 1167 -33 l 2,85,86
 1161 -55 1161 -55 1152 -60 c 128,-1,87
 1143 -65 1143 -65 1124 -57 c 1,88,-1
 948 35 l 2,89,90
 916 51 916 51 926 94 c 2,91,-1
 1009 428 l 1,92,-1
 786 428 l 1,93,94
 777 265 777 265 677 159 c 128,-1,95
 577 53 577 53 424 53 c 0,96,97
 346 53 346 53 277.5 86.5 c 128,-1,98
 209 120 209 120 162 175.5 c 128,-1,99
 115 231 115 231 83.5 299 c 128,-1,100
 52 367 52 367 39 440 c 0,101,102
 34 465 34 465 52 483.5 c 128,-1,103
 70 502 70 502 102 496 c 1,104,-1
 176 475 l 2,105,106
 198 469 198 469 208.5 453 c 128,-1,107
 219 437 219 437 233 399 c 0,108,109
 269 305 269 305 354 305 c 0,110,111
 429 305 429 305 479.5 371.5 c 128,-1,112
 530 438 530 438 530 520 c 0,113,114
 530 594 530 594 424 594 c 2,115,-1
 389 594 l 2,116,117
 351 594 351 594 334.5 601.5 c 128,-1,118
 318 609 318 609 307 637 c 1,33,-1
EndSplineSet
EndChar

StartChar: acombiningletterdeva
Encoding: 43242 43242 120
Width: 0
VWidth: 0
Flags: W
AnchorPoint: "DVAnchor3" -137 1251 mark 0
LayerCount: 2
Fore
SplineSet
-315 1577 m 1,0,1
 -336 1653 l 1,2,3
 -336 1658 -336 1658 -331.5 1666.5 c 128,-1,4
 -327 1675 -327 1675 -322 1675 c 2,5,-1
 -264 1675 l 2,6,7
 -230 1675 -230 1675 -198 1699.5 c 128,-1,8
 -166 1724 -166 1724 -166 1743 c 1,9,-1
 -180 1747 l 1,10,11
 -185 1747 -185 1747 -209 1731 c 1,12,13
 -232 1722 -232 1722 -252 1747 c 1,14,-1
 -285 1794 l 2,15,16
 -286 1796 -286 1796 -290 1801 c 128,-1,17
 -294 1806 -294 1806 -296 1809 c 128,-1,18
 -298 1812 -298 1812 -299.5 1817 c 128,-1,19
 -301 1822 -301 1822 -299.5 1827 c 128,-1,20
 -298 1832 -298 1832 -293 1837 c 1,21,22
 -285 1843 -285 1843 -278 1847 c 128,-1,23
 -271 1851 -271 1851 -266 1854 c 128,-1,24
 -261 1857 -261 1857 -254 1859 c 128,-1,25
 -247 1861 -247 1861 -243.5 1862 c 128,-1,26
 -240 1863 -240 1863 -233 1863.5 c 128,-1,27
 -226 1864 -226 1864 -223 1864 c 128,-1,28
 -220 1864 -220 1864 -212 1864 c 128,-1,29
 -204 1864 -204 1864 -201 1864 c 0,30,31
 -135 1864 -135 1864 -92 1817.5 c 128,-1,32
 -49 1771 -49 1771 -49 1700 c 0,33,34
 -49 1635 -49 1635 -122 1590 c 1,35,-1
 -121 1589 l 1,36,-1
 12 1589 l 1,37,-1
 50 1739 l 1,38,-1
 -18 1739 l 2,39,40
 -36 1739 -36 1739 -39 1755 c 2,41,-1
 -57 1835 l 1,42,43
 -57 1855 -57 1855 -43 1855 c 2,44,-1
 248 1855 l 2,45,46
 267 1855 267 1855 270 1835 c 1,47,-1
 287 1755 l 1,48,49
 292 1739 292 1739 274 1739 c 2,50,-1
 179 1739 l 1,51,-1
 70 1313 l 1,52,53
 65 1298 65 1298 53 1303 c 1,54,-1
 -35 1348 l 1,55,56
 -47 1353 -47 1353 -43 1374 c 1,57,-1
 -14 1489 l 1,58,-1
 -99 1489 l 1,59,60
 -105 1421 -105 1421 -147.5 1383.5 c 128,-1,61
 -190 1346 -190 1346 -254 1346 c 0,62,63
 -320 1346 -320 1346 -365.5 1392 c 128,-1,64
 -411 1438 -411 1438 -426 1503 c 0,65,66
 -429 1514 -429 1514 -420 1523.5 c 128,-1,67
 -411 1533 -411 1533 -397 1530 c 2,68,-1
 -362 1520 l 2,69,70
 -346 1515 -346 1515 -338 1489 c 1,71,72
 -317 1464 -317 1464 -289 1464 c 128,-1,73
 -261 1464 -261 1464 -241 1486.5 c 128,-1,74
 -221 1509 -221 1509 -221 1540 c 0,75,76
 -221 1554 -221 1554 -241 1557 c 0,77,78
 -242 1557 -242 1557 -243 1556.5 c 2,79,-1
 -244 1556 l 1,80,-1
 -262 1556 l 1,81,-1
 -276 1556 l 2,82,83
 -293 1556 -293 1556 -301 1560.5 c 128,-1,84
 -309 1565 -309 1565 -315 1577 c 1,0,1
EndSplineSet
EndChar

StartChar: acute
Encoding: 180 180 121
Width: 694
VWidth: 0
Flags: W
LayerCount: 2
Fore
SplineSet
539 1483 m 2,0,1
 561 1483 561 1483 567.5 1469 c 128,-1,2
 574 1455 574 1455 553 1432 c 1,3,-1
 328 1206 l 2,4,5
 300 1178 300 1178 258 1178 c 2,6,-1
 158 1178 l 2,7,8
 138 1178 138 1178 133 1189 c 128,-1,9
 128 1200 128 1200 137 1212 c 1,10,-1
 279 1448 l 2,11,12
 301 1483 301 1483 342 1483 c 2,13,-1
 539 1483 l 2,0,1
EndSplineSet
EndChar

StartChar: acutedeva
Encoding: 2388 2388 122
Width: 0
VWidth: 0
Flags: W
AnchorPoint: "DVAnchor3" -70 1284 mark 0
LayerCount: 2
Fore
SplineSet
240 1575 m 2,0,1
 262 1575 262 1575 268.5 1561 c 128,-1,2
 275 1547 275 1547 254 1524 c 1,3,-1
 29 1298 l 2,4,5
 1 1270 1 1270 -41 1270 c 2,6,-1
 -141 1270 l 2,7,8
 -161 1270 -161 1270 -166 1281.5 c 128,-1,9
 -171 1293 -171 1293 -162 1305 c 1,10,-1
 -20 1540 l 2,11,12
 2 1575 2 1575 43 1575 c 2,13,-1
 240 1575 l 2,0,1
EndSplineSet
EndChar

StartChar: adeva
Encoding: 2309 2309 123
Width: 1454
VWidth: 0
Flags: W
AnchorPoint: "DVAnchor3" 1325 1296 basechar 0
LayerCount: 2
Fore
SplineSet
307 637 m 1,0,1
 268 795 l 2,2,3
 266 806 266 806 275 826 c 128,-1,4
 284 846 284 846 293 846 c 2,5,-1
 416 846 l 2,6,7
 502 846 502 846 584 913.5 c 128,-1,8
 666 981 666 981 666 1042 c 0,9,10
 666 1055 666 1055 654.5 1066 c 128,-1,11
 643 1077 643 1077 625 1077 c 0,12,13
 602 1077 602 1077 547 1034 c 1,14,15
 529 1022 529 1022 501.5 1030 c 128,-1,16
 474 1038 474 1038 455 1065 c 2,17,-1
 381 1169 l 2,18,19
 369 1186 369 1186 364.5 1193 c 128,-1,20
 360 1200 360 1200 354.5 1214.5 c 128,-1,21
 349 1229 349 1229 354 1241.5 c 128,-1,22
 359 1254 359 1254 373 1268 c 1,23,24
 433 1311 433 1311 476.5 1322 c 128,-1,25
 520 1333 520 1333 582 1333 c 0,26,27
 722 1333 722 1333 815.5 1224 c 128,-1,28
 909 1115 909 1115 909 958 c 0,29,30
 909 871 909 871 858.5 794 c 128,-1,31
 808 717 808 717 722 665 c 1,32,33
 724 662 724 662 728.5 656 c 128,-1,34
 733 650 733 650 735 647 c 1,35,-1
 1063 647 l 1,36,-1
 1165 1057 l 1,37,-1
 1018 1057 l 2,38,39
 974 1057 974 1057 963 1094 c 1,40,-1
 926 1268 l 1,41,42
 920 1309 920 1309 956 1309 c 2,43,44
 1583 1309 l 2,45,46
 1628 1309 1628 1309 1636 1268 c 1,47,-1
 1675 1094 l 2,48,49
 1680 1074 1680 1074 1673.5 1065.5 c 128,-1,50
 1667 1057 1667 1057 1645 1057 c 2,51,-1
 1438 1057 l 1,52,-1
 1167 -33 l 2,53,54
 1161 -55 1161 -55 1152 -60 c 128,-1,55
 1143 -65 1143 -65 1124 -57 c 1,56,-1
 948 35 l 2,57,58
 916 51 916 51 926 94 c 2,59,-1
 1009 428 l 1,60,-1
 786 428 l 1,61,62
 777 265 777 265 677 159 c 128,-1,63
 577 53 577 53 424 53 c 0,64,65
 346 53 346 53 277.5 86.5 c 128,-1,66
 209 120 209 120 162 175.5 c 128,-1,67
 115 231 115 231 83.5 299 c 128,-1,68
 52 367 52 367 39 440 c 0,69,70
 34 465 34 465 52 483.5 c 128,-1,71
 70 502 70 502 102 496 c 1,72,-1
 176 475 l 2,73,74
 198 469 198 469 208.5 453 c 128,-1,75
 219 437 219 437 233 399 c 0,76,77
 269 305 269 305 354 305 c 0,78,79
 429 305 429 305 479.5 371.5 c 128,-1,80
 530 438 530 438 530 520 c 0,81,82
 530 594 530 594 424 594 c 2,83,-1
 389 594 l 2,84,85
 351 594 351 594 334.5 601.5 c 128,-1,86
 318 609 318 609 307 637 c 1,0,1
EndSplineSet
EndChar

StartChar: adevaComp
Encoding: 65547 -1 124
Width: 1165
VWidth: 0
Flags: W
LayerCount: 2
Fore
SplineSet
379 637 m 1,0,1
 340 795 l 2,2,3
 338 806 338 806 347 826 c 128,-1,4
 356 846 356 846 365 846 c 2,5,-1
 487 846 l 2,6,7
 573 846 573 846 655 913.5 c 128,-1,8
 737 981 737 981 737 1042 c 0,9,10
 737 1055 737 1055 725.5 1066 c 128,-1,11
 714 1077 714 1077 696 1077 c 0,12,13
 673 1077 673 1077 618 1034 c 1,14,15
 600 1022 600 1022 572.5 1030 c 128,-1,16
 545 1038 545 1038 526 1065 c 2,17,-1
 453 1169 l 2,18,19
 440 1187 440 1187 436 1193.5 c 128,-1,20
 432 1200 432 1200 426 1214.5 c 128,-1,21
 420 1229 420 1229 425 1241.5 c 128,-1,22
 430 1254 430 1254 444 1268 c 1,23,24
 504 1311 504 1311 547.5 1322 c 128,-1,25
 591 1333 591 1333 653 1333 c 0,26,27
 793 1333 793 1333 887 1224 c 128,-1,28
 981 1115 981 1115 981 958 c 0,29,30
 981 871 981 871 930.5 794 c 128,-1,31
 880 717 880 717 794 665 c 1,32,33
 858 583 858 583 858 457 c 0,34,35
 858 284 858 284 757 168.5 c 128,-1,36
 656 53 656 53 496 53 c 0,37,38
 418 53 418 53 349.5 86.5 c 128,-1,39
 281 120 281 120 234 175.5 c 128,-1,40
 187 231 187 231 155.5 299 c 128,-1,41
 124 367 124 367 111 440 c 0,42,43
 106 465 106 465 124 483.5 c 128,-1,44
 142 502 142 502 174 496 c 1,45,-1
 248 475 l 2,46,47
 270 469 270 469 280.5 453 c 128,-1,48
 291 437 291 437 305 399 c 0,49,50
 341 305 341 305 426 305 c 0,51,52
 501 305 501 305 551.5 371.5 c 128,-1,53
 602 438 602 438 602 520 c 0,54,55
 602 594 602 594 496 594 c 2,56,-1
 461 594 l 2,57,58
 423 594 423 594 406.5 601.5 c 128,-1,59
 390 609 390 609 379 637 c 1,0,1
EndSplineSet
EndChar

StartChar: ae
Encoding: 230 230 126
Width: 1013
VWidth: 0
Flags: W
LayerCount: 2
Fore
SplineSet
626 564 m 1,0,1
 705 601 705 601 756 680 c 128,-1,2
 807 759 807 759 807 844 c 0,3,4
 807 876 807 876 801 887.5 c 128,-1,5
 795 899 795 899 780 899 c 0,6,7
 764 899 764 899 735 861 c 128,-1,8
 706 823 706 823 696 795 c 0,9,10
 660 703 660 703 626 564 c 1,0,1
577 345 m 1,11,12
 576 343 576 343 575 338 c 128,-1,13
 574 333 574 333 573 330 c 0,14,15
 566 295 566 295 564.5 274.5 c 128,-1,16
 563 254 563 254 570 243 c 128,-1,17
 577 232 577 232 583.5 228.5 c 128,-1,18
 590 225 590 225 608 219 c 1,19,20
 642 226 642 226 745 336 c 0,21,22
 753 344 753 344 765 345 c 128,-1,23
 777 346 777 346 786 340 c 2,24,-1
 887 279 l 2,25,26
 899 272 899 272 904.5 257 c 128,-1,27
 910 242 910 242 905 233 c 0,28,29
 869 163 869 163 739 57.5 c 128,-1,30
 609 -48 609 -48 559 -39 c 1,31,32
 418 -3 418 -3 366 64 c 1,33,34
 312 4 312 4 246 -15.5 c 128,-1,35
 180 -35 180 -35 113 -8 c 1,36,37
 -31 54 -31 54 -31 203 c 0,38,39
 -31 305 -31 305 34.5 407 c 128,-1,40
 100 509 100 509 201 583.5 c 128,-1,41
 302 658 302 658 417 696 c 1,42,43
 418 702 418 702 420.5 713.5 c 128,-1,44
 423 725 423 725 424 731 c 0,45,46
 436 804 436 804 428 825 c 128,-1,47
 420 846 420 846 389 856 c 1,48,49
 355 849 355 849 252 739 c 0,50,51
 244 731 244 731 232 730 c 128,-1,52
 220 729 220 729 211 735 c 2,53,-1
 111 797 l 2,54,55
 99 804 99 804 93 818.5 c 128,-1,56
 87 833 87 833 92 842 c 0,57,58
 128 912 128 912 258 1017.5 c 128,-1,59
 388 1123 388 1123 438 1114 c 1,60,61
 579 1078 579 1078 631 1012 c 1,62,63
 752 1140 752 1140 885 1083 c 0,64,65
 1028 1022 1028 1022 1028 872 c 0,66,67
 1028 767 1028 767 963 657 c 128,-1,68
 898 547 898 547 794.5 464 c 128,-1,69
 691 381 691 381 577 345 c 1,11,12
366 475 m 1,70,71
 287 437 287 437 238.5 373.5 c 128,-1,72
 190 310 190 310 190 231 c 0,73,74
 190 199 190 199 196 187.5 c 128,-1,75
 202 176 202 176 217 176 c 0,76,77
 234 176 234 176 263 208 c 128,-1,78
 292 240 292 240 301 266 c 1,79,80
 334 348 334 348 366 475 c 1,70,71
EndSplineSet
EndChar

StartChar: aisign_ra_virama.alt1
Encoding: 65548 -1 129
Width: 0
VWidth: 0
Flags: W
AnchorPoint: "DVAnchor3" -111 1253 mark 0
LayerCount: 2
Fore
SplineSet
-639 1647 m 1,0,1
 -635 1751 l 1,2,3
 -633 1771 -633 1771 -628 1777.5 c 128,-1,4
 -623 1784 -623 1784 -604 1784 c 2,5,-1
 -543 1784 l 1,6,-1
 -487 1784 l 2,7,8
 -303 1784 -303 1784 -214 1710 c 1,9,10
 -114 1826 -114 1826 84 1831 c 2,11,-1
 252 1835 l 1,12,13
 301 1835 301 1835 301 1776 c 1,14,-1
 299 1698 l 2,15,16
 299 1669 299 1669 289.5 1653.5 c 128,-1,17
 280 1638 280 1638 250 1638 c 2,18,-1
 121 1636 l 1,19,20
 41 1636 41 1636 -18.5 1605 c 128,-1,21
 -78 1574 -78 1574 -78 1520 c 0,22,23
 -78 1496 -78 1496 -77 1485 c 1,24,-1
 23 1296 l 1,25,-1
 -160 1178 l 1,26,-1
 -223 1291 l 1,27,28
 -242 1320 -242 1320 -274.5 1338 c 128,-1,29
 -307 1356 -307 1356 -355.5 1363 c 128,-1,30
 -404 1370 -404 1370 -439.5 1372 c 128,-1,31
 -475 1374 -475 1374 -535 1374 c 2,32,-1
 -565 1374 l 2,33,34
 -609 1374 -609 1374 -612 1407 c 1,35,-1
 -608 1509 l 1,36,37
 -610 1529 -610 1529 -605.5 1535.5 c 128,-1,38
 -601 1542 -601 1542 -582 1542 c 2,39,-1
 -516 1542 l 1,40,-1
 -461 1542 l 2,41,42
 -408 1542 -408 1542 -355 1529 c 1,43,44
 -388 1586 -388 1586 -426 1600 c 128,-1,45
 -464 1614 -464 1614 -561 1614 c 2,46,-1
 -592 1614 l 2,47,48
 -636 1614 -636 1614 -639 1647 c 1,0,1
EndSplineSet
Ligature2: "AboveBaseSubstitutionslookup subtable" aisigndeva radeva_viramadeva
EndChar

StartChar: aisign_ra_virama_anusvara
Encoding: 65549 -1 130
Width: 0
VWidth: 0
Flags: W
AnchorPoint: "DVAnchor3" 27 1251 mark 0
LayerCount: 2
Fore
SplineSet
25 1475 m 0,0,1
 25 1520 25 1520 57.5 1552.5 c 128,-1,2
 90 1585 90 1585 139 1585 c 2,3,-1
 162 1585 l 2,4,5
 200 1585 200 1585 233 1551 c 128,-1,6
 266 1517 266 1517 266 1475 c 0,7,8
 266 1430 266 1430 232 1399 c 128,-1,9
 198 1368 198 1368 147 1368 c 2,10,-1
 127 1368 l 2,11,12
 87 1368 87 1368 56 1401 c 128,-1,13
 25 1434 25 1434 25 1475 c 0,0,1
-639 1647 m 1,14,15
 -635 1751 l 1,16,17
 -633 1771 -633 1771 -628 1777.5 c 128,-1,18
 -623 1784 -623 1784 -604 1784 c 2,19,-1
 -543 1784 l 1,20,-1
 -487 1784 l 2,21,22
 -303 1784 -303 1784 -214 1710 c 1,23,24
 -114 1826 -114 1826 84 1831 c 2,25,-1
 252 1835 l 1,26,27
 301 1835 301 1835 301 1776 c 1,28,-1
 299 1698 l 2,29,30
 299 1669 299 1669 289.5 1653.5 c 128,-1,31
 280 1638 280 1638 250 1638 c 2,32,-1
 121 1636 l 1,33,34
 41 1636 41 1636 -18.5 1605 c 128,-1,35
 -78 1574 -78 1574 -78 1520 c 0,36,37
 -78 1496 -78 1496 -77 1485 c 1,38,-1
 23 1296 l 1,39,-1
 -160 1178 l 1,40,-1
 -223 1291 l 1,41,42
 -242 1320 -242 1320 -274.5 1338 c 128,-1,43
 -307 1356 -307 1356 -355.5 1363 c 128,-1,44
 -404 1370 -404 1370 -439.5 1372 c 128,-1,45
 -475 1374 -475 1374 -535 1374 c 2,46,-1
 -565 1374 l 2,47,48
 -609 1374 -609 1374 -612 1407 c 1,49,-1
 -608 1509 l 1,50,51
 -610 1529 -610 1529 -605.5 1535.5 c 128,-1,52
 -601 1542 -601 1542 -582 1542 c 2,53,-1
 -516 1542 l 1,54,-1
 -461 1542 l 2,55,56
 -408 1542 -408 1542 -355 1529 c 1,57,58
 -388 1586 -388 1586 -426 1600 c 128,-1,59
 -464 1614 -464 1614 -561 1614 c 2,60,-1
 -592 1614 l 2,61,62
 -636 1614 -636 1614 -639 1647 c 1,14,15
EndSplineSet
Ligature2: "AboveBaseSubstitutionslookup subtable" aisigndeva radeva_viramadeva anusvaradeva
EndChar

StartChar: aisigndeva
Encoding: 2376 2376 131
Width: 0
VWidth: 0
Flags: W
AnchorPoint: "DVAnchor3" -10 1251 mark 0
LayerCount: 2
Fore
SplineSet
-659 1647 m 1,0,1
 -655 1751 l 1,2,3
 -653 1772 -653 1772 -648.5 1778 c 128,-1,4
 -644 1784 -644 1784 -625 1784 c 2,5,-1
 -563 1784 l 1,6,-1
 -508 1784 l 2,7,8
 -252 1784 -252 1784 -182 1647 c 1,9,-1
 2 1296 l 1,10,-1
 -180 1178 l 1,11,-1
 -243 1291 l 1,12,13
 -262 1320 -262 1320 -294.5 1338 c 128,-1,14
 -327 1356 -327 1356 -375.5 1363 c 128,-1,15
 -424 1370 -424 1370 -459.5 1372 c 128,-1,16
 -495 1374 -495 1374 -555 1374 c 2,17,18
 -586 1374 l 2,19,20
 -630 1374 -630 1374 -633 1407 c 1,21,-1
 -629 1509 l 1,22,23
 -631 1529 -631 1529 -626 1535.5 c 128,-1,24
 -621 1542 -621 1542 -602 1542 c 2,25,-1
 -537 1542 l 1,26,-1
 -481 1542 l 2,27,28
 -428 1542 -428 1542 -375 1529 c 1,29,30
 -408 1586 -408 1586 -446 1600 c 128,-1,31
 -484 1614 -484 1614 -582 1614 c 2,32,-1
 -612 1614 l 2,33,34
 -656 1614 -656 1614 -659 1647 c 1,0,1
EndSplineSet
EndChar

StartChar: ampersand
Encoding: 38 38 134
Width: 1267
VWidth: 0
Flags: W
LayerCount: 2
Fore
SplineSet
834 885 m 2,0,1
 1210 885 l 2,2,3
 1224 885 1224 885 1230 876.5 c 128,-1,4
 1236 868 1236 868 1229 840 c 1,5,-1
 1200 745 l 2,6,7
 1194 726 1194 726 1191 717 c 128,-1,8
 1188 708 1188 708 1179 698 c 128,-1,9
 1170 688 1170 688 1157 688 c 2,10,-1
 1058 688 l 1,11,12
 1033 601 1033 601 993.5 512.5 c 128,-1,13
 954 424 954 424 920 369 c 0,14,15
 906 346 906 346 864 284 c 1,16,17
 983 109 983 109 1096 -25 c 1,18,19
 1110 -39 1110 -39 1104.5 -60.5 c 128,-1,20
 1099 -82 1099 -82 1069 -90 c 0,21,22
 1037 -99 1037 -99 998 -106.5 c 128,-1,23
 959 -114 959 -114 894 -112.5 c 128,-1,24
 829 -111 829 -111 784 -90 c 1,25,26
 729 -31 729 -31 656 66 c 1,27,28
 497 -45 497 -45 309 -20 c 1,29,30
 162 2 162 2 88.5 96.5 c 128,-1,31
 15 191 15 191 37 336 c 0,32,33
 46 401 46 401 71 456.5 c 128,-1,34
 96 512 96 512 135.5 554 c 128,-1,35
 175 596 175 596 214 626 c 128,-1,36
 253 656 253 656 304 686 c 1,37,38
 270 774 270 774 258 839 c 128,-1,39
 246 904 246 904 256 975 c 0,40,41
 272 1087 272 1087 343.5 1185.5 c 128,-1,42
 415 1284 415 1284 532.5 1340.5 c 128,-1,43
 650 1397 650 1397 780 1378 c 1,44,45
 816 1374 816 1374 809 1331 c 1,46,-1
 782 1249 l 2,47,48
 771 1216 771 1216 733 1208 c 1,49,50
 672 1208 672 1208 604.5 1142.5 c 128,-1,51
 537 1077 537 1077 537 981 c 128,-1,52
 537 885 537 885 604 717 c 0,53,54
 635 641 635 641 735 481 c 1,55,56
 793 584 793 584 822 688 c 1,57,-1
 795 688 l 2,58,59
 783 688 783 688 775.5 690 c 128,-1,60
 768 692 768 692 764.5 694 c 128,-1,61
 761 696 761 696 760.5 702.5 c 128,-1,62
 760 709 760 709 761 712.5 c 128,-1,63
 762 716 762 716 765.5 727.5 c 128,-1,64
 769 739 769 739 770 745 c 2,65,-1
 803 860 l 2,66,67
 810 885 810 885 834 885 c 2,0,1
399 476 m 1,68,69
 313 403 313 403 313 309 c 0,70,71
 313 265 313 265 336.5 230 c 128,-1,72
 360 195 360 195 414 195 c 0,73,74
 466 195 466 195 534 245 c 1,75,76
 451 377 451 377 399 476 c 1,68,69
EndSplineSet
EndChar

StartChar: anudattadeva
Encoding: 2386 2386 135
Width: 0
VWidth: 0
Flags: W
LayerCount: 2
Fore
SplineSet
-227 -385 m 1,0,-1
 -1305 -385 l 1,1,-1
 -1305 -213 l 1,2,-1
 -227 -213 l 1,3,-1
 -227 -385 l 1,0,-1
EndSplineSet
EndChar

StartChar: anusvaradeva
Encoding: 2306 2306 136
Width: 0
VWidth: 0
Flags: W
AnchorPoint: "DVAnchor3" -150 1298 mark 0
LayerCount: 2
Fore
SplineSet
-205 1505 m 0,0,1
 -205 1557 -205 1557 -166.5 1593.5 c 128,-1,2
 -128 1630 -128 1630 -72 1630 c 2,3,-1
 -47 1630 l 2,4,5
 -3 1630 -3 1630 34.5 1591.5 c 128,-1,6
 72 1553 72 1553 72 1505 c 0,7,8
 72 1453 72 1453 33 1417.5 c 128,-1,9
 -6 1382 -6 1382 -63 1382 c 2,10,-1
 -86 1382 l 2,11,12
 -132 1382 -132 1382 -168.5 1419 c 128,-1,13
 -205 1456 -205 1456 -205 1505 c 0,0,1
EndSplineSet
EndChar

StartChar: asciicircum
Encoding: 94 94 139
Width: 946
VWidth: 0
Flags: W
LayerCount: 2
Fore
SplineSet
688 1303 m 1,0,-1
 707 1303 l 1,1,-1
 805 1303 l 2,2,3
 835 1303 835 1303 857.5 1281.5 c 128,-1,4
 880 1260 880 1260 879 1223 c 2,5,-1
 860 471 l 2,6,7
 860 436 860 436 801 436 c 2,8,-1
 645 436 l 2,9,10
 592 436 592 436 592 473 c 1,11,-1
 626 1145 l 1,12,-1
 260 471 l 1,13,14
 260 436 260 436 201 436 c 2,15,-1
 37 436 l 2,16,17
 -16 436 -16 436 -16 473 c 1,18,-1
 428 1212 l 2,19,20
 453 1255 453 1255 492 1279 c 128,-1,21
 531 1303 531 1303 567 1303 c 2,22,-1
 688 1303 l 1,0,-1
EndSplineSet
EndChar

StartChar: asciitilde
Encoding: 126 126 140
Width: 915
VWidth: 0
Flags: W
LayerCount: 2
Fore
SplineSet
111 756 m 1,0,1
 141 877 l 2,2,3
 148 905 148 905 174 918 c 1,4,5
 230 942 230 942 322.5 945 c 128,-1,6
 415 948 415 948 492 926 c 0,7,8
 581 901 581 901 653 902 c 128,-1,9
 725 903 725 903 813 926 c 0,10,11
 840 933 840 933 854 913.5 c 128,-1,12
 868 894 868 894 860 860 c 2,13,-1
 831 733 l 2,14,15
 826 714 826 714 815 703.5 c 128,-1,16
 804 693 804 693 778 686 c 0,17,18
 597 633 597 633 475 682 c 1,19,20
 334 740 334 740 150 682 c 0,21,22
 121 673 121 673 110.5 694.5 c 128,-1,23
 100 716 100 716 111 756 c 1,0,1
EndSplineSet
EndChar

StartChar: ashortdeva
Encoding: 2308 2308 141
Width: 1439
VWidth: 0
Flags: W
LayerCount: 2
Fore
SplineSet
1622 1268 m 1,0,1
 1661 1094 l 2,2,3
 1666 1074 1666 1074 1659 1065.5 c 128,-1,4
 1652 1057 1652 1057 1630 1057 c 2,5,-1
 1423 1057 l 1,6,-1
 1153 -33 l 2,7,8
 1147 -55 1147 -55 1138 -60 c 128,-1,9
 1129 -65 1129 -65 1110 -57 c 1,10,-1
 934 35 l 1,11,12
 901 51 901 51 911 94 c 2,13,-1
 994 428 l 1,14,-1
 786 428 l 1,15,16
 777 265 777 265 677 159 c 128,-1,17
 577 53 577 53 424 53 c 0,18,19
 346 53 346 53 277.5 86.5 c 128,-1,20
 209 120 209 120 162 175.5 c 128,-1,21
 115 231 115 231 83.5 299 c 128,-1,22
 52 367 52 367 39 440 c 0,23,24
 34 465 34 465 52 483.5 c 128,-1,25
 70 502 70 502 102 496 c 1,26,-1
 176 475 l 2,27,28
 198 469 198 469 208.5 453 c 128,-1,29
 219 437 219 437 233 399 c 0,30,31
 269 305 269 305 354 305 c 0,32,33
 429 305 429 305 479.5 371.5 c 128,-1,34
 530 438 530 438 530 520 c 0,35,36
 530 594 530 594 424 594 c 2,37,-1
 389 594 l 2,38,39
 351 594 351 594 334.5 601.5 c 128,-1,40
 318 609 318 609 307 637 c 1,41,-1
 268 795 l 2,42,43
 266 806 266 806 275 826 c 128,-1,44
 284 846 284 846 293 846 c 2,45,-1
 416 846 l 2,46,47
 502 846 502 846 584 913.5 c 128,-1,48
 666 981 666 981 666 1042 c 0,49,50
 666 1055 666 1055 654.5 1066 c 128,-1,51
 643 1077 643 1077 625 1077 c 0,52,53
 602 1077 602 1077 547 1034 c 1,54,55
 529 1022 529 1022 501.5 1030 c 128,-1,56
 474 1038 474 1038 455 1065 c 2,57,-1
 381 1169 l 2,58,59
 369 1186 369 1186 364.5 1193 c 128,-1,60
 360 1200 360 1200 354.5 1214.5 c 128,-1,61
 349 1229 349 1229 354 1241.5 c 128,-1,62
 359 1254 359 1254 373 1268 c 1,63,64
 433 1311 433 1311 476.5 1322 c 128,-1,65
 520 1333 520 1333 582 1333 c 0,66,67
 722 1333 722 1333 815.5 1224 c 128,-1,68
 909 1115 909 1115 909 958 c 0,69,70
 909 871 909 871 858.5 794 c 128,-1,71
 808 717 808 717 722 665 c 1,72,73
 724 662 724 662 728.5 656 c 128,-1,74
 733 650 733 650 735 647 c 1,75,-1
 1049 647 l 1,76,-1
 1151 1057 l 1,77,-1
 1004 1057 l 2,78,79
 959 1057 959 1057 948 1094 c 1,80,-1
 911 1268 l 1,81,82
 905 1309 905 1309 942 1309 c 2,83,-1
 1175 1309 l 1,84,-1
 1090 1466 l 1,85,86
 1053 1531 1053 1531 1014.5 1547 c 128,-1,87
 976 1563 976 1563 874 1563 c 2,88,-1
 844 1563 l 2,89,90
 821 1563 821 1563 807 1570.5 c 128,-1,91
 793 1578 793 1578 797 1595 c 2,92,-1
 825 1700 l 1,93,94
 829 1720 829 1720 839.5 1726.5 c 128,-1,95
 850 1733 850 1733 872 1733 c 2,96,-1
 1014 1733 l 2,97,98
 1195 1733 1195 1733 1280 1559 c 1,99,-1
 1407 1309 l 1,100,-1
 1569 1309 l 2,101,102
 1614 1309 1614 1309 1622 1268 c 1,0,1
EndSplineSet
EndChar

StartChar: asterisk
Encoding: 42 42 142
Width: 890
VWidth: 0
Flags: W
LayerCount: 2
Fore
SplineSet
350 1090 m 1,0,-1
 131 1106 l 2,1,2
 108 1107 108 1107 98 1129 c 128,-1,3
 88 1151 88 1151 96 1178 c 2,4,-1
 129 1294 l 2,5,6
 134 1315 134 1315 152.5 1328.5 c 128,-1,7
 171 1342 171 1342 190 1333 c 2,8,-1
 416 1233 l 1,9,-1
 426 1468 l 2,10,11
 427 1493 427 1493 449.5 1506.5 c 128,-1,12
 472 1520 472 1520 502 1520 c 2,13,-1
 610 1520 l 2,14,15
 638 1520 638 1520 657 1501.5 c 128,-1,16
 676 1483 676 1483 662 1452 c 2,17,-1
 563 1231 l 1,18,-1
 819 1327 l 1,19,20
 849 1337 849 1337 869 1319.5 c 128,-1,21
 889 1302 889 1302 889 1270 c 2,22,-1
 889 1184 l 2,23,24
 889 1123 889 1123 838 1118 c 1,25,-1
 565 1085 l 1,26,-1
 715 872 l 2,27,28
 728 855 728 855 723 833.5 c 128,-1,29
 718 812 718 812 696 799 c 2,30,-1
 592 735 l 2,31,32
 571 721 571 721 548.5 726 c 128,-1,33
 526 731 526 731 518 760 c 2,34,-1
 449 999 l 1,35,-1
 279 770 l 2,36,37
 259 743 259 743 234 742 c 128,-1,38
 209 741 209 741 197 760 c 1,39,-1
 125 840 l 1,40,41
 89 885 89 885 131 920 c 1,42,-1
 350 1090 l 1,0,-1
EndSplineSet
EndChar

StartChar: at
Encoding: 64 64 143
Width: 1933
VWidth: 0
Flags: W
LayerCount: 2
Fore
SplineSet
1092 730 m 1,0,1
 1062 754 1062 754 1029.5 762 c 128,-1,2
 997 770 997 770 971 754 c 1,3,4
 923 718 923 718 863 583.5 c 128,-1,5
 803 449 803 449 803 350 c 0,6,7
 803 260 803 260 850 260 c 128,-1,8
 897 260 897 260 989 428 c 0,9,10
 1047 532 1047 532 1092 730 c 1,0,1
1143 964 m 1,11,12
 1144 967 1144 967 1145 972 c 128,-1,13
 1146 977 1146 977 1147 979 c 0,14,15
 1151 996 1151 996 1155 1005.5 c 128,-1,16
 1159 1015 1159 1015 1170 1023.5 c 128,-1,17
 1181 1032 1181 1032 1198 1032 c 2,18,-1
 1315 1034 l 1,19,20
 1384 1034 1384 1034 1370 969 c 1,21,-1
 1202 346 l 1,22,23
 1190 295 1190 295 1202 270.5 c 128,-1,24
 1214 246 1214 246 1243 246 c 0,25,26
 1268 246 1268 246 1293.5 254 c 128,-1,27
 1319 262 1319 262 1352 286 c 128,-1,28
 1385 310 1385 310 1414 348 c 128,-1,29
 1443 386 1443 386 1472 451.5 c 128,-1,30
 1501 517 1501 517 1522 602 c 1,31,32
 1546 712 1546 712 1546.5 809.5 c 128,-1,33
 1547 907 1547 907 1513 987.5 c 128,-1,34
 1479 1068 1479 1068 1420.5 1126.5 c 128,-1,35
 1362 1185 1362 1185 1268 1217 c 128,-1,36
 1174 1249 1174 1249 1053 1249 c 0,37,38
 825 1249 825 1249 651.5 1091 c 128,-1,39
 478 933 478 933 408 672 c 0,40,41
 391 606 391 606 382.5 534.5 c 128,-1,42
 374 463 374 463 378 382 c 128,-1,43
 382 301 382 301 400 225.5 c 128,-1,44
 418 150 418 150 459 79 c 128,-1,45
 500 8 500 8 560 -45 c 128,-1,46
 620 -98 620 -98 714 -132.5 c 128,-1,47
 808 -167 808 -167 926 -172 c 0,48,49
 954 -173 954 -173 974 -178.5 c 128,-1,50
 994 -184 994 -184 1007 -195 c 128,-1,51
 1020 -206 1020 -206 1015.5 -226.5 c 128,-1,52
 1011 -247 1011 -247 987 -274 c 2,53,-1
 940 -326 l 2,54,55
 917 -350 917 -350 894.5 -356 c 128,-1,56
 872 -362 872 -362 823 -362 c 0,57,58
 681 -362 681 -362 561 -316 c 128,-1,59
 441 -270 441 -270 358 -191.5 c 128,-1,60
 275 -113 275 -113 217 -7 c 128,-1,61
 159 99 159 99 134.5 219 c 128,-1,62
 110 339 110 339 114.5 467.5 c 128,-1,63
 119 596 119 596 154 719 c 1,64,65
 206 892 206 892 300 1029.5 c 128,-1,66
 394 1167 394 1167 513 1254.5 c 128,-1,67
 632 1342 632 1342 769.5 1388 c 128,-1,68
 907 1434 907 1434 1051 1434 c 0,69,70
 1218 1434 1218 1434 1353.5 1392 c 128,-1,71
 1489 1350 1489 1350 1580 1273 c 128,-1,72
 1671 1196 1671 1196 1725 1087 c 128,-1,73
 1779 978 1779 978 1784.5 844.5 c 128,-1,74
 1790 711 1790 711 1753 555 c 1,75,76
 1721 426 1721 426 1661 320.5 c 128,-1,77
 1601 215 1601 215 1529.5 149.5 c 128,-1,78
 1458 84 1458 84 1382 49 c 128,-1,79
 1306 14 1306 14 1235 14 c 0,80,81
 1147 14 1147 14 1093.5 42.5 c 128,-1,82
 1040 71 1040 71 1005 135 c 1,83,84
 971 87 971 87 917 53.5 c 128,-1,85
 863 20 863 20 801 20 c 0,86,87
 749 20 749 20 695 52 c 128,-1,88
 641 84 641 84 614 143 c 0,89,90
 549 289 549 289 581.5 459 c 128,-1,91
 614 629 614 629 689.5 771.5 c 128,-1,92
 765 914 765 914 842 973 c 1,93,94
 906 1024 906 1024 983 1024 c 0,95,96
 1043 1024 1043 1024 1143 964 c 1,11,12
EndSplineSet
EndChar

StartChar: audeva
Encoding: 2324 2324 145
Width: 1943
VWidth: 0
Flags: W
LayerCount: 2
Fore
SplineSet
307 637 m 1,0,1
 268 795 l 2,2,3
 266 806 266 806 275 826 c 128,-1,4
 284 846 284 846 293 846 c 2,5,-1
 416 846 l 2,6,7
 502 846 502 846 584 913.5 c 128,-1,8
 666 981 666 981 666 1042 c 0,9,10
 666 1055 666 1055 654.5 1066 c 128,-1,11
 643 1077 643 1077 625 1077 c 0,12,13
 602 1077 602 1077 547 1034 c 1,14,15
 529 1022 529 1022 501.5 1030 c 128,-1,16
 474 1038 474 1038 455 1065 c 2,17,-1
 381 1169 l 2,18,19
 369 1186 369 1186 364.5 1193 c 128,-1,20
 360 1200 360 1200 354.5 1214.5 c 128,-1,21
 349 1229 349 1229 354 1241.5 c 128,-1,22
 359 1254 359 1254 373 1268 c 1,23,24
 433 1311 433 1311 476.5 1322 c 128,-1,25
 520 1333 520 1333 582 1333 c 0,26,27
 722 1333 722 1333 815.5 1224 c 128,-1,28
 909 1115 909 1115 909 958 c 0,29,30
 909 871 909 871 858.5 794 c 128,-1,31
 808 717 808 717 722 665 c 1,32,33
 724 662 724 662 728.5 656 c 128,-1,34
 733 650 733 650 735 647 c 1,35,-1
 1043 647 l 1,36,-1
 1145 1057 l 1,37,-1
 997 1057 l 2,38,39
 953 1057 953 1057 942 1094 c 1,40,-1
 905 1268 l 1,41,42
 899 1309 899 1309 936 1309 c 2,43,-1
 1446 1309 l 1,44,-1
 1563 1309 l 1,45,-1
 1668 1309 l 1,46,47
 1640 1339 1640 1339 1585 1354 c 128,-1,48
 1530 1369 1530 1369 1487.5 1371.5 c 128,-1,49
 1445 1374 1445 1374 1370 1374 c 2,50,-1
 1339 1374 l 2,51,52
 1295 1374 1295 1374 1292 1407 c 1,53,-1
 1296 1509 l 1,54,55
 1294 1529 1294 1529 1299 1535.5 c 128,-1,56
 1304 1542 1304 1542 1323 1542 c 2,57,-1
 1389 1542 l 1,58,-1
 1444 1542 l 2,59,60
 1497 1542 1497 1542 1550 1529 c 1,61,62
 1517 1586 1517 1586 1479 1600 c 128,-1,63
 1441 1614 1441 1614 1343 1614 c 2,64,-1
 1313 1614 l 2,65,66
 1269 1614 1269 1614 1266 1647 c 1,67,-1
 1270 1751 l 1,68,69
 1272 1772 1272 1772 1276.5 1778 c 128,-1,70
 1281 1784 1281 1784 1300 1784 c 2,71,-1
 1362 1784 l 1,72,-1
 1417 1784 l 2,73,74
 1673 1784 1673 1784 1743 1647 c 1,75,-1
 1921 1309 l 1,76,-1
 2073 1309 l 2,77,78
 2118 1309 2118 1309 2126 1268 c 1,79,-1
 2165 1094 l 2,80,81
 2170 1074 2170 1074 2163 1065.5 c 128,-1,82
 2156 1057 2156 1057 2134 1057 c 2,83,-1
 1927 1057 l 1,84,-1
 1657 -33 l 2,85,86
 1651 -55 1651 -55 1642 -60 c 128,-1,87
 1633 -65 1633 -65 1614 -57 c 1,88,-1
 1438 35 l 1,89,90
 1405 51 1405 51 1415 94 c 2,91,-1
 1655 1057 l 1,92,-1
 1624 1057 l 1,93,-1
 1507 1057 l 1,94,-1
 1417 1057 l 1,95,-1
 1147 -33 l 2,96,97
 1141 -55 1141 -55 1132 -60 c 128,-1,98
 1123 -65 1123 -65 1104 -57 c 1,99,-1
 928 35 l 1,100,101
 895 51 895 51 905 94 c 2,102,-1
 988 428 l 1,103,-1
 786 428 l 1,104,105
 777 265 777 265 677 159 c 128,-1,106
 577 53 577 53 424 53 c 0,107,108
 346 53 346 53 277.5 86.5 c 128,-1,109
 209 120 209 120 162 175.5 c 128,-1,110
 115 231 115 231 83.5 299 c 128,-1,111
 52 367 52 367 39 440 c 0,112,113
 34 465 34 465 52 483.5 c 128,-1,114
 70 502 70 502 102 496 c 1,115,-1
 176 475 l 2,116,117
 198 469 198 469 208.5 453 c 128,-1,118
 219 437 219 437 233 399 c 0,119,120
 269 305 269 305 354 305 c 0,121,122
 429 305 429 305 479.5 371.5 c 128,-1,123
 530 438 530 438 530 520 c 0,124,125
 530 594 530 594 424 594 c 2,126,-1
 389 594 l 2,127,128
 351 594 351 594 334.5 601.5 c 128,-1,129
 318 609 318 609 307 637 c 1,0,1
EndSplineSet
EndChar

StartChar: ausign_ra_virama.alt1
Encoding: 65551 -1 146
Width: 536
VWidth: 0
Flags: W
LayerCount: 2
Fore
SplineSet
-100 1647 m 1,0,1
 -96 1751 l 1,2,3
 -94 1772 -94 1772 -89.5 1778 c 128,-1,4
 -85 1784 -85 1784 -66 1784 c 2,5,-1
 -4 1784 l 1,6,-1
 51 1784 l 2,7,8
 236 1784 236 1784 325 1710 c 1,9,10
 425 1826 425 1826 623 1831 c 2,11,-1
 791 1835 l 1,12,13
 840 1835 840 1835 840 1776 c 1,14,-1
 838 1698 l 2,15,16
 838 1670 838 1670 828.5 1654 c 128,-1,17
 819 1638 819 1638 788 1638 c 2,18,-1
 659 1636 l 1,19,20
 580 1636 580 1636 520.5 1605 c 128,-1,21
 461 1574 461 1574 461 1520 c 0,22,23
 461 1496 461 1496 462 1485 c 1,24,-1
 555 1309 l 1,25,-1
 711 1309 l 2,26,27
 756 1309 756 1309 764 1268 c 1,28,-1
 803 1094 l 2,29,30
 808 1074 808 1074 801 1065.5 c 128,-1,31
 794 1057 794 1057 772 1057 c 2,32,-1
 565 1057 l 1,33,-1
 295 -33 l 2,34,35
 289 -55 289 -55 280 -60 c 128,-1,36
 271 -65 271 -65 252 -57 c 1,37,-1
 76 35 l 1,38,39
 43 51 43 51 53 94 c 2,40,-1
 293 1057 l 1,41,-1
 145 1057 l 2,42,43
 101 1057 101 1057 90 1094 c 1,44,-1
 53 1268 l 1,45,46
 47 1309 47 1309 84 1309 c 2,47,-1
 302 1309 l 1,48,49
 274 1339 274 1339 219 1354 c 128,-1,50
 164 1369 164 1369 121.5 1371.5 c 128,-1,51
 79 1374 79 1374 4 1374 c 2,52,-1
 -27 1374 l 2,53,54
 -71 1374 -71 1374 -74 1407 c 1,55,-1
 -70 1509 l 1,56,57
 -72 1529 -72 1529 -67 1535.5 c 128,-1,58
 -62 1542 -62 1542 -43 1542 c 2,59,-1
 23 1542 l 1,60,-1
 78 1542 l 2,61,62
 131 1542 131 1542 184 1529 c 1,63,64
 151 1586 151 1586 113 1600 c 128,-1,65
 75 1614 75 1614 -23 1614 c 2,66,-1
 -53 1614 l 2,67,68
 -97 1614 -97 1614 -100 1647 c 1,0,1
EndSplineSet
Ligature2: "AboveBaseSubstitutionslookup subtable" ausigndeva radeva_viramadeva
EndChar

StartChar: ausign_ra_virama_anusvara
Encoding: 65552 -1 147
Width: 536
VWidth: 0
Flags: W
LayerCount: 2
Fore
SplineSet
567 1473 m 0,0,1
 567 1521 567 1521 602.5 1555 c 128,-1,2
 638 1589 638 1589 692 1589 c 2,3,-1
 715 1589 l 2,4,5
 755 1589 755 1589 791 1553 c 128,-1,6
 827 1517 827 1517 827 1473 c 0,7,8
 827 1423 827 1423 790.5 1389.5 c 128,-1,9
 754 1356 754 1356 700 1356 c 2,10,-1
 678 1356 l 2,11,12
 634 1356 634 1356 600.5 1391.5 c 128,-1,13
 567 1427 567 1427 567 1473 c 0,0,1
-92 1647 m 1,14,15
 -88 1751 l 1,16,17
 -86 1771 -86 1771 -81 1777.5 c 128,-1,18
 -76 1784 -76 1784 -57 1784 c 2,19,-1
 4 1784 l 1,20,-1
 59 1784 l 2,21,22
 244 1784 244 1784 333 1710 c 1,23,24
 433 1826 433 1826 631 1831 c 2,25,-1
 799 1835 l 1,26,27
 848 1835 848 1835 848 1776 c 1,28,-1
 846 1698 l 2,29,30
 846 1669 846 1669 836.5 1653.5 c 128,-1,31
 827 1638 827 1638 797 1638 c 2,32,-1
 668 1636 l 1,33,34
 588 1636 588 1636 528.5 1605 c 128,-1,35
 469 1574 469 1574 469 1520 c 0,36,37
 469 1496 469 1496 470 1485 c 1,38,-1
 563 1309 l 1,39,-1
 711 1309 l 2,40,41
 756 1309 756 1309 764 1268 c 1,42,-1
 803 1094 l 2,43,44
 808 1074 808 1074 801 1065.5 c 128,-1,45
 794 1057 794 1057 772 1057 c 2,46,-1
 565 1057 l 1,47,-1
 295 -33 l 2,48,49
 289 -55 289 -55 280 -60 c 128,-1,50
 271 -65 271 -65 252 -57 c 1,51,-1
 76 35 l 1,52,53
 43 51 43 51 53 94 c 2,54,-1
 293 1057 l 1,55,-1
 145 1057 l 2,56,57
 101 1057 101 1057 90 1094 c 1,58,-1
 53 1268 l 1,59,60
 47 1309 47 1309 84 1309 c 2,61,-1
 310 1309 l 1,62,63
 282 1339 282 1339 227 1354 c 128,-1,64
 172 1369 172 1369 129.5 1371.5 c 128,-1,65
 87 1374 87 1374 12 1374 c 2,66,-1
 -18 1374 l 2,67,68
 -63 1374 -63 1374 -66 1407 c 1,69,-1
 -61 1509 l 1,70,71
 -63 1529 -63 1529 -58.5 1535.5 c 128,-1,72
 -54 1542 -54 1542 -35 1542 c 2,73,-1
 31 1542 l 1,74,-1
 86 1542 l 2,75,76
 139 1542 139 1542 192 1529 c 1,77,78
 159 1586 159 1586 121 1600 c 128,-1,79
 83 1614 83 1614 -14 1614 c 2,80,-1
 -45 1614 l 2,81,82
 -89 1614 -89 1614 -92 1647 c 1,14,15
EndSplineSet
Ligature2: "AboveBaseSubstitutionslookup subtable" ausigndeva radeva_viramadeva anusvaradeva
EndChar

StartChar: avagrahacombiningsigndeva
Encoding: 43249 43249 150
Width: 0
VWidth: 0
Flags: W
AnchorPoint: "DVAnchor3" 27 1296 mark 0
LayerCount: 2
Fore
SplineSet
88 2120 m 1,0,-1
 88 1976 l 1,1,-1
 -98 1976 l 2,2,3
 -173 1976 -173 1976 -207.5 1959 c 128,-1,4
 -242 1942 -242 1942 -242 1903 c 0,5,6
 -242 1827 -242 1827 -115 1827 c 2,7,-1
 -74 1827 l 2,8,9
 -5 1827 -5 1827 47.5 1810.5 c 128,-1,10
 100 1794 100 1794 128.5 1769.5 c 128,-1,11
 157 1745 157 1745 175 1712.5 c 128,-1,12
 193 1680 193 1680 198 1653.5 c 128,-1,13
 203 1627 203 1627 203 1599 c 0,14,15
 203 1539 203 1539 178 1492 c 128,-1,16
 153 1445 153 1445 112.5 1417.5 c 128,-1,17
 72 1390 72 1390 25 1376 c 128,-1,18
 -22 1362 -22 1362 -72 1362 c 0,19,20
 -189 1362 -189 1362 -288 1415.5 c 128,-1,21
 -387 1469 -387 1469 -451 1563 c 1,22,-1
 -340 1649 l 1,23,24
 -239 1505 -239 1505 -72 1505 c 0,25,26
 -21 1505 -21 1505 15 1528.5 c 128,-1,27
 51 1552 51 1552 51 1599 c 0,28,29
 51 1683 51 1683 -74 1683 c 2,30,-1
 -115 1683 l 2,31,32
 -252 1683 -252 1683 -322.5 1748 c 128,-1,33
 -393 1813 -393 1813 -393 1911 c 0,34,35
 -393 2120 -393 2120 -86 2120 c 2,36,-1
 88 2120 l 1,0,-1
EndSplineSet
EndChar

StartChar: avagrahadeva
Encoding: 2365 2365 151
Width: 964
VWidth: 0
Flags: W
LayerCount: 2
Fore
SplineSet
33 244 m 2,0,1
 139 285 l 1,2,3
 179 305 179 305 197 279 c 1,4,5
 212 262 212 262 258 244.5 c 128,-1,6
 304 227 304 227 367 227 c 0,7,8
 521 227 521 227 609.5 287 c 128,-1,9
 698 347 698 347 698 459 c 0,10,11
 698 515 698 515 659 532 c 2,12,-1
 412 645 l 1,13,14
 329 693 329 693 275 773.5 c 128,-1,15
 221 854 221 854 221 954 c 0,16,17
 221 1116 221 1116 339 1212.5 c 128,-1,18
 457 1309 457 1309 643 1309 c 2,19,-1
 934 1309 l 2,20,21
 972 1309 972 1309 981 1286 c 2,22,-1
 1055 1096 l 2,23,24
 1058 1086 1058 1086 1046 1071.5 c 128,-1,25
 1034 1057 1034 1057 1020 1057 c 2,26,-1
 739 1057 l 2,27,28
 677 1057 677 1057 628 1044 c 128,-1,29
 579 1031 579 1031 551.5 1012.5 c 128,-1,30
 524 994 524 994 506.5 970 c 128,-1,31
 489 946 489 946 483 926.5 c 128,-1,32
 477 907 477 907 477 891 c 0,33,34
 477 860 477 860 490.5 843 c 128,-1,35
 504 826 504 826 518 821 c 2,36,-1
 657 762 l 1,37,38
 776 713 776 713 861 607.5 c 128,-1,39
 946 502 946 502 946 367 c 0,40,41
 946 193 946 193 812 84 c 128,-1,42
 678 -25 678 -25 467 -25 c 0,43,44
 328 -25 328 -25 201.5 40 c 128,-1,45
 75 105 75 105 10 199 c 1,46,47
 1 217 1 217 8.5 227.5 c 128,-1,48
 16 238 16 238 33 244 c 2,0,1
EndSplineSet
EndChar

StartChar: awdeva
Encoding: 2421 2421 152
Width: 1953
VWidth: 0
Flags: W
LayerCount: 2
Fore
SplineSet
1239 1647 m 1,0,1
 1243 1751 l 1,2,3
 1245 1771 1245 1771 1250 1777.5 c 128,-1,4
 1255 1784 1255 1784 1274 1784 c 2,5,-1
 1335 1784 l 1,6,-1
 1391 1784 l 2,7,8
 1646 1784 1646 1784 1716 1647 c 1,9,-1
 1894 1309 l 1,10,-1
 2083 1309 l 2,11,12
 2128 1309 2128 1309 2136 1268 c 1,13,-1
 2175 1094 l 2,14,15
 2180 1074 2180 1074 2173 1065.5 c 128,-1,16
 2166 1057 2166 1057 2144 1057 c 2,17,-1
 1938 1057 l 1,18,-1
 1667 -33 l 2,19,20
 1661 -55 1661 -55 1652 -60 c 128,-1,21
 1643 -65 1643 -65 1624 -57 c 1,22,-1
 1448 35 l 1,23,24
 1415 51 1415 51 1425 94 c 2,25,-1
 1665 1057 l 1,26,-1
 1632 1057 l 1,27,-1
 1518 1057 l 1,28,-1
 1426 1057 l 1,29,-1
 1155 -33 l 2,30,31
 1149 -55 1149 -55 1140 -60 c 128,-1,32
 1131 -65 1131 -65 1112 -57 c 1,33,-1
 936 35 l 1,34,35
 903 51 903 51 913 94 c 2,36,-1
 996 428 l 1,37,-1
 786 428 l 1,38,39
 777 265 777 265 677 159 c 128,-1,40
 577 53 577 53 424 53 c 0,41,42
 346 53 346 53 277.5 86.5 c 128,-1,43
 209 120 209 120 162 175.5 c 128,-1,44
 115 231 115 231 83.5 299 c 128,-1,45
 52 367 52 367 39 440 c 0,46,47
 34 465 34 465 52 483.5 c 128,-1,48
 70 502 70 502 102 496 c 1,49,-1
 176 475 l 2,50,51
 198 469 198 469 208.5 453 c 128,-1,52
 219 437 219 437 233 399 c 0,53,54
 269 305 269 305 354 305 c 0,55,56
 429 305 429 305 479.5 371.5 c 128,-1,57
 530 438 530 438 530 520 c 0,58,59
 530 594 530 594 424 594 c 2,60,-1
 389 594 l 2,61,62
 351 594 351 594 334.5 601.5 c 128,-1,63
 318 609 318 609 307 637 c 1,64,-1
 268 795 l 2,65,66
 266 806 266 806 275 826 c 128,-1,67
 284 846 284 846 293 846 c 2,68,-1
 416 846 l 2,69,70
 502 846 502 846 584 913.5 c 128,-1,71
 666 981 666 981 666 1042 c 0,72,73
 666 1055 666 1055 654.5 1066 c 128,-1,74
 643 1077 643 1077 625 1077 c 0,75,76
 602 1077 602 1077 547 1034 c 1,77,78
 529 1022 529 1022 501.5 1030 c 128,-1,79
 474 1038 474 1038 455 1065 c 2,80,-1
 381 1169 l 2,81,82
 369 1186 369 1186 364.5 1193 c 128,-1,83
 360 1200 360 1200 354.5 1214.5 c 128,-1,84
 349 1229 349 1229 354 1241.5 c 128,-1,85
 359 1254 359 1254 373 1268 c 1,86,87
 433 1311 433 1311 476.5 1322 c 128,-1,88
 520 1333 520 1333 582 1333 c 0,89,90
 722 1333 722 1333 815.5 1224 c 128,-1,91
 909 1115 909 1115 909 958 c 0,92,93
 909 871 909 871 858.5 794 c 128,-1,94
 808 717 808 717 722 665 c 1,95,96
 724 662 724 662 728.5 656 c 128,-1,97
 733 650 733 650 735 647 c 1,98,-1
 1051 647 l 1,99,-1
 1153 1057 l 1,100,-1
 1006 1057 l 2,101,102
 961 1057 961 1057 950 1094 c 1,103,-1
 913 1268 l 1,104,105
 907 1309 907 1309 944 1309 c 2,106,-1
 1456 1309 l 1,107,-1
 1571 1309 l 1,108,-1
 1641 1309 l 1,109,110
 1613 1339 1613 1339 1558 1354 c 128,-1,111
 1503 1369 1503 1369 1460.5 1371.5 c 128,-1,112
 1418 1374 1418 1374 1343 1374 c 2,113,-1
 1313 1374 l 2,114,115
 1269 1374 1269 1374 1266 1407 c 1,116,-1
 1270 1509 l 1,117,118
 1268 1529 1268 1529 1272.5 1535.5 c 128,-1,119
 1277 1542 1277 1542 1296 1542 c 2,120,-1
 1362 1542 l 1,121,-1
 1417 1542 l 2,122,123
 1470 1542 1470 1542 1523 1529 c 1,124,125
 1490 1586 1490 1586 1452 1600 c 128,-1,126
 1414 1614 1414 1614 1317 1614 c 2,127,-1
 1286 1614 l 2,128,129
 1242 1614 1242 1614 1239 1647 c 1,0,1
EndSplineSet
EndChar

StartChar: b
Encoding: 98 98 154
Width: 876
VWidth: 0
Flags: W
LayerCount: 2
Fore
SplineSet
618 1507 m 2,0,1
 467 913 l 1,2,-1
 512 967 l 2,3,4
 575 1042 575 1042 610.5 1071 c 128,-1,5
 646 1100 646 1100 682 1100 c 2,6,-1
 696 1100 l 2,7,8
 731 1100 731 1100 799 1032 c 0,9,10
 888 943 888 943 877 834 c 0,11,12
 855 612 855 612 761 361.5 c 128,-1,13
 667 111 667 111 580 45 c 0,14,15
 511 -8 511 -8 416 -8 c 0,16,17
 326 -8 326 -8 247 49 c 1,18,-1
 246 45 l 2,19,20
 234 0 234 0 184 0 c 2,21,-1
 27 0 l 2,22,23
 -6 0 -6 0 -19.5 19 c 128,-1,24
 -33 38 -33 38 -27 66 c 1,25,-1
 342 1509 l 2,26,27
 354 1554 354 1554 403 1554 c 2,28,-1
 573 1554 l 2,29,30
 629 1554 629 1554 618 1507 c 2,0,1
290 219 m 1,31,32
 321 209 321 209 350.5 207 c 128,-1,33
 380 205 380 205 399 215 c 1,34,35
 441 247 441 247 507 424 c 128,-1,36
 573 601 573 601 596 727 c 0,37,38
 603 765 603 765 601.5 776.5 c 128,-1,39
 600 788 600 788 586 788 c 0,40,41
 570 788 570 788 538.5 751.5 c 128,-1,42
 507 715 507 715 467 647 c 0,43,44
 368 476 368 476 301 250 c 1,45,-1
 290 219 l 1,31,32
EndSplineSet
EndChar

StartChar: ba_virama_ra_viramadeva
Encoding: 65533 65533 155
Width: 444
VWidth: 0
Flags: W
LayerCount: 2
Fore
SplineSet
231 -39 m 2,0,1
 193 16 l 2,2,3
 169 50 169 50 203 72 c 1,4,-1
 362 169 l 1,5,6
 298 180 298 180 227 219 c 1,7,8
 140 269 140 269 90.5 366 c 128,-1,9
 41 463 41 463 41 569 c 0,10,11
 41 657 41 657 78.5 737 c 128,-1,12
 116 817 116 817 178 874 c 128,-1,13
 240 931 240 931 321.5 965 c 128,-1,14
 403 999 403 999 489 999 c 0,15,16
 541 999 541 999 596 985 c 0,17,18
 692 959 692 959 769 883 c 128,-1,19
 846 807 846 807 868 723 c 1,20,21
 873 712 873 712 865 704.5 c 128,-1,22
 857 697 857 697 838 700 c 1,23,-1
 690 709 l 2,24,25
 682 709 682 709 674.5 709 c 128,-1,26
 667 709 667 709 663.5 709.5 c 128,-1,27
 660 710 660 710 656.5 710 c 128,-1,28
 653 710 653 710 652 711.5 c 128,-1,29
 651 713 651 713 650.5 715 c 128,-1,30
 650 717 650 717 649 721 c 1,31,-1
 649 733 l 1,32,33
 635 745 635 745 590 745 c 0,34,35
 542 745 542 745 502 732 c 1,36,-1
 559 509 l 1,37,38
 568 519 568 519 586 541 c 1,39,40
 610 575 610 575 637 551 c 2,41,-1
 786 416 l 2,42,43
 827 379 827 379 819 365 c 1,44,45
 743 257 743 257 638 206 c 1,46,-1
 289 -47 l 2,47,48
 254 -72 254 -72 231 -39 c 2,0,1
1286 1278 m 1,49,-1
 1325 1092 l 1,50,51
 1331 1057 1331 1057 1298 1057 c 2,52,-1
 -4 1057 l 2,53,54
 -40 1057 -40 1057 -60.5 1074 c 128,-1,55
 -81 1091 -81 1091 -90 1130 c 1,56,-1
 -119 1272 l 1,57,58
 -125 1292 -125 1292 -118.5 1300.5 c 128,-1,59
 -112 1309 -112 1309 -90 1309 c 2,60,-1
 1241 1309 l 2,61,62
 1278 1309 1278 1309 1286 1278 c 1,49,-1
393 673 m 1,63,64
 342 631 342 631 312.5 571.5 c 128,-1,65
 283 512 283 512 283 446 c 2,66,-1
 283 422 l 1,67,68
 315 414 315 414 346 414 c 0,69,70
 409 414 409 414 459 436 c 1,71,-1
 393 673 l 1,63,64
EndSplineSet
Ligature2: "VattuVariantslookup30 subtable" badeva_viramadeva viramadeva_radeva
Ligature2: "VattuVariantslookup30 subtable" badeva viramadeva_radeva viramadeva
Ligature2: "HalfFormslookup10 subtable" badeva_viramadeva_radeva viramadeva
EndChar

StartChar: backslash
Encoding: 92 92 156
Width: 706
VWidth: 0
Flags: W
LayerCount: 2
Fore
SplineSet
279 63 m 2,0,1
 156 1477 l 2,2,3
 149 1556 149 1556 213 1556 c 2,4,-1
 369 1556 l 2,5,6
 426 1556 426 1556 430 1493 c 1,7,-1
 551 61 l 2,8,9
 557 0 557 0 496 0 c 2,10,-1
 334 0 l 2,11,12
 285 0 285 0 279 63 c 2,0,1
EndSplineSet
EndChar

StartChar: badeva
Encoding: 2348 2348 157
Width: 1019
VWidth: 0
Flags: W
AnchorPoint: "DVAnchor3" 893 1296 basechar 0
LayerCount: 2
Fore
SplineSet
1278 1278 m 1,0,1
 1315 1092 l 1,2,3
 1324 1057 1324 1057 1288 1057 c 2,4,-1
 1122 1057 l 1,5,-1
 1005 1057 l 1,6,-1
 733 -33 l 2,7,8
 727 -55 727 -55 718 -60 c 128,-1,9
 709 -65 709 -65 690 -57 c 1,10,-1
 514 35 l 2,11,12
 482 51 482 51 492 94 c 2,13,-1
 519 203 l 1,14,15
 450 162 450 162 391 162 c 0,16,17
 304 162 304 162 201 219 c 1,18,19
 118 267 118 267 74.5 359 c 128,-1,20
 31 451 31 451 31 547 c 0,21,22
 31 672 31 672 93 770.5 c 128,-1,23
 155 869 155 869 257.5 921 c 128,-1,24
 360 973 360 973 481 973 c 0,25,26
 597 973 597 973 696 912 c 1,27,-1
 732 1057 l 1,28,-1
 700 1057 l 1,29,-1
 -4 1057 l 2,30,31
 -40 1057 -40 1057 -60.5 1074 c 128,-1,32
 -81 1091 -81 1091 -90 1130 c 1,33,-1
 -119 1274 l 1,34,35
 -125 1293 -125 1293 -118.5 1301 c 128,-1,36
 -112 1309 -112 1309 -90 1309 c 2,37,-1
 684 1309 l 1,38,-1
 1067 1309 l 1,39,-1
 1233 1309 l 2,40,41
 1270 1309 1270 1309 1278 1278 c 1,0,1
611 573 m 1,42,-1
 641 692 l 1,43,44
 615 721 615 721 563 721 c 0,45,46
 510 721 510 721 459 701 c 1,47,-1
 568 522 l 1,48,49
 594 550 594 550 610 573 c 1,50,-1
 611 573 l 1,42,-1
349 623 m 1,51,52
 303 571 303 571 287 504 c 1,53,54
 279 476 279 476 279 424 c 1,55,56
 299 414 299 414 342 414 c 0,57,58
 398 414 398 414 459 443 c 1,59,-1
 349 623 l 1,51,52
EndSplineSet
EndChar

StartChar: badeva_viramadeva
Encoding: 65554 -1 158
Width: 870
VWidth: 0
Flags: W
LayerCount: 2
Fore
SplineSet
838 700 m 1,0,1
 690 709 l 2,2,3
 682 709 682 709 674.5 709 c 128,-1,4
 667 709 667 709 663.5 709.5 c 128,-1,5
 660 710 660 710 656.5 710 c 128,-1,6
 653 710 653 710 652 711.5 c 128,-1,7
 651 713 651 713 650.5 715 c 128,-1,8
 650 717 650 717 649 721 c 1,9,-1
 649 733 l 1,10,11
 635 745 635 745 590 745 c 0,12,13
 542 745 542 745 502 732 c 1,14,-1
 559 509 l 1,15,16
 568 519 568 519 586 541 c 1,17,18
 610 575 610 575 637 551 c 2,19,-1
 786 416 l 2,20,21
 827 379 827 379 819 365 c 1,22,23
 756 274 756 274 660.5 218 c 128,-1,24
 565 162 565 162 444 162 c 0,25,26
 330 162 330 162 227 219 c 1,27,28
 140 269 140 269 90.5 366 c 128,-1,29
 41 463 41 463 41 569 c 0,30,31
 41 657 41 657 78.5 737 c 128,-1,32
 116 817 116 817 178 874 c 128,-1,33
 240 931 240 931 321.5 965 c 128,-1,34
 403 999 403 999 489 999 c 0,35,36
 541 999 541 999 596 985 c 0,37,38
 692 959 692 959 769 883 c 128,-1,39
 846 807 846 807 868 723 c 1,40,41
 873 712 873 712 865 704.5 c 128,-1,42
 857 697 857 697 838 700 c 1,0,1
1286 1278 m 1,43,-1
 1325 1092 l 1,44,45
 1331 1057 1331 1057 1298 1057 c 2,46,-1
 -4 1057 l 2,47,48
 -40 1057 -40 1057 -60.5 1074 c 128,-1,49
 -81 1091 -81 1091 -90 1130 c 1,50,-1
 -119 1272 l 1,51,52
 -125 1292 -125 1292 -118.5 1300.5 c 128,-1,53
 -112 1309 -112 1309 -90 1309 c 2,54,-1
 1241 1309 l 2,55,56
 1278 1309 1278 1309 1286 1278 c 1,43,-1
393 673 m 1,57,58
 342 631 342 631 312.5 571.5 c 128,-1,59
 283 512 283 512 283 446 c 2,60,-1
 283 422 l 1,61,62
 315 414 315 414 346 414 c 0,63,64
 409 414 409 414 459 436 c 1,65,-1
 393 673 l 1,57,58
EndSplineSet
Ligature2: "HalfFormslookup10 subtable" badeva viramadeva
EndChar

StartChar: badeva_viramadeva_radeva
Encoding: 65555 -1 159
Width: 1019
VWidth: 0
Flags: W
LayerCount: 2
Fore
SplineSet
283 8 m 2,0,1
 244 63 l 2,2,3
 220 97 220 97 254 119 c 1,4,-1
 335 168 l 1,5,6
 271 181 271 181 201 219 c 1,7,8
 118 267 118 267 74.5 359 c 128,-1,9
 31 451 31 451 31 547 c 0,10,11
 31 672 31 672 93 770.5 c 128,-1,12
 155 869 155 869 257.5 921 c 128,-1,13
 360 973 360 973 481 973 c 0,14,15
 597 973 597 973 696 912 c 1,16,-1
 732 1057 l 1,17,-1
 700 1057 l 1,18,-1
 -4 1057 l 2,19,20
 -40 1057 -40 1057 -60.5 1074 c 128,-1,21
 -81 1091 -81 1091 -90 1130 c 1,22,-1
 -119 1274 l 1,23,24
 -125 1293 -125 1293 -118.5 1301 c 128,-1,25
 -112 1309 -112 1309 -90 1309 c 2,26,-1
 684 1309 l 1,27,-1
 1067 1309 l 1,28,-1
 1233 1309 l 2,29,30
 1270 1309 1270 1309 1278 1278 c 1,31,-1
 1315 1092 l 1,32,33
 1324 1057 1324 1057 1288 1057 c 2,34,-1
 1122 1057 l 1,35,-1
 1005 1057 l 1,36,-1
 733 -33 l 2,37,38
 727 -55 727 -55 718 -60 c 128,-1,39
 709 -65 709 -65 690 -57 c 1,40,-1
 514 35 l 2,41,42
 482 51 482 51 492 94 c 2,43,-1
 496 113 l 1,44,-1
 340 0 l 1,45,46
 305 -24 305 -24 283 8 c 2,0,1
611 573 m 1,47,-1
 641 692 l 1,48,49
 615 721 615 721 563 721 c 0,50,51
 474 721 474 721 399 668 c 1,52,-1
 496 464 l 1,53,54
 566 508 566 508 610 573 c 1,55,-1
 611 573 l 1,47,-1
314 574 m 1,56,57
 296 543 296 543 287 504 c 1,58,59
 279 476 279 476 279 424 c 1,60,61
 299 414 299 414 342 414 c 0,62,63
 361 414 361 414 388 419 c 1,64,-1
 314 574 l 1,56,57
EndSplineSet
Ligature2: "VattuVariantslookup30 subtable" badeva viramadeva_radeva
EndChar

StartChar: bar
Encoding: 124 124 160
Width: 489
VWidth: 0
Flags: W
LayerCount: 2
Fore
SplineSet
584 1507 m 1,0,1
 104 -365 l 2,2,3
 92 -410 92 -410 43 -410 c 2,4,-1
 -98 -410 l 2,5,6
 -131 -410 -131 -410 -144.5 -391 c 128,-1,7
 -158 -372 -158 -372 -152 -344 c 1,8,-1
 324 1509 l 2,9,10
 336 1554 336 1554 385 1554 c 2,11,-1
 539 1554 l 2,12,13
 595 1554 595 1554 584 1507 c 1,0,1
EndSplineSet
EndChar

StartChar: bbadeva
Encoding: 2431 2431 161
Width: 964
VWidth: 0
Flags: W
AnchorPoint: "DVAnchor3" 1059 1296 basechar 0
LayerCount: 2
Fore
SplineSet
1282 33 m 1,0,1
 1321 -141 l 2,2,3
 1326 -161 1326 -161 1319 -169.5 c 128,-1,4
 1312 -178 1312 -178 1290 -178 c 2,5,-1
 76 -178 l 2,6,7
 31 -178 31 -178 20 -141 c 1,8,-1
 -16 33 l 1,9,10
 -22 74 -22 74 14 74 c 2,11,-1
 653 74 l 1,12,13
 653 87 653 87 655 94 c 2,14,-1
 683 203 l 1,15,16
 614 162 614 162 555 162 c 0,17,18
 468 162 468 162 365 219 c 1,19,20
 282 267 282 267 238.5 359 c 128,-1,21
 195 451 195 451 195 547 c 0,22,23
 195 672 195 672 257 770.5 c 128,-1,24
 319 869 319 869 421.5 921 c 128,-1,25
 524 973 524 973 645 973 c 0,26,27
 761 973 761 973 860 912 c 1,28,-1
 896 1057 l 1,29,-1
 864 1057 l 1,30,-1
 160 1057 l 2,31,32
 124 1057 124 1057 103.5 1074 c 128,-1,33
 83 1091 83 1091 74 1130 c 1,34,-1
 45 1274 l 1,35,36
 39 1293 39 1293 45.5 1301 c 128,-1,37
 52 1309 52 1309 74 1309 c 2,38,-1
 848 1309 l 1,39,-1
 1231 1309 l 1,40,-1
 1397 1309 l 2,41,42
 1434 1309 1434 1309 1442 1278 c 1,43,-1
 1479 1092 l 1,44,45
 1488 1057 1488 1057 1452 1057 c 2,46,-1
 1286 1057 l 1,47,-1
 1169 1057 l 1,48,-1
 924 74 l 1,49,-1
 1229 74 l 2,50,51
 1274 74 1274 74 1282 33 c 1,0,1
775 573 m 1,52,-1
 804 692 l 1,53,54
 778 721 778 721 727 721 c 0,55,56
 651 721 651 721 583 681 c 1,57,-1
 725 514 l 1,58,59
 753 542 753 542 774 573 c 1,60,-1
 775 573 l 1,52,-1
496 602 m 1,61,62
 464 557 464 557 451 504 c 1,63,64
 442 472 442 472 442 424 c 1,65,66
 462 414 462 414 506 414 c 0,67,68
 565 414 565 414 629 446 c 1,69,-1
 496 602 l 1,61,62
EndSplineSet
EndChar

StartChar: bhadeva_viramadeva
Encoding: 65556 -1 163
Width: 1060
VWidth: 0
Flags: W
LayerCount: 2
Fore
SplineSet
342 1092 m 1,0,1
 238 1202 l 1,2,3
 205 1240 205 1240 242 1272 c 1,4,5
 275 1299 275 1299 335 1317 c 128,-1,6
 395 1335 395 1335 453 1335 c 0,7,8
 488 1335 488 1335 523 1326.5 c 128,-1,9
 558 1318 558 1318 596 1298 c 128,-1,10
 634 1278 634 1278 661.5 1245 c 128,-1,11
 689 1212 689 1212 709 1163 c 128,-1,12
 729 1114 729 1114 728 1048 c 128,-1,13
 727 982 727 982 707 895 c 1,14,-1
 655 690 l 1,15,-1
 1030 690 l 2,16,17
 1069 690 1069 690 1081 651 c 2,18,-1
 1135 479 l 1,19,20
 1146 438 1146 438 1096 438 c 2,21,-1
 577 438 l 1,22,-1
 539 287 l 1,23,24
 534 262 534 262 512.5 232.5 c 128,-1,25
 491 203 491 203 467 195 c 0,26,27
 455 191 455 191 400.5 178 c 128,-1,28
 346 165 346 165 334 162 c 0,29,30
 307 153 307 153 274 161 c 128,-1,31
 241 169 241 169 233 195 c 2,32,-1
 135 532 l 1,33,34
 116 593 116 593 165 641.5 c 128,-1,35
 214 690 214 690 322 690 c 2,36,-1
 380 690 l 1,37,-1
 473 1069 l 1,38,39
 484 1106 484 1106 455 1106 c 0,40,41
 441 1106 441 1106 411.5 1091 c 128,-1,42
 382 1076 382 1076 379 1075 c 0,43,44
 360 1071 360 1071 342 1092 c 1,0,1
EndSplineSet
Ligature2: "HalfFormslookup10 subtable" bhadeva viramadeva
EndChar

StartChar: braceleft
Encoding: 123 123 165
Width: 659
VWidth: 0
Flags: W
LayerCount: 2
Fore
SplineSet
424 -332 m 1,0,-1
 190 -336 l 2,1,2
 98 -337 98 -337 27.5 -273.5 c 128,-1,3
 -43 -210 -43 -210 -55 -115 c 1,4,5
 -69 -50 -69 -50 -37 42.5 c 128,-1,6
 -5 135 -5 135 41 217.5 c 128,-1,7
 87 300 87 300 125.5 378.5 c 128,-1,8
 164 457 164 457 161.5 516 c 128,-1,9
 159 575 159 575 96 600 c 2,10,-1
 49 618 l 2,11,12
 -0 637 -0 637 14 698 c 2,13,-1
 51 852 l 2,14,15
 62 898 62 898 125 913 c 1,16,-1
 207 934 l 2,17,18
 228 939 228 939 245 949 c 128,-1,19
 262 959 262 959 274 968.5 c 128,-1,20
 286 978 286 978 294.5 995 c 128,-1,21
 303 1012 303 1012 308.5 1024.5 c 128,-1,22
 314 1037 314 1037 316 1059.5 c 128,-1,23
 318 1082 318 1082 319.5 1095 c 128,-1,24
 321 1108 321 1108 319.5 1134.5 c 128,-1,25
 318 1161 318 1161 317 1173 c 128,-1,26
 316 1185 316 1185 313 1214 c 128,-1,27
 310 1243 310 1243 309 1253 c 0,28,29
 302 1344 302 1344 307 1422.5 c 128,-1,30
 312 1501 312 1501 338 1565.5 c 128,-1,31
 364 1630 364 1630 408.5 1676 c 128,-1,32
 453 1722 453 1722 525.5 1747.5 c 128,-1,33
 598 1773 598 1773 696 1774 c 1,34,-1
 942 1774 l 2,35,36
 1004 1774 1004 1774 989 1708 c 2,37,38
 963 1587 l 2,39,40
 959 1564 959 1564 938 1547 c 128,-1,41
 917 1530 917 1530 895 1530 c 2,42,-1
 733 1530 l 2,43,44
 625 1530 625 1530 576 1469 c 128,-1,45
 527 1408 527 1408 545 1264 c 1,46,47
 555 1174 555 1174 559 1115.5 c 128,-1,48
 563 1057 563 1057 554.5 984.5 c 128,-1,49
 546 912 546 912 520 874 c 0,50,51
 506 854 506 854 492.5 838.5 c 128,-1,52
 479 823 479 823 461 809.5 c 128,-1,53
 443 796 443 796 432.5 788 c 128,-1,54
 422 780 422 780 399 770 c 128,-1,55
 376 760 376 760 368.5 756.5 c 128,-1,56
 361 753 361 753 332 742 c 128,-1,57
 303 731 303 731 297 729 c 1,58,59
 355 682 355 682 398.5 607 c 128,-1,60
 442 532 442 532 426 467 c 1,61,62
 410 396 410 396 332.5 251.5 c 128,-1,63
 255 107 255 107 242 78 c 1,64,65
 202 -22 202 -22 216.5 -55 c 128,-1,66
 231 -88 231 -88 301 -88 c 2,67,-1
 485 -88 l 2,68,69
 547 -88 547 -88 532 -154 c 2,70,-1
 506 -274 l 2,71,72
 502 -297 502 -297 480.5 -314.5 c 128,-1,73
 459 -332 459 -332 436 -332 c 2,74,-1
 424 -332 l 1,0,-1
EndSplineSet
EndChar

StartChar: braceright
Encoding: 125 125 166
Width: 700
VWidth: 0
Flags: W
LayerCount: 2
Fore
SplineSet
276 1769 m 1,0,-1
 510 1774 l 1,1,2
 603 1774 603 1774 673.5 1710.5 c 128,-1,3
 744 1647 744 1647 756 1552 c 1,4,5
 770 1487 770 1487 738 1395 c 128,-1,6
 706 1303 706 1303 660 1220.5 c 128,-1,7
 614 1138 614 1138 575 1059 c 128,-1,8
 536 980 536 980 538.5 921.5 c 128,-1,9
 541 863 541 863 604 838 c 2,10,-1
 651 819 l 2,11,12
 700 800 700 800 686 739 c 2,13,-1
 649 586 l 2,14,15
 643 563 643 563 622.5 547 c 128,-1,16
 602 531 602 531 575 524 c 2,17,-1
 494 504 l 2,18,19
 473 499 473 499 456 489 c 128,-1,20
 439 479 439 479 427 469.5 c 128,-1,21
 415 460 415 460 406.5 442.5 c 128,-1,22
 398 425 398 425 392.5 413.5 c 128,-1,23
 387 402 387 402 384.5 378 c 128,-1,24
 382 354 382 354 381 342 c 128,-1,25
 380 330 380 330 381 302 c 128,-1,26
 382 274 382 274 383 263.5 c 128,-1,27
 384 253 384 253 387 222.5 c 128,-1,28
 390 192 390 192 391 184 c 0,29,30
 402 66 402 66 388.5 -24.5 c 128,-1,31
 375 -115 375 -115 332.5 -186.5 c 128,-1,32
 290 -258 290 -258 207.5 -296.5 c 128,-1,33
 125 -335 125 -335 4 -336 c 1,34,-1
 -242 -336 l 2,35,36
 -304 -336 -304 -336 -289 -270 c 2,37,-1
 -262 -150 l 1,38,39
 -258 -127 -258 -127 -237.5 -109.5 c 128,-1,40
 -217 -92 -217 -92 -195 -92 c 2,41,-1
 -33 -92 l 2,42,43
 75 -92 75 -92 124.5 -31 c 128,-1,44
 174 30 174 30 156 174 c 0,45,46
 148 241 148 241 144.5 284.5 c 128,-1,47
 141 328 141 328 140.5 387 c 128,-1,48
 140 446 140 446 150 490 c 128,-1,49
 160 534 160 534 180 563 c 0,50,51
 192 580 192 580 205.5 595 c 128,-1,52
 219 610 219 610 230 620.5 c 128,-1,53
 241 631 241 631 257.5 642 c 128,-1,54
 274 653 274 653 283 658.5 c 128,-1,55
 292 664 292 664 312.5 673 c 128,-1,56
 333 682 333 682 340.5 685 c 128,-1,57
 348 688 348 688 372 697 c 128,-1,58
 396 706 396 706 403 709 c 1,59,60
 345 756 345 756 301.5 831 c 128,-1,61
 258 906 258 906 274 971 c 1,62,63
 290 1042 290 1042 368 1185.5 c 128,-1,64
 446 1329 446 1329 459 1360 c 0,65,66
 499 1460 499 1460 484.5 1493 c 128,-1,67
 470 1526 470 1526 399 1526 c 2,68,-1
 215 1526 l 2,69,70
 154 1526 154 1526 168 1591 c 2,71,-1
 195 1712 l 1,72,73
 199 1735 199 1735 220 1752 c 128,-1,74
 241 1769 241 1769 264 1769 c 2,75,-1
 276 1769 l 1,0,-1
EndSplineSet
EndChar

StartChar: bracketleft
Encoding: 91 91 167
Width: 593
VWidth: 0
Flags: W
LayerCount: 2
Fore
SplineSet
574 1522 m 1,0,-1
 156 -92 l 1,1,-1
 336 -92 l 2,2,3
 398 -92 398 -92 383 -158 c 2,4,-1
 356 -279 l 1,5,6
 352 -302 352 -302 331 -319 c 128,-1,7
 310 -336 310 -336 287 -336 c 2,8,-1
 -84 -336 l 2,9,10
 -129 -336 -129 -336 -142 -313.5 c 128,-1,11
 -155 -291 -155 -291 -143 -244 c 2,12,-1
 360 1702 l 2,13,14
 377 1765 377 1765 444 1765 c 2,15,-1
 850 1765 l 2,16,17
 911 1765 911 1765 897 1700 c 2,18,-1
 870 1579 l 1,19,20
 866 1556 866 1556 845 1539 c 128,-1,21
 824 1522 824 1522 801 1522 c 2,22,-1
 574 1522 l 1,0,-1
EndSplineSet
EndChar

StartChar: bracketright
Encoding: 93 93 168
Width: 593
VWidth: 0
Flags: W
LayerCount: 2
Fore
SplineSet
63 -92 m 1,0,-1
 476 1522 l 1,1,-1
 295 1522 l 2,2,3
 234 1522 234 1522 248 1587 c 2,4,-1
 274 1708 l 2,5,6
 278 1731 278 1731 299.5 1748 c 128,-1,7
 321 1765 321 1765 344 1765 c 2,8,-1
 715 1765 l 2,9,10
 760 1765 760 1765 773 1742.5 c 128,-1,11
 786 1720 786 1720 774 1673 c 2,12,-1
 276 -272 l 2,13,14
 259 -336 259 -336 193 -336 c 2,15,-1
 -213 -336 l 2,16,17
 -275 -336 -275 -336 -260 -270 c 2,18,-1
 -233 -150 l 2,19,20
 -228 -127 -228 -127 -207.5 -109.5 c 128,-1,21
 -187 -92 -187 -92 -164 -92 c 2,22,-1
 63 -92 l 1,0,-1
EndSplineSet
EndChar

StartChar: breve
Encoding: 728 728 169
Width: 933
VWidth: 0
Flags: W
LayerCount: 2
Fore
SplineSet
469 1167 m 0,0,1
 388 1167 388 1167 311 1192.5 c 128,-1,2
 234 1218 234 1218 179 1259.5 c 128,-1,3
 124 1301 124 1301 91.5 1355.5 c 128,-1,4
 59 1410 59 1410 63 1466 c 0,5,6
 64 1485 64 1485 72 1489 c 128,-1,7
 80 1493 80 1493 104 1493 c 2,8,-1
 215 1493 l 2,9,10
 233 1493 233 1493 242.5 1489 c 128,-1,11
 252 1485 252 1485 254.5 1483 c 128,-1,12
 257 1481 257 1481 260 1467 c 128,-1,13
 263 1453 263 1453 264 1450 c 0,14,15
 285 1390 285 1390 331.5 1360.5 c 128,-1,16
 378 1331 378 1331 469 1331 c 0,17,18
 660 1331 660 1331 666 1454 c 0,19,20
 667 1469 667 1469 670 1477.5 c 128,-1,21
 673 1486 673 1486 681.5 1489 c 128,-1,22
 690 1492 690 1492 695 1492.5 c 128,-1,23
 700 1493 700 1493 715 1493 c 2,24,-1
 819 1493 l 2,25,26
 841 1493 841 1493 850.5 1484.5 c 128,-1,27
 860 1476 860 1476 860 1456 c 0,28,29
 855 1334 855 1334 743 1250.5 c 128,-1,30
 631 1167 631 1167 469 1167 c 0,0,1
EndSplineSet
EndChar

StartChar: brokenbar
Encoding: 166 166 170
Width: 540
VWidth: 0
Flags: W
LayerCount: 2
Fore
SplineSet
586 1513 m 2,0,1
 383 735 l 2,2,3
 371 690 371 690 322 690 c 2,4,-1
 168 690 l 2,5,6
 112 690 112 690 123 737 c 1,7,-1
 326 1516 l 2,8,9
 338 1561 338 1561 387 1561 c 2,10,-1
 541 1561 l 2,11,12
 598 1561 598 1561 586 1513 c 2,0,1
307 412 m 1,13,-1
 104 -367 l 2,14,15
 92 -412 92 -412 43 -412 c 2,16,-1
 -111 -412 l 2,17,18
 -167 -412 -167 -412 -156 -365 c 1,19,-1
 47 414 l 2,20,21
 59 459 59 459 109 459 c 2,22,-1
 262 459 l 2,23,24
 318 459 318 459 307 412 c 1,13,-1
EndSplineSet
EndChar

StartChar: bullet
Encoding: 8226 8226 171
Width: 1101
VWidth: 0
Flags: W
LayerCount: 2
Fore
SplineSet
344 549 m 0,0,1
 344 678 344 678 435 768 c 128,-1,2
 526 858 526 858 655 858 c 128,-1,3
 784 858 784 858 875.5 768 c 128,-1,4
 967 678 967 678 967 549 c 0,5,6
 967 419 967 419 875.5 328.5 c 128,-1,7
 784 238 784 238 655 238 c 128,-1,8
 526 238 526 238 435 328.5 c 128,-1,9
 344 419 344 419 344 549 c 0,0,1
EndSplineSet
EndChar

StartChar: c
Encoding: 99 99 172
Width: 616
VWidth: 0
Flags: W
LayerCount: 2
Fore
SplineSet
502 1114 m 0,0,1
 576 1106 576 1106 641 1073.5 c 128,-1,2
 706 1041 706 1041 731 1014 c 0,3,4
 747 996 747 996 748.5 974.5 c 128,-1,5
 750 953 750 953 739 942 c 2,6,-1
 645 842 l 2,7,8
 628 825 628 825 617 821.5 c 128,-1,9
 606 818 606 818 586 827 c 1,10,11
 491 880 491 880 467 874 c 0,12,13
 440 867 440 867 398 792.5 c 128,-1,14
 356 718 356 718 325.5 644 c 128,-1,15
 295 570 295 570 283 528 c 1,16,17
 269 485 269 485 252.5 393.5 c 128,-1,18
 236 302 236 302 236 268 c 0,19,20
 236 210 236 210 252 207 c 1,21,22
 356 294 356 294 371 309 c 0,23,24
 399 337 399 337 442 309 c 2,25,-1
 528 252 l 2,26,27
 546 241 546 241 548 218 c 128,-1,28
 550 195 550 195 541 186 c 1,29,30
 504 130 504 130 413.5 58 c 128,-1,31
 323 -14 323 -14 287 -20 c 0,32,33
 229 -30 229 -30 132.5 18.5 c 128,-1,34
 36 67 36 67 14 117 c 0,35,36
 -14 183 -14 183 -16 272.5 c 128,-1,37
 -18 362 -18 362 1 448 c 128,-1,38
 20 534 20 534 50 620.5 c 128,-1,39
 80 707 80 707 110.5 770.5 c 128,-1,40
 141 834 141 834 168 874 c 0,41,42
 342 1132 342 1132 502 1114 c 0,0,1
EndSplineSet
EndChar

StartChar: cadeva_viramadeva
Encoding: 65558 -1 175
Width: 1058
VWidth: 0
Flags: W
LayerCount: 2
Fore
SplineSet
1231 1278 m 1,0,1
 1264 1112 l 2,2,3
 1268 1089 1268 1089 1252.5 1073 c 128,-1,4
 1237 1057 1237 1057 1212 1057 c 2,5,-1
 -37 1057 l 2,6,7
 -74 1057 -74 1057 -95 1074 c 128,-1,8
 -116 1091 -116 1091 -125 1130 c 2,9,-1
 -150 1249 l 2,10,11
 -156 1278 -156 1278 -142 1293.5 c 128,-1,12
 -128 1309 -128 1309 -106 1309 c 2,13,-1
 1188 1309 l 2,14,15
 1223 1309 1223 1309 1231 1278 c 1,0,1
66 801 m 1,16,-1
 37 944 l 2,17,18
 32 964 32 964 38 971.5 c 128,-1,19
 44 979 44 979 66 979 c 2,20,-1
 801 979 l 2,21,22
 855 979 855 979 858 936 c 2,23,-1
 870 770 l 1,24,25
 870 752 870 752 857 739.5 c 128,-1,26
 844 727 844 727 823 727 c 2,27,-1
 779 727 l 1,28,29
 673 717 673 717 618 660 c 128,-1,30
 563 603 563 603 563 510 c 0,31,32
 563 485 563 485 567 469 c 0,33,34
 581 420 581 420 662 420 c 0,35,36
 740 420 740 420 814.5 487 c 128,-1,37
 889 554 889 554 920 668 c 1,38,-1
 1163 553 l 1,39,40
 1117 369 1117 369 983.5 265.5 c 128,-1,41
 850 162 850 162 686 162 c 0,42,43
 574 162 574 162 473.5 223.5 c 128,-1,44
 373 285 373 285 334 399 c 1,45,46
 303 469 303 469 303 559 c 0,47,48
 303 646 303 646 348 727 c 1,49,-1
 152 727 l 2,50,51
 116 727 116 727 95.5 744.5 c 128,-1,52
 75 762 75 762 66 801 c 1,16,-1
EndSplineSet
Ligature2: "HalfFormslookup10 subtable" cadeva viramadeva
EndChar

StartChar: cadeva_viramadeva_cadeva
Encoding: 65559 -1 176
Width: 1951
VWidth: 0
Flags: W
LayerCount: 2
Fore
SplineSet
106 801 m 1,0,1
 78 944 l 2,2,3
 73 965 73 965 79 972 c 128,-1,4
 85 979 85 979 106 979 c 2,5,-1
 760 979 l 2,6,7
 814 979 814 979 817 936 c 2,8,-1
 829 770 l 1,9,10
 829 752 829 752 816 739.5 c 128,-1,11
 803 727 803 727 782 727 c 2,12,-1
 757 727 l 1,13,14
 689 716 689 716 636.5 656.5 c 128,-1,15
 584 597 584 597 584 510 c 0,16,17
 584 485 584 485 588 469 c 0,18,19
 602 420 602 420 682 420 c 0,20,21
 752 420 752 420 821 475 c 128,-1,22
 890 530 890 530 927 626 c 1,23,24
 939 681 939 681 970 736 c 1,25,26
 940 752 940 752 928 801 c 1,27,-1
 899 944 l 2,28,29
 894 964 894 964 900 971.5 c 128,-1,30
 906 979 906 979 928 979 c 2,31,-1
 1417 979 l 2,32,33
 1472 979 1472 979 1475 936 c 2,34,-1
 1487 770 l 1,35,36
 1487 752 1487 752 1474 739.5 c 128,-1,37
 1461 727 1461 727 1440 727 c 2,38,-1
 1395 727 l 1,39,40
 1303 718 1303 718 1249 673 c 128,-1,41
 1195 628 1195 628 1183 553 c 1,42,-1
 1184 553 l 1,43,44
 1184 552 1184 552 1183.5 549 c 128,-1,45
 1183 546 1183 546 1182 545 c 0,46,47
 1180 523 1180 523 1180 510 c 0,48,49
 1180 485 1180 485 1184 469 c 0,50,51
 1198 420 1198 420 1278 420 c 0,52,53
 1353 420 1353 420 1425 482 c 128,-1,54
 1497 544 1497 544 1531 650 c 1,55,-1
 1632 1057 l 1,56,-1
 1485 1057 l 1,57,-1
 1233 1057 l 1,58,-1
 580 1057 l 1,59,-1
 66 1057 l 2,60,61
 29 1057 29 1057 7.5 1074 c 128,-1,62
 -14 1091 -14 1091 -23 1130 c 1,63,-1
 -47 1249 l 2,64,65
 -53 1278 -53 1278 -39.5 1293.5 c 128,-1,66
 -26 1309 -26 1309 -4 1309 c 2,67,-1
 510 1309 l 1,68,-1
 1208 1309 l 1,69,-1
 1423 1309 l 1,70,-1
 1804 1309 l 1,71,-1
 2050 1309 l 2,72,73
 2095 1309 2095 1309 2103 1268 c 1,74,-1
 2142 1094 l 2,75,76
 2147 1074 2147 1074 2140 1065.5 c 128,-1,77
 2133 1057 2133 1057 2111 1057 c 2,78,-1
 1905 1057 l 1,79,-1
 1780 553 l 2,80,81
 1780 552 1780 552 1779.5 552 c 128,-1,82
 1779 552 1779 552 1779 551 c 2,83,-1
 1634 -33 l 2,84,85
 1628 -55 1628 -55 1619 -60 c 128,-1,86
 1610 -65 1610 -65 1591 -57 c 1,87,-1
 1415 35 l 2,88,89
 1383 51 1383 51 1393 94 c 2,90,-1
 1413 175 l 1,91,92
 1361 162 1361 162 1303 162 c 0,93,94
 1227 162 1227 162 1151.5 192 c 128,-1,95
 1076 222 1076 222 1022 280 c 1,96,97
 887 162 887 162 707 162 c 0,98,99
 595 162 595 162 494 223.5 c 128,-1,100
 393 285 393 285 354 399 c 1,101,102
 324 466 324 466 324 559 c 0,103,104
 324 645 324 645 373 727 c 1,105,-1
 193 727 l 2,106,107
 123 727 123 727 106 801 c 1,0,1
EndSplineSet
Ligature2: "PreBaseSubstitutionslookup1 subtable" cadeva_viramadeva cadeva
Ligature2: "LocalizedMrHalfFormslookup1 subtable" cadeva viramadeva cadeva
EndChar

StartChar: candrabinduavagrahadeva
Encoding: 43255 43255 178
Width: 0
VWidth: 0
Flags: W
LayerCount: 2
Fore
SplineSet
-829 -121 m 1,0,1
 -745 6 l 1,2,3
 -711 -26 -711 -26 -647 -50 c 128,-1,4
 -583 -74 -583 -74 -520 -74 c 0,5,6
 -373 -74 -373 -74 -373 25 c 0,7,8
 -373 44 -373 44 -386.5 57 c 128,-1,9
 -400 70 -400 70 -417.5 77 c 128,-1,10
 -435 84 -435 84 -479 98 c 2,11,-1
 -582 131 l 1,12,13
 -712 171 -712 171 -774 218.5 c 128,-1,14
 -836 266 -836 266 -836 354 c 0,15,16
 -836 405 -836 405 -820 442.5 c 128,-1,17
 -804 480 -804 480 -778 501.5 c 128,-1,18
 -752 523 -752 523 -710 536 c 128,-1,19
 -668 549 -668 549 -625.5 553 c 128,-1,20
 -583 557 -583 557 -524 557 c 2,21,-1
 -303 557 l 1,22,-1
 -303 401 l 1,23,-1
 -524 401 l 2,24,25
 -576 401 -576 401 -612.5 388.5 c 128,-1,26
 -649 376 -649 376 -649 348 c 0,27,28
 -649 338 -649 338 -646.5 329 c 128,-1,29
 -644 320 -644 320 -640.5 314 c 128,-1,30
 -637 308 -637 308 -629.5 302 c 128,-1,31
 -622 296 -622 296 -617 292.5 c 128,-1,32
 -612 289 -612 289 -600.5 285 c 128,-1,33
 -589 281 -589 281 -583 279.5 c 128,-1,34
 -577 278 -577 278 -563 274 c 128,-1,35
 -549 270 -549 270 -543 268 c 2,36,-1
 -436 238 l 1,37,38
 -305 198 -305 198 -245.5 151.5 c 128,-1,39
 -186 105 -186 105 -186 25 c 0,40,41
 -186 -102 -186 -102 -280 -166.5 c 128,-1,42
 -374 -231 -374 -231 -528 -231 c 0,43,44
 -615 -231 -615 -231 -697 -199.5 c 128,-1,45
 -779 -168 -779 -168 -829 -121 c 1,0,1
-985 1149 m 2,46,-1
 -895 1104 l 2,47,48
 -864 1089 -864 1089 -868 1034 c 0,49,50
 -871 1003 -871 1003 -864 979 c 0,51,52
 -855 949 -855 949 -836 935.5 c 128,-1,53
 -817 922 -817 922 -764 922 c 0,54,55
 -690 922 -690 922 -636 951.5 c 128,-1,56
 -582 981 -582 981 -555 1021 c 128,-1,57
 -528 1061 -528 1061 -508 1118 c 1,58,59
 -502 1139 -502 1139 -480 1145 c 128,-1,60
 -458 1151 -458 1151 -440 1141 c 2,61,-1
 -326 1081 l 2,62,63
 -315 1075 -315 1075 -312.5 1066.5 c 128,-1,64
 -310 1058 -310 1058 -317 1034 c 0,65,66
 -333 980 -333 980 -371 922.5 c 128,-1,67
 -409 865 -409 865 -461.5 817 c 128,-1,68
 -514 769 -514 769 -582.5 738 c 128,-1,69
 -651 707 -651 707 -719 707 c 0,70,71
 -810 707 -810 707 -891 761 c 128,-1,72
 -972 815 -972 815 -1016 907 c 0,73,74
 -1040 957 -1040 957 -1040 1028 c 0,75,76
 -1040 1040 -1040 1040 -1036 1061.5 c 128,-1,77
 -1032 1083 -1032 1083 -1025.5 1106 c 128,-1,78
 -1019 1129 -1019 1129 -1008 1142 c 128,-1,79
 -997 1155 -997 1155 -985 1149 c 2,46,-1
-786 1081 m 0,80,81
 -786 1120 -786 1120 -752 1152 c 128,-1,82
 -718 1184 -718 1184 -676 1184 c 0,83,84
 -647 1184 -647 1184 -627.5 1163.5 c 128,-1,85
 -608 1143 -608 1143 -608 1114 c 0,86,87
 -608 1075 -608 1075 -643 1043.5 c 128,-1,88
 -678 1012 -678 1012 -719 1012 c 0,89,90
 -749 1012 -749 1012 -767.5 1031.5 c 128,-1,91
 -786 1051 -786 1051 -786 1081 c 0,80,81
EndSplineSet
EndChar

StartChar: candrabindudeva
Encoding: 2305 2305 179
Width: 0
VWidth: 0
Flags: W
AnchorPoint: "DVAnchor3" -190 1284 mark 0
LayerCount: 2
Fore
SplineSet
-412 1804 m 2,0,1
 -322 1759 l 2,2,3
 -291 1744 -291 1744 -295 1690 c 0,4,5
 -298 1658 -298 1658 -291 1634 c 0,6,7
 -282 1605 -282 1605 -262.5 1591 c 128,-1,8
 -243 1577 -243 1577 -190 1577 c 0,9,10
 -83 1577 -83 1577 -24 1630.5 c 128,-1,11
 35 1684 35 1684 66 1774 c 1,12,13
 72 1795 72 1795 93.5 1800.5 c 128,-1,14
 115 1806 115 1806 133 1796 c 2,15,-1
 248 1737 l 2,16,17
 259 1731 259 1731 261 1722.5 c 128,-1,18
 263 1714 263 1714 256 1690 c 0,19,20
 235 1616 235 1616 177.5 1542 c 128,-1,21
 120 1468 120 1468 32.5 1415 c 128,-1,22
 -55 1362 -55 1362 -145 1362 c 0,23,24
 -236 1362 -236 1362 -317 1416.5 c 128,-1,25
 -398 1471 -398 1471 -442 1563 c 0,26,27
 -467 1615 -467 1615 -467 1683 c 0,28,29
 -467 1695 -467 1695 -463 1716.5 c 128,-1,30
 -459 1738 -459 1738 -452.5 1761 c 128,-1,31
 -446 1784 -446 1784 -435 1797 c 128,-1,32
 -424 1810 -424 1810 -412 1804 c 2,0,1
-213 1737 m 0,33,34
 -213 1776 -213 1776 -178.5 1807.5 c 128,-1,35
 -144 1839 -144 1839 -102 1839 c 0,36,37
 -73 1839 -73 1839 -54 1819 c 128,-1,38
 -35 1799 -35 1799 -35 1769 c 0,39,40
 -35 1730 -35 1730 -70 1698.5 c 128,-1,41
 -105 1667 -105 1667 -145 1667 c 0,42,43
 -175 1667 -175 1667 -194 1687 c 128,-1,44
 -213 1707 -213 1707 -213 1737 c 0,33,34
EndSplineSet
EndChar

StartChar: candrabindudigitthreedeva
Encoding: 43254 43254 180
Width: 0
VWidth: 0
Flags: W
LayerCount: 2
Fore
SplineSet
-578 193 m 1,0,1
 -608 279 l 1,2,3
 -616 294 -616 294 -605.5 309 c 128,-1,4
 -595 324 -595 324 -575 324 c 2,5,-1
 -557 324 l 2,6,7
 -509 324 -509 324 -461.5 367 c 128,-1,8
 -414 410 -414 410 -414 459 c 2,9,-1
 -414 463 l 2,10,11
 -414 471 -414 471 -424 471 c 0,12,13
 -474 471 -474 471 -530 442 c 0,14,15
 -561 425 -561 425 -582 451 c 1,16,-1
 -651 543 l 1,17,18
 -660 553 -660 553 -653 569 c 128,-1,19
 -646 585 -646 585 -625 594 c 1,20,21
 -557 629 -557 629 -483 629 c 0,22,23
 -415 629 -415 629 -353.5 589.5 c 128,-1,24
 -292 550 -292 550 -270 483 c 0,25,26
 -258 446 -258 446 -258 401 c 0,27,28
 -258 338 -258 338 -292 284 c 128,-1,29
 -326 230 -326 230 -381 198 c 1,30,31
 -351 169 -351 169 -334 131 c 1,32,33
 -324 104 -324 104 -324 68 c 0,34,35
 -324 -35 -324 -35 -399 -103.5 c 128,-1,36
 -474 -172 -474 -172 -578 -172 c 0,37,38
 -604 -172 -604 -172 -624 -168 c 1,39,-1
 -573 -293 l 2,40,41
 -569 -302 -569 -302 -576.5 -308.5 c 128,-1,42
 -584 -315 -584 -315 -598 -315 c 2,43,-1
 -672 -317 l 2,44,45
 -702 -317 -702 -317 -713 -293 c 1,46,-1
 -852 57 l 2,47,48
 -860 76 -860 76 -836 76 c 2,49,-1
 -741 78 l 2,50,51
 -722 78 -722 78 -719 63 c 1,52,53
 -714 23 -714 23 -689.5 4.5 c 128,-1,54
 -665 -14 -665 -14 -639 -14 c 0,55,56
 -574 -14 -574 -14 -523.5 34 c 128,-1,57
 -473 82 -473 82 -473 152 c 1,58,59
 -476 166 -476 166 -489 166 c 2,60,-1
 -496 166 l 1,61,-1
 -537 166 l 2,62,63
 -564 166 -564 166 -578 193 c 1,0,1
-985 1149 m 2,64,-1
 -895 1104 l 2,65,66
 -864 1089 -864 1089 -868 1034 c 0,67,68
 -871 1003 -871 1003 -864 979 c 0,69,70
 -855 949 -855 949 -836 935.5 c 128,-1,71
 -817 922 -817 922 -764 922 c 0,72,73
 -690 922 -690 922 -636 951.5 c 128,-1,74
 -582 981 -582 981 -555 1021 c 128,-1,75
 -528 1061 -528 1061 -508 1118 c 1,76,77
 -502 1139 -502 1139 -480 1145 c 128,-1,78
 -458 1151 -458 1151 -440 1141 c 2,79,-1
 -326 1081 l 2,80,81
 -315 1075 -315 1075 -312.5 1066.5 c 128,-1,82
 -310 1058 -310 1058 -317 1034 c 0,83,84
 -333 980 -333 980 -371 922.5 c 128,-1,85
 -409 865 -409 865 -461.5 817 c 128,-1,86
 -514 769 -514 769 -582.5 738 c 128,-1,87
 -651 707 -651 707 -719 707 c 0,88,89
 -810 707 -810 707 -891 761 c 128,-1,90
 -972 815 -972 815 -1016 907 c 0,91,92
 -1040 957 -1040 957 -1040 1028 c 0,93,94
 -1040 1040 -1040 1040 -1036 1061.5 c 128,-1,95
 -1032 1083 -1032 1083 -1025.5 1106 c 128,-1,96
 -1019 1129 -1019 1129 -1008 1142 c 128,-1,97
 -997 1155 -997 1155 -985 1149 c 2,64,-1
-786 1081 m 0,98,99
 -786 1120 -786 1120 -752 1152 c 128,-1,100
 -718 1184 -718 1184 -676 1184 c 0,101,102
 -647 1184 -647 1184 -627.5 1163.5 c 128,-1,103
 -608 1143 -608 1143 -608 1114 c 0,104,105
 -608 1075 -608 1075 -643 1043.5 c 128,-1,106
 -678 1012 -678 1012 -719 1012 c 0,107,108
 -749 1012 -749 1012 -767.5 1031.5 c 128,-1,109
 -786 1051 -786 1051 -786 1081 c 0,98,99
EndSplineSet
EndChar

StartChar: candrabindudigittwodeva
Encoding: 43253 43253 181
Width: 0
VWidth: 0
Flags: W
LayerCount: 2
Fore
SplineSet
-645 330 m 2,0,1
 -735 422 l 1,2,3
 -762 452 -762 452 -729 485 c 0,4,5
 -663 549 -663 549 -598 585 c 128,-1,6
 -533 621 -533 621 -455 621 c 0,7,8
 -372 621 -372 621 -307 588 c 0,9,10
 -234 551 -234 551 -199 479.5 c 128,-1,11
 -164 408 -164 408 -164 330 c 128,-1,12
 -164 252 -164 252 -191 185 c 128,-1,13
 -218 118 -218 118 -261.5 74 c 128,-1,14
 -305 30 -305 30 -359.5 5 c 128,-1,15
 -414 -20 -414 -20 -469 -20 c 2,16,-1
 -524 -20 l 1,17,-1
 -412 -373 l 1,18,19
 -406 -388 -406 -388 -415 -396 c 128,-1,20
 -424 -404 -424 -404 -446 -401 c 2,21,-1
 -535 -391 l 2,22,23
 -557 -388 -557 -388 -568.5 -380.5 c 128,-1,24
 -580 -373 -580 -373 -586 -354 c 2,25,-1
 -725 86 l 1,26,27
 -728 121 -728 121 -715 146.5 c 128,-1,28
 -702 172 -702 172 -678 172 c 2,29,-1
 -573 172 l 2,30,31
 -497 172 -497 172 -426.5 234 c 128,-1,32
 -356 296 -356 296 -356 387 c 0,33,34
 -356 428 -356 428 -395 428 c 0,35,36
 -461 428 -461 428 -553 340 c 1,37,38
 -578 318 -578 318 -603 315.5 c 128,-1,39
 -628 313 -628 313 -645 330 c 2,0,1
-985 1149 m 2,40,-1
 -895 1104 l 2,41,42
 -864 1089 -864 1089 -868 1034 c 0,43,44
 -871 1003 -871 1003 -864 979 c 0,45,46
 -855 949 -855 949 -836 935.5 c 128,-1,47
 -817 922 -817 922 -764 922 c 0,48,49
 -690 922 -690 922 -636 951.5 c 128,-1,50
 -582 981 -582 981 -555 1021 c 128,-1,51
 -528 1061 -528 1061 -508 1118 c 1,52,53
 -502 1139 -502 1139 -480 1145 c 128,-1,54
 -458 1151 -458 1151 -440 1141 c 2,55,-1
 -326 1081 l 2,56,57
 -315 1075 -315 1075 -312.5 1066.5 c 128,-1,58
 -310 1058 -310 1058 -317 1034 c 0,59,60
 -333 980 -333 980 -371 922.5 c 128,-1,61
 -409 865 -409 865 -461.5 817 c 128,-1,62
 -514 769 -514 769 -582.5 738 c 128,-1,63
 -651 707 -651 707 -719 707 c 0,64,65
 -810 707 -810 707 -891 761 c 128,-1,66
 -972 815 -972 815 -1016 907 c 0,67,68
 -1040 957 -1040 957 -1040 1028 c 0,69,70
 -1040 1040 -1040 1040 -1036 1061.5 c 128,-1,71
 -1032 1083 -1032 1083 -1025.5 1106 c 128,-1,72
 -1019 1129 -1019 1129 -1008 1142 c 128,-1,73
 -997 1155 -997 1155 -985 1149 c 2,40,-1
-786 1081 m 0,74,75
 -786 1120 -786 1120 -752 1152 c 128,-1,76
 -718 1184 -718 1184 -676 1184 c 0,77,78
 -647 1184 -647 1184 -627.5 1163.5 c 128,-1,79
 -608 1143 -608 1143 -608 1114 c 0,80,81
 -608 1075 -608 1075 -643 1043.5 c 128,-1,82
 -678 1012 -678 1012 -719 1012 c 0,83,84
 -749 1012 -749 1012 -767.5 1031.5 c 128,-1,85
 -786 1051 -786 1051 -786 1081 c 0,74,75
EndSplineSet
EndChar

StartChar: caretdeva
Encoding: 43258 43258 184
Width: 1259
VWidth: 0
Flags: W
LayerCount: 2
Fore
SplineSet
272 1890 m 1,0,1
 358 1944 l 1,2,3
 365 1951 365 1951 373 1949.5 c 128,-1,4
 381 1948 381 1948 386.5 1945.5 c 128,-1,5
 392 1943 392 1943 397 1936.5 c 128,-1,6
 402 1930 402 1930 403.5 1927.5 c 128,-1,7
 405 1925 405 1925 406 1923 c 2,8,-1
 631 1604 l 1,9,-1
 831 1933 l 2,10,11
 849 1962 849 1962 864 1954 c 1,12,-1
 989 1876 l 1,13,-1
 997 1867.5 l 2,14,15
 1005 1859 1005 1859 1006 1846 c 128,-1,16
 1007 1833 1007 1833 993 1817 c 1,17,-1
 817 1544 l 1,18,-1
 810 1535 l 2,19,20
 803 1526 803 1526 786 1516.5 c 128,-1,21
 769 1507 769 1507 750 1507 c 2,22,-1
 502 1507 l 2,23,24
 469 1507 469 1507 446 1540 c 1,25,-1
 248 1843 l 1,26,-1
 245.5 1850.5 l 2,27,28
 243 1858 243 1858 249 1870 c 128,-1,29
 255 1882 255 1882 272 1890 c 1,0,1
EndSplineSet
EndChar

StartChar: caron
Encoding: 711 711 185
Width: 864
VWidth: 0
Flags: W
LayerCount: 2
Fore
SplineSet
415 1337 m 1,0,-1
 539 1460 l 2,1,2
 554 1475 554 1475 564 1479 c 128,-1,3
 574 1483 574 1483 596 1483 c 2,4,-1
 713 1483 l 2,5,6
 736 1483 736 1483 740 1468 c 128,-1,7
 744 1453 744 1453 725 1436 c 2,8,-1
 453 1186 l 1,9,10
 416 1155 416 1155 395 1157 c 2,11,-1
 358 1159 l 1,12,13
 328 1162 328 1162 309 1196 c 2,14,-1
 170 1448 l 1,15,16
 161 1462 161 1462 166.5 1472.5 c 128,-1,17
 172 1483 172 1483 190 1483 c 2,18,-1
 317 1483 l 2,19,20
 338 1483 338 1483 346 1478.5 c 128,-1,21
 354 1474 354 1474 360 1460 c 2,22,-1
 415 1337 l 1,0,-1
EndSplineSet
EndChar

StartChar: cedilla
Encoding: 184 184 188
Width: 700
VWidth: 0
Flags: W
LayerCount: 2
Fore
SplineSet
403 -68 m 1,0,1
 532 -109 l 1,2,3
 568 -118 568 -118 555 -170 c 1,4,5
 530 -281 530 -281 425.5 -350.5 c 128,-1,6
 321 -420 321 -420 184 -414 c 0,7,8
 172 -414 172 -414 161 -407 c 128,-1,9
 150 -400 150 -400 147 -389 c 2,10,-1
 123 -313 l 2,11,12
 108 -264 108 -264 150 -264 c 0,13,14
 244 -264 244 -264 298 -214.5 c 128,-1,15
 352 -165 352 -165 352 -100 c 0,16,17
 352 -74 352 -74 371.5 -67 c 128,-1,18
 391 -60 391 -60 403 -68 c 1,0,1
EndSplineSet
EndChar

StartChar: cent
Encoding: 162 162 189
Width: 815
VWidth: 0
Flags: W
LayerCount: 2
Fore
SplineSet
178 -195 m 2,0,1
 146 -195 146 -195 133.5 -177 c 128,-1,2
 121 -159 121 -159 127 -131 c 1,3,-1
 163 0 l 1,4,5
 105 26 105 26 71 80 c 128,-1,6
 37 134 37 134 29 204.5 c 128,-1,7
 21 275 21 275 24 338.5 c 128,-1,8
 27 402 27 402 39 471 c 0,9,10
 82 719 82 719 190.5 879.5 c 128,-1,11
 299 1040 299 1040 440 1081 c 1,12,-1
 489 1268 l 2,13,14
 501 1311 501 1311 549 1311 c 2,15,-1
 696 1311 l 2,16,17
 751 1311 751 1311 739 1266 c 2,18,-1
 690 1076 l 1,19,20
 765 1044 765 1044 795 966 c 128,-1,21
 825 888 825 888 804 791.5 c 128,-1,22
 783 695 783 695 717 610 c 0,23,24
 697 583 697 583 659 590 c 2,25,-1
 535 616 l 1,26,27
 506 621 506 621 497.5 634 c 128,-1,28
 489 647 489 647 498 676 c 0,29,30
 518 734 518 734 529.5 773 c 128,-1,31
 541 812 541 812 547 844.5 c 128,-1,32
 553 877 553 877 548.5 893.5 c 128,-1,33
 544 910 544 910 530 913 c 0,34,35
 514 916 514 916 474.5 866.5 c 128,-1,36
 435 817 435 817 389 724.5 c 128,-1,37
 343 632 343 632 317 535 c 0,38,39
 295 453 295 453 284.5 379.5 c 128,-1,40
 274 306 274 306 279 255 c 128,-1,41
 284 204 284 204 307 197 c 1,42,43
 320 200 320 200 333.5 212 c 128,-1,44
 347 224 347 224 358 238 c 128,-1,45
 369 252 369 252 382.5 276.5 c 128,-1,46
 396 301 396 301 404.5 318.5 c 128,-1,47
 413 336 413 336 428 367 c 128,-1,48
 443 398 443 398 451 414 c 0,49,50
 465 439 465 439 494 432 c 1,51,-1
 643 367 l 2,52,53
 692 345 692 345 668 297 c 0,54,55
 558 79 558 79 418 12 c 1,56,-1
 375 -152 l 2,57,58
 363 -195 363 -195 315 -195 c 2,59,-1
 178 -195 l 2,0,1
EndSplineSet
EndChar

StartChar: chadeva
Encoding: 2331 2331 190
Width: 1261
VWidth: 0
Flags: W
AnchorPoint: "DVAnchor0" 391 55 basechar 0
AnchorPoint: "DVAnchor3" 983 1296 basechar 0
LayerCount: 2
Fore
SplineSet
1407 1278 m 1,0,1
 1440 1112 l 2,2,3
 1444 1089 1444 1089 1429 1073 c 128,-1,4
 1414 1057 1414 1057 1389 1057 c 2,5,-1
 1114 1057 l 1,6,-1
 1087 947 l 1,7,8
 1192 889 1192 889 1192 731 c 0,9,10
 1192 617 1192 617 1130 494.5 c 128,-1,11
 1068 372 1068 372 971.5 275 c 128,-1,12
 875 178 875 178 747.5 115.5 c 128,-1,13
 620 53 620 53 498 53 c 0,14,15
 410 53 410 53 330.5 79.5 c 128,-1,16
 251 106 251 106 187.5 156.5 c 128,-1,17
 124 207 124 207 86.5 288.5 c 128,-1,18
 49 370 49 370 49 473 c 0,19,20
 49 604 49 604 118 690 c 128,-1,21
 187 776 187 776 300 822 c 1,22,23
 246 886 246 886 246 969 c 0,24,25
 246 1013 246 1013 261 1057 c 1,26,-1
 119 1057 l 2,27,28
 82 1057 82 1057 61 1074 c 128,-1,29
 40 1091 40 1091 31 1130 c 2,30,-1
 6 1249 l 2,31,32
 0 1278 0 1278 13.5 1293.5 c 128,-1,33
 27 1309 27 1309 49 1309 c 2,34,-1
 1364 1309 l 2,35,36
 1399 1309 1399 1309 1407 1278 c 1,0,1
836 494 m 1,37,38
 774 506 774 506 729 567 c 128,-1,39
 684 628 684 628 684 702 c 0,40,41
 684 804 684 804 739 876.5 c 128,-1,42
 794 949 794 949 880 971 c 1,43,-1
 901 1057 l 1,44,-1
 725 1057 l 1,45,-1
 647 1057 l 2,46,47
 593 1057 593 1057 545.5 1022 c 128,-1,48
 498 987 498 987 498 940 c 0,49,50
 498 895 498 895 561 895 c 2,51,-1
 582 895 l 2,52,53
 604 895 604 895 614 881.5 c 128,-1,54
 624 868 624 868 627 836 c 2,55,-1
 637 727 l 2,56,57
 643 672 643 672 602 672 c 2,58,-1
 600 672 l 2,59,60
 319 672 319 672 319 428 c 0,61,62
 319 360 319 360 363 322.5 c 128,-1,63
 407 285 407 285 483 285 c 0,64,65
 573 285 573 285 681.5 346.5 c 128,-1,66
 790 408 790 408 836 494 c 1,37,38
989 795 m 0,67,68
 989 817 989 817 965 817 c 0,69,70
 933 817 933 817 903.5 770.5 c 128,-1,71
 874 724 874 724 874 668 c 0,72,73
 874 635 874 635 899 635 c 0,74,75
 921 635 921 635 944 664 c 1,76,77
 960 686 960 686 974.5 724.5 c 128,-1,78
 989 763 989 763 989 795 c 0,67,68
EndSplineSet
EndChar

StartChar: chadeva_viramadeva
Encoding: 65561 -1 191
Width: 1261
VWidth: 0
Flags: W
LayerCount: 2
Fore
SplineSet
1407 1278 m 1,0,1
 1440 1112 l 2,2,3
 1444 1089 1444 1089 1429 1073 c 128,-1,4
 1414 1057 1414 1057 1389 1057 c 2,5,-1
 725 1057 l 1,6,-1
 647 1057 l 2,7,8
 593 1057 593 1057 545.5 1022 c 128,-1,9
 498 987 498 987 498 940 c 0,10,11
 498 895 498 895 561 895 c 2,12,-1
 582 895 l 2,13,14
 604 895 604 895 614 881.5 c 128,-1,15
 624 868 624 868 627 836 c 2,16,-1
 637 727 l 2,17,18
 643 672 643 672 602 672 c 2,19,-1
 600 672 l 2,20,21
 319 672 319 672 319 428 c 0,22,23
 319 360 319 360 363 322.5 c 128,-1,24
 407 285 407 285 483 285 c 0,25,26
 573 285 573 285 681.5 346.5 c 128,-1,27
 790 408 790 408 836 494 c 1,28,29
 774 506 774 506 729 567 c 128,-1,30
 684 628 684 628 684 702 c 0,31,32
 684 824 684 824 760 901.5 c 128,-1,33
 836 979 836 979 944 979 c 0,34,35
 1059 979 1059 979 1125.5 919 c 128,-1,36
 1192 859 1192 859 1192 731 c 0,37,38
 1192 617 1192 617 1130 494.5 c 128,-1,39
 1068 372 1068 372 971.5 275 c 128,-1,40
 875 178 875 178 747.5 115.5 c 128,-1,41
 620 53 620 53 498 53 c 0,42,43
 410 53 410 53 330.5 79.5 c 128,-1,44
 251 106 251 106 187.5 156.5 c 128,-1,45
 124 207 124 207 86.5 288.5 c 128,-1,46
 49 370 49 370 49 473 c 0,47,48
 49 604 49 604 118 690 c 128,-1,49
 187 776 187 776 300 822 c 1,50,51
 246 886 246 886 246 969 c 0,52,53
 246 1013 246 1013 261 1057 c 1,54,-1
 119 1057 l 2,55,56
 82 1057 82 1057 61 1074 c 128,-1,57
 40 1091 40 1091 31 1130 c 2,58,-1
 6 1249 l 2,59,60
 0 1278 0 1278 13.5 1293.5 c 128,-1,61
 27 1309 27 1309 49 1309 c 2,62,-1
 1364 1309 l 2,63,64
 1399 1309 1399 1309 1407 1278 c 1,0,1
989 795 m 0,65,66
 989 817 989 817 965 817 c 0,67,68
 933 817 933 817 903.5 770.5 c 128,-1,69
 874 724 874 724 874 668 c 0,70,71
 874 635 874 635 899 635 c 0,72,73
 921 635 921 635 944 664 c 1,74,75
 960 686 960 686 974.5 724.5 c 128,-1,76
 989 763 989 763 989 795 c 0,65,66
EndSplineSet
Ligature2: "HalfFormslookup10 subtable" chadeva viramadeva
EndChar

StartChar: chadeva_viramadeva_vadeva
Encoding: 65562 -1 192
Width: 1396
VWidth: 0
Flags: W
AnchorPoint: "DVAnchor0" 614 -547 basechar 0
LayerCount: 2
Fore
SplineSet
883 504 m 1,0,1
 848 508 848 508 829 520 c 1,2,3
 775 550 775 550 752 603 c 128,-1,4
 729 656 729 656 729 705 c 0,5,6
 729 823 729 823 823.5 901 c 128,-1,7
 918 979 918 979 1038 979 c 0,8,9
 1192 979 1192 979 1260 911 c 1,10,11
 1321 845 1321 845 1321 731 c 0,12,13
 1321 677 1321 677 1295.5 609.5 c 128,-1,14
 1270 542 1270 542 1237 494 c 0,15,16
 1163 389 1163 389 1056 327 c 1,17,-1
 858 -475 l 1,18,19
 850 -515 850 -515 815 -498 c 1,20,-1
 621 -461 l 1,21,22
 588 -444 588 -444 600 -401 c 1,23,-1
 602 -393 l 1,24,25
 571 -403 571 -403 532 -403 c 0,26,27
 416 -403 416 -403 315 -362 c 1,28,29
 220 -326 220 -326 165.5 -257 c 128,-1,30
 111 -188 111 -188 111 -113 c 128,-1,31
 111 -38 111 -38 167 25.5 c 128,-1,32
 223 89 223 89 316 124.5 c 128,-1,33
 409 160 409 160 516 160 c 0,34,35
 566 160 566 160 618 152 c 1,36,37
 677 141 677 141 728 117 c 1,38,-1
 758 236 l 1,39,40
 682 227 682 227 606 227 c 0,41,42
 524 227 524 227 400 250.5 c 128,-1,43
 276 274 276 274 213 305 c 1,44,45
 142 338 142 338 92.5 393.5 c 128,-1,46
 43 449 43 449 43 526 c 0,47,48
 43 751 43 751 271 842 c 1,49,50
 231 902 231 902 231 969 c 0,51,52
 231 1012 231 1012 248 1057 c 1,53,-1
 20 1057 l 2,54,55
 -49 1057 -49 1057 -68 1122 c 1,56,-1
 -84 1243 l 1,57,58
 -90 1309 -90 1309 -47 1309 c 2,59,-1
 1634 1309 l 2,60,61
 1654 1309 1654 1309 1664 1293 c 128,-1,62
 1674 1277 1674 1277 1681 1245 c 1,63,-1
 1690 1120 l 1,64,65
 1696 1100 1696 1100 1686 1078.5 c 128,-1,66
 1676 1057 1676 1057 1655 1057 c 2,67,-1
 711 1057 l 1,68,-1
 633 1057 l 2,69,70
 579 1057 579 1057 531 1022 c 128,-1,71
 483 987 483 987 483 940 c 0,72,73
 483 921 483 921 487 915 c 0,74,75
 501 898 501 898 545 895 c 1,76,-1
 554 894 l 2,77,78
 561 894 561 894 575 894.5 c 128,-1,79
 589 895 589 895 596 895 c 2,80,-1
 600 895 l 2,81,82
 613 895 613 895 623 884 c 128,-1,83
 633 873 633 873 636 864.5 c 128,-1,84
 639 856 639 856 645 836 c 1,85,-1
 653 727 l 1,86,87
 661 675 661 675 621 672 c 1,88,-1
 524 668 l 1,89,90
 337.67185995 646.22116497 337.67185995 646.22116497 336 563 c 0,91,92
 336 542 336 542 362.5 516.5 c 128,-1,93
 389 491 389 491 430 477 c 0,94,95
 539 442 539 442 668 446 c 0,96,97
 751 448 751 448 797 459 c 128,-1,98
 843 470 843 470 883 504 c 1,0,1
1122 791 m 0,99,100
 1122 802 1122 802 1120.5 812 c 128,-1,101
 1119 822 1119 822 1117 826.5 c 128,-1,102
 1115 831 1115 831 1114 831 c 2,103,-1
 1111.5 832.5 l 2,104,105
 1109 834 1109 834 1101 836 c 128,-1,106
 1093 838 1093 838 1083 838 c 0,107,108
 1018 838 1018 838 961.5 780 c 128,-1,109
 905 722 905 722 905 645 c 0,110,111
 905 612 905 612 915 608 c 0,112,113
 927 602 927 602 946 602 c 0,114,115
 994 602 994 602 1038 637 c 0,116,117
 1074 665 1074 665 1098 707 c 128,-1,118
 1122 749 1122 749 1122 791 c 0,99,100
691 -35 m 1,119,120
 676 -10 676 -10 655 -10 c 2,121,-1
 629 -10 l 2,122,123
 516 -10 516 -10 432 -66.5 c 128,-1,124
 348 -123 348 -123 348 -205 c 0,125,126
 348 -224 348 -224 354 -227 c 0,127,128
 366 -233 366 -233 420 -233 c 0,129,130
 548 -233 548 -233 669 -125 c 1,131,-1
 691 -35 l 1,119,120
EndSplineSet
Ligature2: "PreBaseSubstitutionslookup1 subtable" chadeva_viramadeva vadeva
Ligature2: "LocalizedMrHalfFormslookup1 subtable" cadeva viramadeva vadeva
EndChar

StartChar: circumflex
Encoding: 710 710 193
Width: 876
VWidth: 0
Flags: W
LayerCount: 2
Fore
SplineSet
484 1301 m 1,0,-1
 360 1178 l 2,1,2
 345 1163 345 1163 335 1159 c 128,-1,3
 325 1155 325 1155 303 1155 c 2,4,-1
 186 1155 l 2,5,6
 163 1155 163 1155 159 1170 c 128,-1,7
 155 1185 155 1185 174 1202 c 2,8,-1
 446 1452 l 1,9,10
 483 1483 483 1483 504 1481 c 2,11,-1
 541 1479 l 1,12,13
 571 1476 571 1476 590 1442 c 2,14,-1
 729 1190 l 1,15,16
 738 1176 738 1176 732.5 1165.5 c 128,-1,17
 727 1155 727 1155 709 1155 c 2,18,-1
 582 1155 l 2,19,20
 561 1155 561 1155 553 1159.5 c 128,-1,21
 545 1164 545 1164 539 1178 c 2,22,-1
 484 1301 l 1,0,-1
EndSplineSet
EndChar

StartChar: comma
Encoding: 44 44 195
Width: 464
VWidth: 0
Flags: W
LayerCount: 2
Fore
SplineSet
289 219 m 0,0,1
 289 147 289 147 266.5 67 c 128,-1,2
 244 -13 244 -13 208 -80.5 c 128,-1,3
 172 -148 172 -148 142.5 -193.5 c 128,-1,4
 113 -239 113 -239 86 -274 c 0,5,6
 15 -362 15 -362 -27 -362 c 0,7,8
 -72 -362 -72 -362 -72 -319 c 0,9,10
 -72 -264 -72 -264 -46.5 -164.5 c 128,-1,11
 -21 -65 -21 -65 -16 -33 c 0,12,13
 4 111 4 111 4 184 c 0,14,15
 4 198 4 198 12.5 206 c 128,-1,16
 21 214 21 214 28.5 216.5 c 128,-1,17
 36 219 36 219 55 223 c 2,18,-1
 240 262 l 1,19,20
 289 271 289 271 289 219 c 0,0,1
EndSplineSet
EndChar

StartChar: commaaccent
Encoding: 65563 -1 196
Width: 409
VWidth: 0
Flags: W
LayerCount: 2
Fore
SplineSet
371 -78 m 0,0,1
 371 -123 371 -123 331.5 -192.5 c 128,-1,2
 292 -262 292 -262 240 -328 c 0,3,4
 213 -362 213 -362 175.5 -389 c 128,-1,5
 138 -416 138 -416 111 -416 c 0,6,7
 66 -416 66 -416 66 -373 c 0,8,9
 66 -352 66 -352 80 -270 c 0,10,11
 92 -198 92 -198 92 -94 c 0,12,13
 92 -74 92 -74 105 -66.5 c 128,-1,14
 118 -59 118 -59 143 -55 c 2,15,-1
 322 -33 l 2,16,17
 371 -27 371 -27 371 -78 c 0,0,1
EndSplineSet
EndChar

StartChar: copyright
Encoding: 169 169 197
Width: 1677
VWidth: 0
Flags: W
LayerCount: 2
Fore
SplineSet
748 451 m 1,0,1
 779 468 779 468 803.5 505 c 128,-1,2
 828 542 828 542 868 621 c 1,3,4
 879 647 879 647 907 639 c 1,5,-1
 1049 578 l 1,6,7
 1071 567 1071 567 1077 555 c 128,-1,8
 1083 543 1083 543 1071 512 c 1,9,10
 1007 382 1007 382 924.5 314 c 128,-1,11
 842 246 842 246 717 246 c 0,12,13
 648 246 648 246 599 275.5 c 128,-1,14
 550 305 550 305 525 351 c 128,-1,15
 500 397 500 397 489 458 c 128,-1,16
 478 519 478 519 480 576 c 128,-1,17
 482 633 482 633 492 690 c 0,18,19
 517 828 517 828 566.5 933.5 c 128,-1,20
 616 1039 616 1039 681.5 1100 c 128,-1,21
 747 1161 747 1161 818 1191 c 128,-1,22
 889 1221 889 1221 965 1221 c 0,23,24
 1021 1221 1021 1221 1070.5 1199.5 c 128,-1,25
 1120 1178 1120 1178 1152 1138.5 c 128,-1,26
 1184 1099 1184 1099 1197.5 1049 c 128,-1,27
 1211 999 1211 999 1193.5 936.5 c 128,-1,28
 1176 874 1176 874 1128 813 c 1,29,30
 1111 786 1111 786 1075 793 c 2,31,-1
 958 817 l 2,32,33
 931 822 931 822 923 834 c 128,-1,34
 915 846 915 846 924 874 c 0,35,36
 942 927 942 927 950.5 958 c 128,-1,37
 959 989 959 989 961.5 1011 c 128,-1,38
 964 1033 964 1033 958 1042.5 c 128,-1,39
 952 1052 952 1052 938 1055 c 1,40,41
 922 1057 922 1057 889.5 1023.5 c 128,-1,42
 857 990 857 990 817.5 915.5 c 128,-1,43
 778 841 778 841 754 750 c 0,44,45
 733 674 733 674 724 609 c 128,-1,46
 715 544 715 544 720.5 500.5 c 128,-1,47
 726 457 726 457 748 451 c 1,0,1
371 819 m 0,48,49
 341 703 341 703 336.5 599.5 c 128,-1,50
 332 496 332 496 355.5 408.5 c 128,-1,51
 379 321 379 321 429.5 257.5 c 128,-1,52
 480 194 480 194 564 158.5 c 128,-1,53
 648 123 648 123 760 123 c 0,54,55
 959 123 959 123 1098 268.5 c 128,-1,56
 1237 414 1237 414 1298 655 c 0,57,58
 1326 764 1326 764 1330.5 866 c 128,-1,59
 1335 968 1335 968 1312 1058 c 128,-1,60
 1289 1148 1289 1148 1241.5 1215 c 128,-1,61
 1194 1282 1194 1282 1112 1321 c 128,-1,62
 1030 1360 1030 1360 922 1360 c 0,63,64
 721 1360 721 1360 578.5 1211 c 128,-1,65
 436 1062 436 1062 371 819 c 0,48,49
154 907 m 0,66,67
 239 1199 239 1199 440.5 1355 c 128,-1,68
 642 1511 642 1511 918 1511 c 0,69,70
 1095 1511 1095 1511 1214 1467.5 c 128,-1,71
 1333 1424 1333 1424 1419 1335 c 1,72,73
 1539 1213 1539 1213 1566 1018 c 128,-1,74
 1593 823 1593 823 1524 592 c 1,75,76
 1434 281 1434 281 1237.5 125 c 128,-1,77
 1041 -31 1041 -31 750 -31 c 0,78,79
 608 -31 608 -31 480 12 c 128,-1,80
 352 55 352 55 264 143 c 0,81,82
 186 222 186 222 144.5 331 c 128,-1,83
 103 440 103 440 103.5 588.5 c 128,-1,84
 104 737 104 737 154 907 c 0,66,67
EndSplineSet
EndChar

StartChar: currency
Encoding: 164 164 199
Width: 1048
VWidth: 0
Flags: W
LayerCount: 2
Fore
SplineSet
598 427 m 1,0,1
 661 522 661 522 692 633 c 1,2,3
 703 663 703 663 712.5 719 c 128,-1,4
 722 775 722 775 712.5 831 c 128,-1,5
 703 887 703 887 664 887 c 0,6,7
 620 887 620 887 587 851.5 c 128,-1,8
 554 816 554 816 520 746 c 0,9,10
 520 745 520 745 512.5 730.5 c 128,-1,11
 505 716 505 716 499.5 704 c 128,-1,12
 494 692 494 692 484 670.5 c 128,-1,13
 474 649 474 649 467 630 c 128,-1,14
 460 611 460 611 451.5 586 c 128,-1,15
 443 561 443 561 437 539.5 c 128,-1,16
 431 518 431 518 427.5 494 c 128,-1,17
 424 470 424 470 424 449 c 0,18,19
 424 393 424 393 434 370.5 c 128,-1,20
 444 348 444 348 481 342 c 1,21,22
 517 346 517 346 541.5 363.5 c 128,-1,23
 566 381 566 381 598 427 c 1,0,1
290 851 m 0,24,25
 292 855 292 855 307 880 c 1,26,-1
 252 1057 l 2,27,28
 247 1073 247 1073 244 1085 c 128,-1,29
 241 1097 241 1097 242 1106.5 c 128,-1,30
 243 1116 243 1116 243.5 1122 c 128,-1,31
 244 1128 244 1128 250.5 1134.5 c 128,-1,32
 257 1141 257 1141 260 1144 c 128,-1,33
 263 1147 263 1147 274 1154.5 c 128,-1,34
 285 1162 285 1162 289 1165 c 2,35,-1
 412 1227 l 1,36,37
 439 1245 439 1245 462 1229 c 128,-1,38
 485 1213 485 1213 496 1174 c 2,39,-1
 529 1060 l 1,40,41
 604 1086 604 1086 684 1086 c 0,42,43
 745 1086 745 1086 794 1072 c 1,44,-1
 870 1188 l 2,45,46
 876 1198 876 1198 881 1203.5 c 128,-1,47
 886 1209 886 1209 895 1216 c 128,-1,48
 904 1223 904 1223 915.5 1222.5 c 128,-1,49
 927 1222 927 1222 940 1214 c 2,50,-1
 1073 1137 l 1,51,52
 1107 1116 1107 1116 1110 1098 c 128,-1,53
 1113 1080 1113 1080 1090 1051 c 2,54,-1
 956 879 l 1,55,56
 960 851 960 851 960 770 c 0,57,58
 960 665 960 665 918.5 552.5 c 128,-1,59
 877 440 877 440 807 346 c 2,60,-1
 789 322 l 1,61,-1
 860 100 l 2,62,63
 870 71 870 71 860.5 56.5 c 128,-1,64
 851 42 851 42 817 23 c 2,65,-1
 700 -43 l 1,66,67
 658 -65 658 -65 632.5 -52 c 128,-1,68
 607 -39 607 -39 598 2 c 1,69,-1
 561 153 l 1,70,71
 514 138 514 138 466 138 c 0,72,73
 423 138 423 138 391 142 c 1,74,-1
 299 -10 l 1,75,-1
 292 -18.5 l 2,76,77
 285 -27 285 -27 282.5 -29 c 128,-1,78
 280 -31 280 -31 273 -36.5 c 128,-1,79
 266 -42 266 -42 260.5 -42.5 c 128,-1,80
 255 -43 255 -43 246.5 -42 c 128,-1,81
 238 -41 238 -41 229 -35 c 2,82,-1
 86 57 l 1,83,84
 55 75 55 75 51 90 c 128,-1,85
 47 105 47 105 68 141 c 1,86,-1
 185 310 l 1,87,88
 162 371 162 371 162 449 c 0,89,90
 162 636 162 636 290 851 c 0,24,25
EndSplineSet
EndChar

StartChar: d
Encoding: 100 100 200
Width: 946
VWidth: 0
Flags: W
LayerCount: 2
Fore
SplineSet
457 12 m 2,0,1
 451 27 l 1,2,-1
 439 55 l 1,3,-1
 403 141 l 1,4,-1
 404 141 l 1,5,-1
 400 150 l 1,6,-1
 381 127 l 2,7,8
 318 52 318 52 282.5 23 c 128,-1,9
 247 -6 247 -6 211 -6 c 2,10,-1
 197 -6 l 2,11,12
 157 -6 157 -6 112 36 c 128,-1,13
 67 78 67 78 38.5 141.5 c 128,-1,14
 10 205 10 205 16 260 c 0,15,16
 38 482 38 482 132 732.5 c 128,-1,17
 226 983 226 983 313 1049 c 0,18,19
 382 1102 382 1102 477 1102 c 0,20,21
 570 1102 570 1102 649 1043 c 1,22,-1
 774 1509 l 2,23,24
 786 1554 786 1554 836 1554 c 2,25,-1
 985 1554 l 2,26,27
 1041 1554 1041 1554 1030 1507 c 1,28,-1
 689 305 l 1,29,30
 714 330 714 330 727 350 c 0,31,32
 749 383 749 383 778 360 c 1,33,-1
 864 297 l 1,34,35
 895 273 895 273 877 248 c 1,36,37
 796 146 796 146 697 73.5 c 128,-1,38
 598 1 598 1 494 -10 c 0,39,40
 466 -13 466 -13 457 12 c 2,0,1
603 874 m 1,41,42
 523 900 523 900 494 879 c 0,43,44
 452 847 452 847 386 670 c 128,-1,45
 320 493 320 493 297 367 c 0,46,47
 290 329 290 329 291.5 317 c 128,-1,48
 293 305 293 305 307 305 c 0,49,50
 346 305 346 305 432.5 470 c 128,-1,51
 519 635 519 635 592 844 c 1,52,-1
 603 874 l 1,41,42
EndSplineSet
EndChar

StartChar: da_ddha_ra_yadeva
Encoding: 65565 -1 201
Width: 2482
VWidth: 0
Flags: W
AnchorPoint: "DVAnchor0" 2144 -14 basechar 0
LayerCount: 2
Fore
SplineSet
2232 -57 m 1,0,1
 2056 35 l 2,2,3
 2023 52 2023 52 2036 94 c 1,4,-1
 2060 191 l 1,5,6
 1964 160 1964 160 1849 160 c 0,7,8
 1665 160 1665 160 1546 252 c 1,9,10
 1449 329 1449 329 1421 445 c 128,-1,11
 1393 561 1393 561 1417 655 c 1,12,-1
 1569 657 l 2,13,14
 1626 657 1626 657 1666 668 c 128,-1,15
 1706 679 1706 679 1706 700 c 0,16,17
 1706 731 1706 731 1665 731 c 2,18,-1
 1014 731 l 1,19,-1
 956 731 l 2,20,21
 887 731 887 731 825 711 c 128,-1,22
 763 691 763 691 711.5 651 c 128,-1,23
 660 611 660 611 629 542.5 c 128,-1,24
 598 474 598 474 598 385 c 0,25,26
 598 330 598 330 612 322 c 0,27,28
 639 305 639 305 688 305 c 0,29,30
 753 305 753 305 838.5 329 c 128,-1,31
 924 353 924 353 989 407 c 1,32,33
 973 450 973 450 973 492 c 0,34,35
 973 561 973 561 1016 592 c 0,36,37
 1060 623 1060 623 1093.5 620.5 c 128,-1,38
 1127 618 1127 618 1188 578 c 0,39,40
 1280 519 1280 519 1280 449 c 0,41,42
 1280 381 1280 381 1224 296 c 1,43,-1
 1362 -45 l 2,44,45
 1372 -70 1372 -70 1363.5 -81.5 c 128,-1,46
 1355 -93 1355 -93 1325 -98 c 1,47,-1
 1247 -106 l 1,48,49
 1216 -111 1216 -111 1198.5 -103 c 128,-1,50
 1181 -95 1181 -95 1174 -70 c 1,51,-1
 1131 46 l 1,52,53
 1122 26 1122 26 1102 -10 c 1,54,-1
 926 -455 l 1,55,56
 910 -500 910 -500 877 -483 c 1,57,-1
 788 -446 l 2,58,59
 755 -432 755 -432 772 -389 c 2,60,-1
 833 -235 l 1,61,62
 775 -252 775 -252 702 -252 c 0,63,64
 639 -252 639 -252 579 -231.5 c 128,-1,65
 519 -211 519 -211 487 -182 c 1,66,67
 389 -102 389 -102 389 51 c 0,68,69
 389 69 389 69 391 101 c 1,70,71
 371.5 98 371.5 98 352 98 c 0,72,73
 258 98 258 98 203 127 c 0,74,75
 119 172 119 172 81 255.5 c 128,-1,76
 43 339 43 339 43 424 c 0,77,78
 43 483 43 483 59 534 c 128,-1,79
 75 585 75 585 96.5 617 c 128,-1,80
 118 649 118 649 147 675 c 128,-1,81
 176 701 176 701 195.5 713 c 128,-1,82
 215 725 215 725 233 733 c 1,83,84
 265 751 265 751 284.5 749.5 c 128,-1,85
 304 748 304 748 319 725 c 1,86,-1
 375 659 l 1,87,-1
 377 657 l 1,88,89
 420 813 420 813 551.5 896 c 128,-1,90
 683 979 683 979 856 979 c 2,91,-1
 868 979 l 1,92,-1
 870 979 l 1,93,-1
 889 1057 l 1,94,-1
 373 1057 l 1,95,-1
 240 1057 l 1,96,-1
 53 1057 l 2,97,98
 13 1057 13 1057 2 1094 c 2,99,-1
 -53 1272 l 2,100,101
 -59 1292 -59 1292 -53 1300.5 c 128,-1,102
 -47 1309 -47 1309 -25 1309 c 2,103,-1
 154 1309 l 1,104,-1
 291 1309 l 1,105,-1
 1208 1309 l 1,106,-1
 1430 1309 l 1,107,-1
 2705 1309 l 2,108,109
 2746 1309 2746 1309 2761 1272 c 1,110,-1
 2800 1098 l 1,111,112
 2806 1057 2806 1057 2769 1057 c 2,113,-1
 2548 1057 l 1,114,-1
 2426 570 l 1,115,-1
 2427 569 l 1,116,-1
 2418 539 l 1,117,-1
 2275 -33 l 1,118,119
 2271 -54 2271 -54 2261 -59.5 c 128,-1,120
 2251 -65 2251 -65 2232 -57 c 1,0,1
2275 1057 m 1,121,-1
 1485 1057 l 1,122,-1
 1272 1057 l 1,123,-1
 1166 1057 l 1,124,-1
 1146 979 l 1,125,-1
 1712 979 l 2,126,127
 1800 979 1800 979 1859.5 940 c 128,-1,128
 1919 901 1919 901 1946 831 c 1,129,130
 1954 800 1954 800 1954 756 c 0,131,132
 1954 693 1954 693 1927.5 640 c 128,-1,133
 1901 587 1901 587 1857 552 c 128,-1,134
 1813 517 1813 517 1761.5 495 c 128,-1,135
 1710 473 1710 473 1654 466 c 1,136,137
 1663 444 1663 444 1675 434 c 0,138,139
 1711 403 1711 403 1782 403 c 0,140,141
 1926 403 1926 403 2037.5 485 c 128,-1,142
 2149 567 2149 567 2188 705 c 1,143,-1
 2275 1057 l 1,121,-1
581 108 m 1,144,145
 573 84 573 84 573 51 c 0,146,147
 573 -5 573 -5 601.5 -30.5 c 128,-1,148
 630 -56 630 -56 705 -59 c 1,149,150
 828 -62 828 -62 909 67 c 1,151,152
 845 53 845 53 786 53 c 0,153,154
 678 53 678 53 581 108 c 1,144,145
360 563 m 1,155,156
 342 555 342 555 322.5 540.5 c 128,-1,157
 303 526 303 526 280 501.5 c 128,-1,158
 257 477 257 477 242 438.5 c 128,-1,159
 227 400 227 400 227 356 c 0,160,161
 227 295 227 295 250.5 267.5 c 128,-1,162
 274 240 274 240 309 240 c 0,163,164
 353 240 353 240 421 269 c 1,165,166
 358 382 358 382 358 514 c 0,167,168
 358 531 358 531 360 563 c 1,155,156
EndSplineSet
Ligature2: "ConjunctFormslookup11 subtable" dadeva_viramadeva dhadeva_viramadeva_radeva viramadeva yadeva
Ligature2: "ConjunctFormslookup11 subtable" dadeva_viramadeva_dhadeva viramadeva_radeva viramadeva yadeva
EndChar

StartChar: dadeva
Encoding: 2342 2342 202
Width: 1087
VWidth: 0
Flags: W
AnchorPoint: "DVAnchor0" 512 0 basechar 0
AnchorPoint: "DVAnchor3" 659 1296 basechar 0
LayerCount: 2
Fore
SplineSet
1196 1278 m 1,0,1
 1233 1092 l 2,2,3
 1239 1057 1239 1057 1206 1057 c 2,4,-1
 887 1057 l 1,5,-1
 819 780 l 2,6,7
 807 731 807 731 735 731 c 2,8,-1
 678 731 l 2,9,10
 609 731 609 731 547 711 c 128,-1,11
 485 691 485 691 433 651 c 128,-1,12
 381 611 381 611 350 542.5 c 128,-1,13
 319 474 319 474 319 385 c 0,14,15
 319 370 319 370 323 348 c 128,-1,16
 327 326 327 326 334 322 c 0,17,18
 361 305 361 305 410 305 c 0,19,20
 475 305 475 305 560.5 329 c 128,-1,21
 646 353 646 353 711 407 c 1,22,23
 694 453 694 453 694 492 c 0,24,25
 694 561 694 561 737 592 c 0,26,27
 781 623 781 623 814.5 620.5 c 128,-1,28
 848 618 848 618 909 578 c 0,29,30
 1001 519 1001 519 1001 449 c 0,31,32
 1001 381 1001 381 945 296 c 1,33,-1
 1083 -45 l 2,34,35
 1093 -70 1093 -70 1085 -81.5 c 128,-1,36
 1077 -93 1077 -93 1047 -98 c 1,37,-1
 969 -106 l 1,38,39
 908 -115 908 -115 895 -70 c 1,40,-1
 814 153 l 1,41,42
 687 53 687 53 508 53 c 0,43,44
 394 53 394 53 285 119 c 1,45,46
 212 162 212 162 164 234 c 128,-1,47
 116 306 116 306 98 375.5 c 128,-1,48
 80 445 80 445 80 514 c 0,49,50
 80 605 80 605 106.5 682 c 128,-1,51
 133 759 133 759 179.5 813 c 128,-1,52
 226 867 226 867 289.5 905 c 128,-1,53
 353 943 353 943 425.5 961 c 128,-1,54
 498 979 498 979 578 979 c 2,55,-1
 591 979 l 1,56,-1
 610 1057 l 1,57,-1
 -39 1057 l 2,58,59
 -75 1057 -75 1057 -95.5 1074 c 128,-1,60
 -116 1091 -116 1091 -125 1130 c 2,61,-1
 -156 1272 l 1,62,63
 -159 1294 -159 1294 -153 1301.5 c 128,-1,64
 -147 1309 -147 1309 -125 1309 c 2,65,-1
 1151 1309 l 2,66,67
 1188 1309 1188 1309 1196 1278 c 1,0,1
EndSplineSet
EndChar

StartChar: dadeva_viramadeva
Encoding: 65567 -1 204
Width: 1161
VWidth: 0
Flags: W
LayerCount: 2
Fore
SplineSet
309 -152 m 1,0,1
 310 -126 310 -126 321.5 -114.5 c 128,-1,2
 333 -103 333 -103 356 -94 c 0,3,4
 492 -43 492 -43 629 -119 c 1,5,-1
 938 -283 l 1,6,7
 955 -295 955 -295 955 -312 c 128,-1,8
 955 -329 955 -329 938 -358 c 1,9,-1
 897 -422 l 1,10,11
 877 -447 877 -447 856.5 -453 c 128,-1,12
 836 -459 836 -459 809 -449 c 1,13,14
 721 -398 721 -398 526 -299 c 1,15,16
 490 -279 490 -279 448 -276 c 128,-1,17
 406 -273 406 -273 382 -278.5 c 128,-1,18
 358 -284 358 -284 344 -291 c 0,19,20
 324 -302 324 -302 308 -292 c 128,-1,21
 292 -282 292 -282 295 -252 c 1,22,-1
 309 -152 l 1,0,1
1270 1278 m 1,23,24
 1307 1092 l 2,25,26
 1313 1057 1313 1057 1280 1057 c 2,27,-1
 961 1057 l 1,28,-1
 893 780 l 2,29,30
 881 731 881 731 809 731 c 2,31,-1
 752 731 l 2,32,33
 683 731 683 731 621 711 c 128,-1,34
 559 691 559 691 507 651 c 128,-1,35
 455 611 455 611 424 542.5 c 128,-1,36
 393 474 393 474 393 385 c 0,37,38
 393 370 393 370 397 348 c 128,-1,39
 401 326 401 326 408 322 c 0,40,41
 435 305 435 305 483 305 c 0,42,43
 548 305 548 305 633.5 329 c 128,-1,44
 719 353 719 353 784 407 c 1,45,46
 768 450 768 450 768 492 c 0,47,48
 768 561 768 561 811 592 c 0,49,50
 855 623 855 623 888.5 620.5 c 128,-1,51
 922 618 922 618 983 578 c 0,52,53
 1075 519 1075 519 1075 449 c 0,54,55
 1075 381 1075 381 1019 296 c 1,56,-1
 1157 -45 l 2,57,58
 1167 -70 1167 -70 1158.5 -81.5 c 128,-1,59
 1150 -93 1150 -93 1120 -98 c 1,60,-1
 1042 -106 l 1,61,62
 1011 -111 1011 -111 993.5 -103 c 128,-1,63
 976 -95 976 -95 969 -70 c 1,64,-1
 888 153 l 1,65,66
 761 53 761 53 582 53 c 0,67,68
 467 53 467 53 358 119 c 0,69,70
 303 152 303 152 261.5 201 c 128,-1,71
 220 250 220 250 197.5 304.5 c 128,-1,72
 175 359 175 359 164.5 411 c 128,-1,73
 154 463 154 463 154 514 c 0,74,75
 154 628 154 628 194.5 718 c 128,-1,76
 235 808 235 808 304.5 864 c 128,-1,77
 374 920 374 920 462.5 949.5 c 128,-1,78
 551 979 551 979 651 979 c 2,79,-1
 665 979 l 1,80,-1
 684 1057 l 1,81,-1
 35 1057 l 2,82,83
 -1 1057 -1 1057 -21.5 1074 c 128,-1,84
 -42 1091 -42 1091 -51 1130 c 2,85,-1
 -82 1272 l 1,86,87
 -85 1294 -85 1294 -79 1301.5 c 128,-1,88
 -73 1309 -73 1309 -51 1309 c 2,89,-1
 1225 1309 l 2,90,91
 1262 1309 1262 1309 1270 1278 c 1,23,24
EndSplineSet
Ligature2: "HalfFormslookup10 subtable" dadeva viramadeva
Ligature2: "halnHalantFormslookup29 subtable" dadeva viramadeva
EndChar

StartChar: dadeva_viramadeva_badeva
Encoding: 65568 -1 205
Width: 1087
VWidth: 0
Flags: W
AnchorPoint: "DVAnchor0" 477 -260 basechar 0
LayerCount: 2
Fore
SplineSet
1196 1278 m 1,0,1
 1233 1092 l 2,2,3
 1239 1057 1239 1057 1206 1057 c 2,4,-1
 887 1057 l 1,5,-1
 819 780 l 2,6,7
 807 731 807 731 735 731 c 2,8,-1
 678 731 l 2,9,10
 609 731 609 731 547 711 c 128,-1,11
 485 691 485 691 433 651 c 128,-1,12
 381 611 381 611 350 542.5 c 128,-1,13
 319 474 319 474 319 385 c 0,14,15
 319 370 319 370 323 348 c 128,-1,16
 327 326 327 326 334 322 c 0,17,18
 361 305 361 305 410 305 c 0,19,20
 475 305 475 305 560.5 329 c 128,-1,21
 646 353 646 353 711 407 c 1,22,23
 694 453 694 453 694 492 c 0,24,25
 694 561 694 561 737 592 c 0,26,27
 781 623 781 623 814.5 620.5 c 128,-1,28
 848 618 848 618 909 578 c 0,29,30
 1001 519 1001 519 1001 449 c 0,31,32
 1001 381 1001 381 945 296 c 1,33,-1
 1083 -45 l 2,34,35
 1093 -70 1093 -70 1085 -81.5 c 128,-1,36
 1077 -93 1077 -93 1047 -98 c 1,37,-1
 969 -106 l 1,38,39
 908 -115 908 -115 895 -70 c 1,40,-1
 845 68 l 1,41,42
 848 46 848 46 848 23 c 0,43,44
 848 -79 848 -79 786.5 -148 c 128,-1,45
 725 -217 725 -217 627 -217 c 0,46,47
 570 -217 570 -217 508 -190 c 1,48,49
 414 -142 414 -142 363.5 -59.5 c 128,-1,50
 313 23 313 23 313 102 c 1,51,52
 307 105 307 105 297 111.5 c 128,-1,53
 287 118 287 118 285 119 c 0,54,55
 212 162 212 162 164 234 c 128,-1,56
 116 306 116 306 98 375.5 c 128,-1,57
 80 445 80 445 80 514 c 0,58,59
 80 605 80 605 106.5 682 c 128,-1,60
 133 759 133 759 179.5 813 c 128,-1,61
 226 867 226 867 289.5 905 c 128,-1,62
 353 943 353 943 425.5 961 c 128,-1,63
 498 979 498 979 578 979 c 2,64,-1
 591 979 l 1,65,-1
 610 1057 l 1,66,-1
 -39 1057 l 2,67,68
 -75 1057 -75 1057 -95.5 1074 c 128,-1,69
 -116 1091 -116 1091 -125 1130 c 2,70,-1
 -156 1272 l 1,71,72
 -159 1294 -159 1294 -153 1301.5 c 128,-1,73
 -147 1309 -147 1309 -125 1309 c 2,74,-1
 1151 1309 l 2,75,76
 1188 1309 1188 1309 1196 1278 c 1,0,1
637 -16 m 1,77,78
 676 26 676 26 683 82 c 1,79,80
 650 71 650 71 605 62 c 1,81,-1
 637 -16 l 1,77,78
565 -62 m 1,82,-1
 513 53 l 1,83,-1
 508 53 l 2,84,85
 491 53 491 53 482 54 c 1,86,87
 479 39 479 39 479 23 c 0,88,89
 479 -8 479 -8 486.5 -29 c 128,-1,90
 494 -50 494 -50 498.5 -54 c 128,-1,91
 503 -58 503 -58 506 -59 c 0,92,93
 520 -66 520 -66 539 -66 c 0,94,95
 547 -66 547 -66 565 -62 c 1,82,-1
EndSplineSet
Ligature2: "PreBaseSubstitutionslookup1 subtable" dadeva_viramadeva badeva
Ligature2: "ConjunctFormslookup11 subtable" dadeva viramadeva badeva
Ligature2: "LocalizedMrHalfFormslookup1 subtable" dadeva viramadeva badeva
EndChar

StartChar: dadeva_viramadeva_bhadeva
Encoding: 65569 -1 206
Width: 1409
VWidth: 0
Flags: W
AnchorPoint: "DVAnchor0" 1116 27 basechar 0
LayerCount: 2
Fore
SplineSet
29 135 m 1,0,1
 -143 145 l 1,2,3
 -191 149 -191 149 -180 186 c 0,4,5
 -162 246 -162 246 -59 344 c 1,6,7
 31 428 31 428 133 428 c 0,8,9
 185 428 185 428 239 404.5 c 128,-1,10
 293 381 293 381 335 345.5 c 128,-1,11
 377 310 377 310 407.5 275 c 128,-1,12
 438 240 438 240 455 211 c 2,13,-1
 553 47 l 1,14,-1
 634 98 l 1,15,16
 618 105 618 105 596 119 c 0,17,18
 523 162 523 162 475 234 c 128,-1,19
 427 306 427 306 409 375.5 c 128,-1,20
 391 445 391 445 391 514 c 0,21,22
 391 605 391 605 417.5 682 c 128,-1,23
 444 759 444 759 490.5 813 c 128,-1,24
 537 867 537 867 600.5 905 c 128,-1,25
 664 943 664 943 736.5 961 c 128,-1,26
 809 979 809 979 889 979 c 2,27,-1
 903 979 l 1,28,-1
 922 1057 l 1,29,-1
 307 1057 l 1,30,-1
 272 1057 l 1,31,-1
 -299 1057 l 2,32,33
 -339 1057 -339 1057 -350 1094 c 2,34,-1
 -406 1272 l 2,35,36
 -412 1292 -412 1292 -405.5 1300.5 c 128,-1,37
 -399 1309 -399 1309 -377 1309 c 2,38,-1
 186 1309 l 1,39,-1
 225 1309 l 1,40,-1
 1462 1309 l 2,41,42
 1499 1309 1499 1309 1507 1278 c 1,43,-1
 1544 1092 l 2,44,45
 1550 1057 1550 1057 1518 1057 c 2,46,-1
 1198 1057 l 1,47,-1
 1130 780 l 2,48,49
 1118 731 1118 731 1047 731 c 2,50,-1
 989 731 l 2,51,52
 920 731 920 731 858 711 c 128,-1,53
 796 691 796 691 744.5 651 c 128,-1,54
 693 611 693 611 662 542.5 c 128,-1,55
 631 474 631 474 631 385 c 0,56,57
 631 330 631 330 645 322 c 0,58,59
 672 305 672 305 721 305 c 0,60,61
 786 305 786 305 871.5 329 c 128,-1,62
 957 353 957 353 1022 407 c 1,63,64
 1006 450 1006 450 1006 492 c 0,65,66
 1006 561 1006 561 1049 592 c 0,67,68
 1093 623 1093 623 1126.5 620.5 c 128,-1,69
 1160 618 1160 618 1221 578 c 0,70,71
 1313 519 1313 519 1313 449 c 0,72,73
 1313 381 1313 381 1257 296 c 1,74,-1
 1395 -45 l 2,75,76
 1405 -70 1405 -70 1396.5 -81.5 c 128,-1,77
 1388 -93 1388 -93 1358 -98 c 1,78,-1
 1280 -106 l 1,79,80
 1219 -115 1219 -115 1206 -70 c 1,81,-1
 1127 148 l 1,82,-1
 667 -146 l 1,83,-1
 752 -276 l 1,84,85
 784 -328 784 -328 750 -367 c 1,86,87
 725 -399 725 -399 692 -422 c 1,88,89
 616 -479 616 -479 578 -461 c 0,90,91
 550 -448 550 -448 417 -380 c 128,-1,92
 284 -312 284 -312 266 -303 c 0,93,94
 231 -287 231 -287 221.5 -257 c 128,-1,95
 212 -227 212 -227 237 -184.5 c 128,-1,96
 262 -142 262 -142 323 -99 c 1,97,-1
 170 199 l 2,98,99
 161 217 161 217 141 217 c 0,100,101
 128 217 128 217 113.5 201 c 128,-1,102
 99 185 99 185 87 164.5 c 128,-1,103
 75 144 75 144 74 143 c 0,104,105
 61 130 61 130 29 135 c 1,0,1
EndSplineSet
Ligature2: "PreBaseSubstitutionslookup1 subtable" dadeva_viramadeva bhadeva
Ligature2: "ConjunctFormslookup11 subtable" dadeva viramadeva bhadeva
Ligature2: "LocalizedMrHalfFormslookup1 subtable" dadeva viramadeva bhadeva
EndChar

StartChar: dadeva_viramadeva_dhadeva
Encoding: 65571 -1 208
Width: 1366
VWidth: 0
Flags: W
AnchorPoint: "DVAnchor0" 1024 -178 basechar 0
LayerCount: 2
Fore
SplineSet
1475 1278 m 1,0,1
 1511 1092 l 2,2,3
 1517 1057 1517 1057 1485 1057 c 2,4,-1
 1166 1057 l 1,5,-1
 1098 780 l 2,6,7
 1086 731 1086 731 1014 731 c 2,8,-1
 956 731 l 2,9,10
 887 731 887 731 825 711 c 128,-1,11
 763 691 763 691 711.5 651 c 128,-1,12
 660 611 660 611 629 542.5 c 128,-1,13
 598 474 598 474 598 385 c 0,14,15
 598 330 598 330 612 322 c 0,16,17
 639 305 639 305 688 305 c 0,18,19
 753 305 753 305 838.5 329 c 128,-1,20
 924 353 924 353 989 407 c 1,21,22
 973 450 973 450 973 492 c 0,23,24
 973 561 973 561 1016 592 c 0,25,26
 1060 623 1060 623 1093.5 620.5 c 128,-1,27
 1127 618 1127 618 1188 578 c 0,28,29
 1280 519 1280 519 1280 449 c 0,30,31
 1280 381 1280 381 1224 296 c 1,32,-1
 1362 -45 l 2,33,34
 1372 -70 1372 -70 1363.5 -81.5 c 128,-1,35
 1355 -93 1355 -93 1325 -98 c 1,36,-1
 1247 -106 l 1,37,38
 1216 -111 1216 -111 1198.5 -103 c 128,-1,39
 1181 -95 1181 -95 1174 -70 c 1,40,-1
 1131 46 l 1,41,42
 992 -252 992 -252 702 -252 c 0,43,44
 639 -252 639 -252 579 -231.5 c 128,-1,45
 519 -211 519 -211 487 -182 c 1,46,47
 389 -102 389 -102 389 51 c 0,48,49
 389 69 389 69 391 101 c 1,50,51
 371.5 98 371.5 98 352 98 c 0,52,53
 258 98 258 98 203 127 c 0,54,55
 119 172 119 172 81 255.5 c 128,-1,56
 43 339 43 339 43 424 c 0,57,58
 43 483 43 483 59 534 c 128,-1,59
 75 585 75 585 96.5 617 c 128,-1,60
 118 649 118 649 147 675 c 128,-1,61
 176 701 176 701 195.5 713 c 128,-1,62
 215 725 215 725 233 733 c 1,63,64
 265 751 265 751 284.5 749.5 c 128,-1,65
 304 748 304 748 319 725 c 1,66,-1
 375 659 l 1,67,-1
 377 657 l 1,68,69
 420 813 420 813 551.5 896 c 128,-1,70
 683 979 683 979 856 979 c 2,71,-1
 870 979 l 1,72,-1
 889 1057 l 1,73,-1
 373 1057 l 1,74,-1
 240 1057 l 1,75,-1
 53 1057 l 2,76,77
 13 1057 13 1057 2 1094 c 2,78,-1
 -53 1272 l 2,79,80
 -59 1292 -59 1292 -53 1300.5 c 128,-1,81
 -47 1309 -47 1309 -25 1309 c 2,82,-1
 154 1309 l 1,83,-1
 291 1309 l 1,84,-1
 1430 1309 l 2,85,86
 1467 1309 1467 1309 1475 1278 c 1,0,1
581 108 m 1,87,88
 573 84 573 84 573 51 c 0,89,90
 573 -5 573 -5 601.5 -30.5 c 128,-1,91
 630 -56 630 -56 705 -59 c 1,92,93
 828 -62 828 -62 909 67 c 1,94,95
 845 53 845 53 786 53 c 0,96,97
 678 53 678 53 581 108 c 1,87,88
360 563 m 1,98,99
 342 555 342 555 322.5 540.5 c 128,-1,100
 303 526 303 526 280 501.5 c 128,-1,101
 257 477 257 477 242 438.5 c 128,-1,102
 227 400 227 400 227 356 c 0,103,104
 227 295 227 295 250.5 267.5 c 128,-1,105
 274 240 274 240 309 240 c 0,106,107
 353 240 353 240 421 269 c 1,108,109
 358 382 358 382 358 514 c 0,110,111
 358 531 358 531 360 563 c 1,98,99
EndSplineSet
Ligature2: "PreBaseSubstitutionslookup1 subtable" dadeva_viramadeva dhadeva
Ligature2: "ConjunctFormslookup11 subtable" dadeva viramadeva dhadeva
Ligature2: "LocalizedMrHalfFormslookup1 subtable" dadeva viramadeva dhadeva
EndChar

StartChar: dadeva_viramadeva_gadeva
Encoding: 65572 -1 209
Width: 1087
VWidth: 0
Flags: W
AnchorPoint: "DVAnchor0" 518 -518 basechar 0
LayerCount: 2
Fore
SplineSet
1196 1278 m 1,0,1
 1233 1092 l 2,2,3
 1239 1057 1239 1057 1206 1057 c 2,4,-1
 887 1057 l 1,5,-1
 819 780 l 2,6,7
 807 731 807 731 735 731 c 2,8,-1
 678 731 l 2,9,10
 609 731 609 731 547 711 c 128,-1,11
 485 691 485 691 433 651 c 128,-1,12
 381 611 381 611 350 542.5 c 128,-1,13
 319 474 319 474 319 385 c 0,14,15
 319 370 319 370 323 348 c 128,-1,16
 327 326 327 326 334 322 c 0,17,18
 361 305 361 305 410 305 c 0,19,20
 475 305 475 305 560.5 329 c 128,-1,21
 646 353 646 353 711 407 c 1,22,23
 694 453 694 453 694 492 c 0,24,25
 694 561 694 561 737 592 c 0,26,27
 781 623 781 623 814.5 620.5 c 128,-1,28
 848 618 848 618 909 578 c 0,29,30
 1001 519 1001 519 1001 449 c 0,31,32
 1001 381 1001 381 945 296 c 1,33,-1
 1083 -45 l 2,34,35
 1093 -70 1093 -70 1085 -81.5 c 128,-1,36
 1077 -93 1077 -93 1047 -98 c 1,37,-1
 969 -106 l 1,38,39
 908 -115 908 -115 895 -70 c 1,40,-1
 814 153 l 1,41,42
 806 146 806 146 788 134 c 1,43,-1
 686 -279 l 1,44,-1
 678 -311 l 2,45,46
 678 -312 678 -312 675.5 -320.5 c 128,-1,47
 673 -329 673 -329 670.5 -337 c 128,-1,48
 668 -345 668 -345 663 -357.5 c 128,-1,49
 658 -370 658 -370 651 -381.5 c 128,-1,50
 644 -393 644 -393 635 -405 c 128,-1,51
 626 -417 626 -417 613.5 -427 c 128,-1,52
 601 -437 601 -437 586 -444 c 2,53,-1
 489 -483 l 1,54,55
 444 -504 444 -504 416 -483 c 128,-1,56
 388 -462 388 -462 377 -420 c 1,57,58
 370 -401 370 -401 341 -306.5 c 128,-1,59
 312 -212 312 -212 305 -193 c 0,60,61
 293 -160 293 -160 291 -134 c 128,-1,62
 289 -108 289 -108 293.5 -91.5 c 128,-1,63
 298 -75 298 -75 311.5 -63.5 c 128,-1,64
 325 -52 325 -52 336.5 -46.5 c 128,-1,65
 348 -41 348 -41 369 -38.5 c 128,-1,66
 390 -36 390 -36 400 -35.5 c 128,-1,67
 410 -35 410 -35 430 -35 c 2,68,-1
 514 -35 l 1,69,-1
 536 54 l 1,70,71
 531 54 531 54 521.5 53.5 c 128,-1,72
 512 53 512 53 508 53 c 0,73,74
 394 53 394 53 285 119 c 1,75,76
 212 162 212 162 164 234 c 128,-1,77
 116 306 116 306 98 375.5 c 128,-1,78
 80 445 80 445 80 514 c 0,79,80
 80 605 80 605 106.5 682 c 128,-1,81
 133 759 133 759 179.5 813 c 128,-1,82
 226 867 226 867 289.5 905 c 128,-1,83
 353 943 353 943 425.5 961 c 128,-1,84
 498 979 498 979 578 979 c 2,85,-1
 591 979 l 1,86,-1
 610 1057 l 1,87,-1
 -39 1057 l 2,88,89
 -75 1057 -75 1057 -95.5 1074 c 128,-1,90
 -116 1091 -116 1091 -125 1130 c 2,91,-1
 -156 1272 l 1,92,93
 -159 1294 -159 1294 -153 1301.5 c 128,-1,94
 -147 1309 -147 1309 -125 1309 c 2,95,-1
 1151 1309 l 2,96,97
 1188 1309 1188 1309 1196 1278 c 1,0,1
EndSplineSet
Ligature2: "PreBaseSubstitutionslookup1 subtable" dadeva_viramadeva gadeva
Ligature2: "ConjunctFormslookup11 subtable" dadeva viramadeva gadeva
Ligature2: "LocalizedMrHalfFormslookup1 subtable" dadeva viramadeva gadeva
EndChar

StartChar: dadeva_viramadeva_ghadeva
Encoding: 65573 -1 210
Width: 2328
VWidth: 0
Flags: W
AnchorPoint: "DVAnchor0" 1829 -14 basechar 0
LayerCount: 2
Fore
SplineSet
383 -147 m 1,0,1
 384 -122 384 -122 395.5 -110.5 c 128,-1,2
 407 -99 407 -99 430 -90 c 0,3,4
 565 -39 565 -39 702 -115 c 1,5,-1
 1012 -279 l 1,6,7
 1029 -291 1029 -291 1029 -308 c 128,-1,8
 1029 -325 1029 -325 1012 -354 c 1,9,-1
 971 -418 l 1,10,11
 952 -443 952 -443 931 -448.5 c 128,-1,12
 910 -454 910 -454 883 -444 c 1,13,14
 809 -401 809 -401 600 -295 c 1,15,16
 564 -275 564 -275 522 -272 c 128,-1,17
 480 -269 480 -269 456 -274.5 c 128,-1,18
 432 -280 432 -280 418 -287 c 0,19,20
 398 -298 398 -298 382 -288 c 128,-1,21
 366 -278 366 -278 369 -248 c 1,22,-1
 383 -147 l 1,0,1
2445 1268 m 1,23,24
 2484 1094 l 2,25,26
 2489 1074 2489 1074 2482.5 1065.5 c 128,-1,27
 2476 1057 2476 1057 2454 1057 c 2,28,-1
 2247 1057 l 1,29,-1
 1976 -33 l 2,30,31
 1970 -55 1970 -55 1961 -60 c 128,-1,32
 1952 -65 1952 -65 1933 -57 c 1,33,-1
 1757 35 l 2,34,35
 1725 51 1725 51 1735 94 c 2,36,-1
 1760 194 l 1,37,38
 1670 162 1670 162 1561 162 c 0,39,40
 1382 162 1382 162 1292 256.5 c 128,-1,41
 1202 351 1202 351 1202 506 c 0,42,43
 1202 675 1202 675 1343 789 c 1,44,-1
 1341 791 l 1,45,46
 1268 875 1268 875 1268 977 c 0,47,48
 1268 1020 1268 1020 1282 1057 c 1,49,-1
 1280 1057 l 1,50,-1
 961 1057 l 1,51,-1
 893 780 l 2,52,53
 881 731 881 731 809 731 c 2,54,-1
 752 731 l 2,55,56
 683 731 683 731 621 711 c 128,-1,57
 559 691 559 691 507 651 c 128,-1,58
 455 611 455 611 424 542.5 c 128,-1,59
 393 474 393 474 393 385 c 0,60,61
 393 370 393 370 397 348 c 128,-1,62
 401 326 401 326 408 322 c 0,63,64
 435 305 435 305 483 305 c 0,65,66
 548 305 548 305 633.5 329 c 128,-1,67
 719 353 719 353 784 407 c 1,68,69
 768 450 768 450 768 492 c 0,70,71
 768 561 768 561 811 592 c 0,72,73
 855 623 855 623 888.5 620.5 c 128,-1,74
 922 618 922 618 983 578 c 0,75,76
 1075 519 1075 519 1075 449 c 0,77,78
 1075 381 1075 381 1019 296 c 1,79,-1
 1157 -45 l 2,80,81
 1167 -70 1167 -70 1158.5 -81.5 c 128,-1,82
 1150 -93 1150 -93 1120 -98 c 1,83,-1
 1042 -106 l 1,84,85
 1011 -111 1011 -111 993.5 -103 c 128,-1,86
 976 -95 976 -95 969 -70 c 1,87,-1
 888 153 l 1,88,89
 761 53 761 53 582 53 c 0,90,91
 467 53 467 53 358 119 c 0,92,93
 303 152 303 152 261.5 201 c 128,-1,94
 220 250 220 250 197.5 304.5 c 128,-1,95
 175 359 175 359 164.5 411 c 128,-1,96
 154 463 154 463 154 514 c 0,97,98
 154 628 154 628 194.5 718 c 128,-1,99
 235 808 235 808 304.5 864 c 128,-1,100
 374 920 374 920 462.5 949.5 c 128,-1,101
 551 979 551 979 651 979 c 2,102,-1
 665 979 l 1,103,-1
 684 1057 l 1,104,-1
 35 1057 l 2,105,106
 -1 1057 -1 1057 -21.5 1074 c 128,-1,107
 -42 1091 -42 1091 -51 1130 c 2,108,-1
 -82 1272 l 1,109,110
 -85 1294 -85 1294 -79 1301.5 c 128,-1,111
 -73 1309 -73 1309 -51 1309 c 2,112,-1
 1217 1309 l 1,113,-1
 1225 1309 l 1,114,-1
 1765 1309 l 1,115,-1
 2202 1309 l 1,116,-1
 2392 1309 l 2,117,118
 2437 1309 2437 1309 2445 1268 c 1,23,24
1664 905 m 1,119,-1
 1681 905 l 1,120,-1
 1694 905 l 1,121,-1
 1755 905 l 2,122,123
 1786 905 1786 905 1807 890 c 128,-1,124
 1828 875 1828 875 1829 848 c 1,125,-1
 1827 725 l 2,126,127
 1827 700 1827 700 1816.5 690 c 128,-1,128
 1806 680 1806 680 1784 680 c 2,129,-1
 1737 680 l 2,130,131
 1614 680 1614 680 1555.5 623 c 128,-1,132
 1497 566 1497 566 1497 485 c 0,133,134
 1497 456 1497 456 1517 438 c 128,-1,135
 1537 420 1537 420 1575 420 c 0,136,137
 1716 420 1716 420 1862 631 c 0,138,139
 1865 636 1865 636 1870 639 c 1,140,-1
 1974 1057 l 1,141,-1
 1837 1057 l 1,142,-1
 1827 1057 l 1,143,-1
 1683 1057 l 2,144,145
 1604 1057 1604 1057 1568 1028 c 128,-1,146
 1532 999 1532 999 1532 969 c 0,147,148
 1532 905 1532 905 1581 905 c 2,149,-1
 1664 905 l 1,119,-1
EndSplineSet
Ligature2: "PreBaseSubstitutionslookup1 subtable" dadeva_viramadeva ghadeva
Ligature2: "ConjunctFormslookup11 subtable" dadeva viramadeva ghadeva
Ligature2: "LocalizedMrHalfFormslookup1 subtable" dadeva viramadeva ghadeva
EndChar

StartChar: dadeva_viramadeva_madeva
Encoding: 65574 -1 211
Width: 2396
VWidth: 0
Flags: W
LayerCount: 2
Fore
SplineSet
442 -150 m 1,0,1
 443 -124 443 -124 454.5 -112.5 c 128,-1,2
 466 -101 466 -101 489 -92 c 0,3,4
 625 -41 625 -41 762 -117 c 1,5,-1
 1071 -281 l 1,6,7
 1088 -293 1088 -293 1088 -310 c 128,-1,8
 1088 -327 1088 -327 1071 -356 c 1,9,-1
 1030 -420 l 1,10,11
 1011 -445 1011 -445 990 -450.5 c 128,-1,12
 969 -456 969 -456 942 -446 c 1,13,14
 868 -403 868 -403 659 -297 c 1,15,16
 623 -277 623 -277 581 -274 c 128,-1,17
 539 -271 539 -271 515 -276.5 c 128,-1,18
 491 -282 491 -282 477 -289 c 0,19,20
 457 -300 457 -300 441 -290 c 128,-1,21
 425 -280 425 -280 428 -250 c 1,22,-1
 442 -150 l 1,0,1
2607 1268 m 1,23,24
 2646 1094 l 2,25,26
 2651 1074 2651 1074 2644 1065.5 c 128,-1,27
 2637 1057 2637 1057 2615 1057 c 2,28,-1
 2439 1057 l 1,29,-1
 2409 1057 l 1,30,-1
 2138 -33 l 2,31,32
 2132 -55 2132 -55 2123 -60 c 128,-1,33
 2114 -65 2114 -65 2095 -57 c 1,34,-1
 1919 35 l 1,35,36
 1886 51 1886 51 1896 94 c 2,37,-1
 1976 414 l 1,38,-1
 1642 414 l 1,39,-1
 1622 336 l 2,40,41
 1610 288 1610 288 1587.5 262.5 c 128,-1,42
 1565 237 1565 237 1524 225 c 1,43,-1
 1397 193 l 1,44,45
 1306 172 1306 172 1288 242 c 1,46,-1
 1200 559 l 2,47,48
 1188 600 1188 600 1224 634 c 128,-1,49
 1260 668 1260 668 1305 668 c 2,50,-1
 1438 668 l 1,51,-1
 1535 1057 l 1,52,-1
 1276 1057 l 1,53,-1
 1266 1057 l 1,54,-1
 957 1057 l 1,55,-1
 889 780 l 2,56,57
 877 731 877 731 805 731 c 2,58,-1
 748 731 l 2,59,60
 679 731 679 731 617 711 c 128,-1,61
 555 691 555 691 503 651 c 128,-1,62
 451 611 451 611 420 542.5 c 128,-1,63
 389 474 389 474 389 385 c 0,64,65
 389 330 389 330 403 322 c 0,66,67
 430 305 430 305 479 305 c 0,68,69
 544 305 544 305 629.5 329 c 128,-1,70
 715 353 715 353 780 407 c 1,71,72
 764 450 764 450 764 492 c 0,73,74
 764 561 764 561 807 592 c 0,75,76
 851 623 851 623 884.5 620.5 c 128,-1,77
 918 618 918 618 979 578 c 0,78,79
 1071 519 1071 519 1071 449 c 0,80,81
 1071 381 1071 381 1015 296 c 1,82,-1
 1153 -45 l 2,83,84
 1163 -70 1163 -70 1154.5 -81.5 c 128,-1,85
 1146 -93 1146 -93 1116 -98 c 1,86,-1
 1038 -106 l 1,87,88
 1007 -111 1007 -111 989.5 -103 c 128,-1,89
 972 -95 972 -95 965 -70 c 1,90,-1
 884 153 l 1,91,92
 757 53 757 53 578 53 c 0,93,94
 463 53 463 53 354 119 c 0,95,96
 299 152 299 152 257.5 201 c 128,-1,97
 216 250 216 250 193.5 304.5 c 128,-1,98
 171 359 171 359 160.5 411 c 128,-1,99
 150 463 150 463 150 514 c 0,100,101
 150 628 150 628 190.5 718 c 128,-1,102
 231 808 231 808 300.5 864 c 128,-1,103
 370 920 370 920 458.5 949.5 c 128,-1,104
 547 979 547 979 647 979 c 2,105,-1
 661 979 l 1,106,-1
 680 1057 l 1,107,-1
 31 1057 l 2,108,109
 -5 1057 -5 1057 -25.5 1074 c 128,-1,110
 -46 1091 -46 1091 -55 1130 c 2,111,-1
 -86 1272 l 1,112,113
 -89 1294 -89 1294 -83 1301.5 c 128,-1,114
 -77 1309 -77 1309 -55 1309 c 2,115,-1
 1208 1309 l 1,116,-1
 1221 1309 l 1,117,-1
 1927 1309 l 1,118,-1
 2363 1309 l 1,119,-1
 2554 1309 l 2,120,121
 2599 1309 2599 1309 2607 1268 c 1,23,24
2039 668 m 1,122,-1
 2136 1057 l 1,123,-1
 1989 1057 l 1,124,-1
 1809 1057 l 1,125,-1
 1712 668 l 1,126,-1
 2039 668 l 1,122,-1
EndSplineSet
Ligature2: "PreBaseSubstitutionslookup1 subtable" dadeva_viramadeva madeva
Ligature2: "ConjunctFormslookup11 subtable" dadeva viramadeva madeva
Ligature2: "LocalizedMrHalfFormslookup1 subtable" dadeva viramadeva madeva
EndChar

StartChar: dadeva_viramadeva_nadeva
Encoding: 65575 -1 212
Width: 2140
VWidth: 0
Flags: W
AnchorPoint: "DVAnchor0" 1694 -14 basechar 0
LayerCount: 2
Fore
SplineSet
92 -150 m 1,0,1
 93 -124 93 -124 104.5 -112.5 c 128,-1,2
 116 -101 116 -101 139 -92 c 0,3,4
 275 -41 275 -41 412 -117 c 1,5,-1
 721 -281 l 1,6,7
 738 -293 738 -293 738 -310 c 128,-1,8
 738 -327 738 -327 721 -356 c 1,9,-1
 680 -420 l 1,10,11
 661 -445 661 -445 640 -450.5 c 128,-1,12
 619 -456 619 -456 592 -446 c 1,13,14
 518 -403 518 -403 309 -297 c 1,15,16
 273 -277 273 -277 231 -274 c 128,-1,17
 189 -271 189 -271 165 -276.5 c 128,-1,18
 141 -282 141 -282 127 -289 c 0,19,20
 107 -300 107 -300 91 -290 c 128,-1,21
 75 -280 75 -280 78 -250 c 1,22,-1
 92 -150 l 1,0,1
2290 1268 m 1,23,24
 2329 1094 l 2,25,26
 2334 1074 2334 1074 2327 1065.5 c 128,-1,27
 2320 1057 2320 1057 2298 1057 c 2,28,-1
 2091 1057 l 1,29,-1
 1821 -33 l 2,30,31
 1815 -55 1815 -55 1806 -60 c 128,-1,32
 1797 -65 1797 -65 1778 -57 c 1,33,-1
 1602 35 l 1,34,35
 1569 51 1569 51 1579 94 c 2,36,-1
 1695 561 l 1,37,-1
 1443 561 l 1,38,39
 1424 490 1424 490 1411 432 c 0,40,41
 1398 372 1398 372 1331 342 c 0,42,43
 1321 338 1321 338 1290 324.5 c 128,-1,44
 1259 311 1259 311 1249 307 c 0,45,46
 1216 295 1216 295 1205 302.5 c 128,-1,47
 1194 310 1194 310 1188 342 c 0,48,49
 1184 361 1184 361 1149.5 522 c 128,-1,50
 1115 683 1115 683 1110 705 c 0,51,52
 1099 751 1099 751 1114 782 c 128,-1,53
 1129 813 1129 813 1169 813 c 2,54,-1
 1758 813 l 1,55,-1
 1818 1057 l 1,56,-1
 1671 1057 l 1,57,-1
 1206 1057 l 1,58,-1
 1022 1057 l 1,59,-1
 887 1057 l 1,60,-1
 819 780 l 2,61,62
 807 731 807 731 735 731 c 2,63,-1
 678 731 l 2,64,65
 609 731 609 731 547 711 c 128,-1,66
 485 691 485 691 433 651 c 128,-1,67
 381 611 381 611 350 542.5 c 128,-1,68
 319 474 319 474 319 385 c 0,69,70
 319 370 319 370 323 348 c 128,-1,71
 327 326 327 326 334 322 c 0,72,73
 361 305 361 305 410 305 c 0,74,75
 475 305 475 305 560.5 329 c 128,-1,76
 646 353 646 353 711 407 c 1,77,78
 694 453 694 453 694 492 c 0,79,80
 694 561 694 561 737 592 c 0,81,82
 781 623 781 623 814.5 620.5 c 128,-1,83
 848 618 848 618 909 578 c 0,84,85
 1001 519 1001 519 1001 449 c 0,86,87
 1001 381 1001 381 945 296 c 1,88,-1
 1083 -45 l 2,89,90
 1093 -70 1093 -70 1085 -81.5 c 128,-1,91
 1077 -93 1077 -93 1047 -98 c 1,92,-1
 969 -106 l 1,93,94
 908 -115 908 -115 895 -70 c 1,95,-1
 814 153 l 1,96,97
 687 53 687 53 508 53 c 0,98,99
 394 53 394 53 285 119 c 1,100,101
 212 162 212 162 164 234 c 128,-1,102
 116 306 116 306 98 375.5 c 128,-1,103
 80 445 80 445 80 514 c 0,104,105
 80 605 80 605 106.5 682 c 128,-1,106
 133 759 133 759 179.5 813 c 128,-1,107
 226 867 226 867 289.5 905 c 128,-1,108
 353 943 353 943 425.5 961 c 128,-1,109
 498 979 498 979 578 979 c 2,110,-1
 591 979 l 1,111,-1
 610 1057 l 1,112,-1
 -39 1057 l 2,113,114
 -75 1057 -75 1057 -95.5 1074 c 128,-1,115
 -116 1091 -116 1091 -125 1130 c 2,116,-1
 -156 1272 l 1,117,118
 -159 1294 -159 1294 -153 1301.5 c 128,-1,119
 -147 1309 -147 1309 -125 1309 c 2,120,-1
 965 1309 l 1,121,-1
 1151 1309 l 1,122,-1
 1610 1309 l 1,123,-1
 1997 1309 l 1,124,-1
 2236 1309 l 2,125,126
 2282 1309 2282 1309 2290 1268 c 1,23,24
EndSplineSet
Ligature2: "PreBaseSubstitutionslookup1 subtable" dadeva_viramadeva nadeva
Ligature2: "ConjunctFormslookup11 subtable" dadeva viramadeva nadeva
Ligature2: "LocalizedMrHalfFormslookup1 subtable" dadeva viramadeva nadeva
EndChar

StartChar: dadeva_viramadeva_vadeva
Encoding: 65577 -1 214
Width: 1089
VWidth: 0
Flags: W
AnchorPoint: "DVAnchor0" 547 -260 basechar 0
LayerCount: 2
Fore
SplineSet
1196 1278 m 1,0,1
 1233 1092 l 2,2,3
 1239 1057 1239 1057 1206 1057 c 2,4,-1
 887 1057 l 1,5,-1
 819 780 l 2,6,7
 807 731 807 731 735 731 c 2,8,-1
 678 731 l 2,9,10
 609 731 609 731 547 711 c 128,-1,11
 485 691 485 691 433 651 c 128,-1,12
 381 611 381 611 350 542.5 c 128,-1,13
 319 474 319 474 319 385 c 0,14,15
 319 370 319 370 323 348 c 128,-1,16
 327 326 327 326 334 322 c 0,17,18
 361 305 361 305 410 305 c 0,19,20
 475 305 475 305 560.5 329 c 128,-1,21
 646 353 646 353 711 407 c 1,22,23
 694 453 694 453 694 492 c 0,24,25
 694 561 694 561 737 592 c 0,26,27
 781 623 781 623 814.5 620.5 c 128,-1,28
 848 618 848 618 909 578 c 0,29,30
 1001 519 1001 519 1001 449 c 0,31,32
 1001 381 1001 381 945 296 c 1,33,-1
 1083 -45 l 2,34,35
 1093 -70 1093 -70 1085 -81.5 c 128,-1,36
 1077 -93 1077 -93 1047 -98 c 1,37,-1
 969 -106 l 1,38,39
 908 -115 908 -115 895 -70 c 1,40,-1
 845 68 l 1,41,42
 848 46 848 46 848 23 c 0,43,44
 848 -79 848 -79 786.5 -148 c 128,-1,45
 725 -217 725 -217 627 -217 c 0,46,47
 570 -217 570 -217 508 -190 c 1,48,49
 414 -142 414 -142 363.5 -59.5 c 128,-1,50
 313 23 313 23 313 102 c 1,51,52
 307 105 307 105 297 111.5 c 128,-1,53
 287 118 287 118 285 119 c 0,54,55
 212 162 212 162 164 234 c 128,-1,56
 116 306 116 306 98 375.5 c 128,-1,57
 80 445 80 445 80 514 c 0,58,59
 80 605 80 605 106.5 682 c 128,-1,60
 133 759 133 759 179.5 813 c 128,-1,61
 226 867 226 867 289.5 905 c 128,-1,62
 353 943 353 943 425.5 961 c 128,-1,63
 498 979 498 979 578 979 c 2,64,-1
 591 979 l 1,65,-1
 610 1057 l 1,66,-1
 -39 1057 l 2,67,68
 -75 1057 -75 1057 -95.5 1074 c 128,-1,69
 -116 1091 -116 1091 -125 1130 c 2,70,-1
 -156 1272 l 1,71,72
 -159 1294 -159 1294 -153 1301.5 c 128,-1,73
 -147 1309 -147 1309 -125 1309 c 2,74,-1
 1151 1309 l 2,75,76
 1188 1309 1188 1309 1196 1278 c 1,0,1
683 82 m 1,77,78
 599 53 599 53 508 53 c 0,79,80
 491 53 491 53 482 54 c 1,81,82
 479 39 479 39 479 23 c 0,83,84
 479 -8 479 -8 486.5 -29 c 128,-1,85
 494 -50 494 -50 498.5 -54 c 128,-1,86
 503 -58 503 -58 506 -59 c 0,87,88
 520 -66 520 -66 539 -66 c 0,89,90
 587 -66 587 -66 631.5 -22.5 c 128,-1,91
 676 21 676 21 683 82 c 1,77,78
EndSplineSet
Ligature2: "PreBaseSubstitutionslookup1 subtable" dadeva_viramadeva vadeva
Ligature2: "ConjunctFormslookup11 subtable" dadeva viramadeva vadeva
Ligature2: "LocalizedMrHalfFormslookup1 subtable" dadeva viramadeva vadeva
EndChar

StartChar: dadeva_viramadeva_yadeva
Encoding: 65578 -1 215
Width: 1196
VWidth: 0
Flags: W
LayerCount: 2
Fore
SplineSet
31 1094 m 2,0,1
 -8 1276 l 2,2,3
 -11 1294 -11 1294 -5.5 1301.5 c 128,-1,4
 0 1309 0 1309 20 1309 c 2,5,-1
 666 1309 l 1,6,-1
 1225 1309 l 1,7,-1
 1292 1309 l 2,8,9
 1338 1309 1338 1309 1346 1268 c 2,10,-1
 1384 1094 l 2,11,12
 1389 1074 1389 1074 1382.5 1065.5 c 128,-1,13
 1376 1057 1376 1057 1354 1057 c 2,14,-1
 1241 1057 l 1,15,-1
 1147 1057 l 1,16,-1
 877 -33 l 2,17,18
 871 -55 871 -55 862 -60 c 128,-1,19
 853 -65 853 -65 834 -57 c 1,20,-1
 657 35 l 2,21,22
 625 51 625 51 635 94 c 2,23,-1
 661 200 l 1,24,25
 568 162 568 162 463 162 c 0,26,27
 320 162 320 162 233 209 c 1,28,29
 163 245 163 245 124.5 312.5 c 128,-1,30
 86 380 86 380 86 455 c 0,31,32
 86 474 86 474 105 533.5 c 128,-1,33
 124 593 124 593 137 616 c 1,34,35
 78 689 78 689 78 778 c 0,36,37
 78 866 78 866 140 922.5 c 128,-1,38
 202 979 202 979 319 979 c 2,39,-1
 324 979 l 1,40,-1
 343 1057 l 1,41,-1
 78 1057 l 2,42,43
 56 1057 56 1057 46 1065.5 c 128,-1,44
 36 1074 36 1074 31 1094 c 2,0,1
616 1057 m 1,45,-1
 575 891 l 2,46,47
 565 848 565 848 524 848 c 2,48,-1
 418 848 l 2,49,50
 364 848 364 848 317 815.5 c 128,-1,51
 270 783 270 783 270 750 c 128,-1,52
 270 717 270 717 313 717 c 2,53,-1
 414 717 l 2,54,55
 421 717 421 717 433.5 717 c 128,-1,56
 446 717 446 717 452 717 c 128,-1,57
 458 717 458 717 467 716.5 c 128,-1,58
 476 716 476 716 480.5 714.5 c 128,-1,59
 485 713 485 713 490 710.5 c 128,-1,60
 495 708 495 708 498 703.5 c 128,-1,61
 501 699 501 699 502 692 c 0,62,63
 504 682 504 682 507 661 c 128,-1,64
 510 640 510 640 516 612 c 1,65,66
 522 592 522 592 517.5 583.5 c 128,-1,67
 513 575 513 575 487 567 c 1,68,69
 428 555 428 555 365.5 517.5 c 128,-1,70
 303 480 303 480 303 434 c 0,71,72
 303 430 303 430 309 427 c 128,-1,73
 315 424 315 424 326 422 c 128,-1,74
 337 420 337 420 349 419 c 128,-1,75
 361 418 361 418 377 418 c 128,-1,76
 393 418 393 418 404 418 c 128,-1,77
 415 418 415 418 429 418 c 128,-1,78
 443 418 443 418 446 418 c 0,79,80
 672 418 672 418 758 588 c 1,81,-1
 874 1057 l 1,82,-1
 727 1057 l 1,83,-1
 616 1057 l 1,45,-1
EndSplineSet
Ligature2: "PreBaseSubstitutionslookup1 subtable" dadeva_viramadeva yadeva
Ligature2: "ConjunctFormslookup11 subtable" dadeva viramadeva yadeva
Ligature2: "LocalizedMrHalfFormslookup1 subtable" dadeva viramadeva yadeva
EndChar

StartChar: dagger
Encoding: 8224 8224 216
Width: 489
VWidth: 0
Flags: W
LayerCount: 2
Fore
SplineSet
-131 1038 m 2,0,1
 203 1038 l 1,2,-1
 324 1509 l 2,3,4
 336 1554 336 1554 385 1554 c 2,5,-1
 539 1554 l 2,6,7
 595 1554 595 1554 584 1507 c 2,8,-1
 464 1038 l 1,9,-1
 758 1038 l 2,10,11
 819 1038 819 1038 805 973 c 2,12,-1
 778 852 l 1,13,14
 774 829 774 829 753 812 c 128,-1,15
 732 795 732 795 709 795 c 2,16,-1
 401 795 l 1,17,-1
 104 -365 l 2,18,19
 92 -410 92 -410 43 -410 c 2,20,-1
 -98 -410 l 2,21,22
 -131 -410 -131 -410 -144.5 -391 c 128,-1,23
 -158 -372 -158 -372 -152 -344 c 1,24,-1
 140 795 l 1,25,-1
 -158 795 l 2,26,27
 -189 795 -189 795 -198 811.5 c 128,-1,28
 -207 828 -207 828 -197 868 c 2,29,-1
 -164 997 l 2,30,31
 -158 1023 -158 1023 -151.5 1030.5 c 128,-1,32
 -145 1038 -145 1038 -131 1038 c 2,0,1
EndSplineSet
EndChar

StartChar: daggerdbl
Encoding: 8225 8225 217
Width: 823
VWidth: 0
Flags: W
LayerCount: 2
Fore
SplineSet
27 346 m 2,0,1
 359 346 l 1,2,-1
 474 795 l 1,3,-1
 174 795 l 2,4,5
 143 795 143 795 134 811.5 c 128,-1,6
 125 828 125 828 135 868 c 2,7,-1
 168 997 l 2,8,9
 174 1023 174 1023 180.5 1030.5 c 128,-1,10
 187 1038 187 1038 201 1038 c 2,11,-1
 537 1038 l 1,12,-1
 657 1509 l 2,13,14
 669 1554 669 1554 719 1554 c 2,15,-1
 872 1554 l 2,16,17
 929 1554 929 1554 918 1507 c 1,18,-1
 797 1038 l 1,19,-1
 1090 1038 l 2,20,21
 1151 1038 1151 1038 1137 973 c 2,22,-1
 1110 852 l 1,23,24
 1106 829 1106 829 1084.5 812 c 128,-1,25
 1063 795 1063 795 1040 795 c 2,26,27
 735 795 l 1,28,-1
 620 346 l 1,29,-1
 915 346 l 2,30,31
 977 346 977 346 963 281 c 2,32,-1
 936 160 l 1,33,34
 932 137 932 137 910.5 119.5 c 128,-1,35
 889 102 889 102 866 102 c 2,36,-1
 558 102 l 1,37,-1
 438 -365 l 2,38,39
 426 -410 426 -410 377 -410 c 2,40,-1
 236 -410 l 2,41,42
 203 -410 203 -410 189.5 -391 c 128,-1,43
 176 -372 176 -372 182 -344 c 1,44,-1
 297 102 l 1,45,-1
 0 102 l 2,46,47
 -31 102 -31 102 -40 119 c 128,-1,48
 -49 136 -49 136 -39 176 c 2,49,-1
 -6 305 l 2,50,51
 -0 331 -0 331 6.5 338.5 c 128,-1,52
 13 346 13 346 27 346 c 2,0,1
EndSplineSet
EndChar

StartChar: ddadeva
Encoding: 2337 2337 222
Width: 1226
VWidth: 0
Flags: W
AnchorPoint: "DVAnchor0" 451 0 basechar 0
AnchorPoint: "DVAnchor3" 1092 1296 basechar 0
LayerCount: 2
Fore
SplineSet
1458 1278 m 1,0,1
 1491 1112 l 2,2,3
 1495 1089 1495 1089 1480 1073 c 128,-1,4
 1465 1057 1465 1057 1440 1057 c 2,5,-1
 1184 1057 l 1,6,-1
 1116 791 l 1,7,8
 1102 731 1102 731 1044 731 c 2,9,-1
 729 731 l 2,10,11
 608 731 608 731 553 712 c 128,-1,12
 498 693 498 693 498 649 c 0,13,14
 498 608 498 608 616 608 c 2,15,-1
 682 608 l 2,16,17
 730 608 730 608 780.5 592.5 c 128,-1,18
 831 577 831 577 866 553 c 0,19,20
 927 511 927 511 953 467 c 128,-1,21
 979 423 979 423 979 367 c 0,22,23
 979 292 979 292 956.5 230.5 c 128,-1,24
 934 169 934 169 897.5 129.5 c 128,-1,25
 861 90 861 90 812 62.5 c 128,-1,26
 763 35 763 35 713 23.5 c 128,-1,27
 663 12 663 12 612 12 c 0,28,29
 515 12 515 12 424 45.5 c 128,-1,30
 333 79 333 79 267.5 127 c 128,-1,31
 202 175 202 175 144 239 c 128,-1,32
 86 303 86 303 52.5 353.5 c 128,-1,33
 19 404 19 404 -6 453 c 1,34,35
 -17 481 -17 481 -9.5 497 c 128,-1,36
 -2 513 -2 513 14 520 c 1,37,-1
 94 565 l 1,38,39
 102 568 102 568 108.5 570 c 128,-1,40
 115 572 115 572 120.5 572.5 c 128,-1,41
 126 573 126 573 130 573 c 128,-1,42
 134 573 134 573 138.5 570.5 c 128,-1,43
 143 568 143 568 145.5 567 c 128,-1,44
 148 566 148 566 152.5 561 c 128,-1,45
 157 556 157 556 159 553.5 c 128,-1,46
 161 551 161 551 166.5 544.5 c 128,-1,47
 172 538 172 538 174 535 c 0,48,49
 177 531 177 531 184.278012137 521.242522813 c 0,50,51
 212 484 212 484 236.5 453 c 128,-1,52
 261 422 261 422 300.5 384 c 128,-1,53
 340 346 340 346 380.5 320 c 128,-1,54
 421 294 421 294 477 276 c 128,-1,55
 533 258 533 258 594 258 c 0,56,57
 663 258 663 258 704 285 c 128,-1,58
 745 312 745 312 745 367 c 0,59,60
 745 416 745 416 670 416 c 2,61,-1
 629 416 l 2,62,63
 567 416 567 416 508.5 431.5 c 128,-1,64
 450 447 450 447 400 478 c 128,-1,65
 350 509 350 509 319.5 562 c 128,-1,66
 289 615 289 615 289 682 c 0,67,68
 289 979 289 979 662 979 c 2,69,-1
 896 979 l 1,70,-1
 915 1057 l 1,71,-1
 -31 1057 l 2,72,73
 -68 1057 -68 1057 -88 1074 c 128,-1,74
 -108 1091 -108 1091 -117 1130 c 1,75,-1
 -141 1249 l 2,76,77
 -147 1278 -147 1278 -134 1293.5 c 128,-1,78
 -121 1309 -121 1309 -100 1309 c 2,79,-1
 1415 1309 l 2,80,81
 1450 1309 1450 1309 1458 1278 c 1,0,1
EndSplineSet
EndChar

StartChar: ddadeva_viramadeva
Encoding: 65579 -1 223
Width: 1226
VWidth: 0
Flags: W
LayerCount: 2
Fore
SplineSet
268 -150 m 1,0,1
 269 -124 269 -124 280.5 -112.5 c 128,-1,2
 292 -101 292 -101 315 -92 c 0,3,4
 451 -41 451 -41 588 -117 c 1,5,-1
 897 -281 l 1,6,7
 914 -293 914 -293 914 -310 c 128,-1,8
 914 -327 914 -327 897 -356 c 1,9,-1
 856 -420 l 1,10,11
 837 -445 837 -445 816 -450.5 c 128,-1,12
 795 -456 795 -456 768 -446 c 1,13,14
 694 -403 694 -403 485 -297 c 1,15,16
 449 -277 449 -277 407 -274 c 128,-1,17
 365 -271 365 -271 341 -276.5 c 128,-1,18
 317 -282 317 -282 303 -289 c 0,19,20
 283 -300 283 -300 267 -290 c 128,-1,21
 251 -280 251 -280 254 -250 c 1,22,-1
 268 -150 l 1,0,1
1458 1278 m 1,23,24
 1491 1112 l 2,25,26
 1495 1089 1495 1089 1480 1073 c 128,-1,27
 1465 1057 1465 1057 1440 1057 c 2,28,-1
 1184 1057 l 1,29,-1
 1116 791 l 1,30,31
 1102 731 1102 731 1044 731 c 2,32,-1
 729 731 l 2,33,34
 608 731 608 731 553 712 c 128,-1,35
 498 693 498 693 498 649 c 0,36,37
 498 608 498 608 616 608 c 2,38,-1
 682 608 l 2,39,40
 730 608 730 608 780.5 592.5 c 128,-1,41
 831 577 831 577 866 553 c 0,42,43
 927 511 927 511 953 467 c 128,-1,44
 979 423 979 423 979 367 c 0,45,46
 979 292 979 292 956.5 230.5 c 128,-1,47
 934 169 934 169 897.5 129.5 c 128,-1,48
 861 90 861 90 812 62.5 c 128,-1,49
 763 35 763 35 713 23.5 c 128,-1,50
 663 12 663 12 612 12 c 0,51,52
 515 12 515 12 424 45.5 c 128,-1,53
 333 79 333 79 267.5 127 c 128,-1,54
 202 175 202 175 144 239 c 128,-1,55
 86 303 86 303 52.5 353.5 c 128,-1,56
 19 404 19 404 -6 453 c 1,57,58
 -17 481 -17 481 -9.5 497 c 128,-1,59
 -2 513 -2 513 14 520 c 1,60,-1
 94 565 l 1,61,62
 102 568 102 568 108.5 570 c 128,-1,63
 115 572 115 572 120.5 572.5 c 128,-1,64
 126 573 126 573 130 573 c 128,-1,65
 134 573 134 573 138.5 570.5 c 128,-1,66
 143 568 143 568 145.5 567 c 128,-1,67
 148 566 148 566 152.5 561 c 128,-1,68
 157 556 157 556 159 553.5 c 128,-1,69
 161 551 161 551 166.5 544.5 c 128,-1,70
 172 538 172 538 174 535 c 0,71,72
 177 531 177 531 184.278012137 521.242522813 c 0,73,74
 212 484 212 484 236.5 453 c 128,-1,75
 261 422 261 422 300.5 384 c 128,-1,76
 340 346 340 346 380.5 320 c 128,-1,77
 421 294 421 294 477 276 c 128,-1,78
 533 258 533 258 594 258 c 0,79,80
 663 258 663 258 704 285 c 128,-1,81
 745 312 745 312 745 367 c 0,82,83
 745 416 745 416 670 416 c 2,84,-1
 629 416 l 2,85,86
 567 416 567 416 508.5 431.5 c 128,-1,87
 450 447 450 447 400 478 c 128,-1,88
 350 509 350 509 319.5 562 c 128,-1,89
 289 615 289 615 289 682 c 0,90,91
 289 979 289 979 662 979 c 2,92,-1
 896 979 l 1,93,-1
 915 1057 l 1,94,-1
 -31 1057 l 2,95,96
 -68 1057 -68 1057 -88 1074 c 128,-1,97
 -108 1091 -108 1091 -117 1130 c 1,98,-1
 -141 1249 l 2,99,100
 -147 1278 -147 1278 -134 1293.5 c 128,-1,101
 -121 1309 -121 1309 -100 1309 c 2,102,-1
 1415 1309 l 2,103,104
 1450 1309 1450 1309 1458 1278 c 1,23,24
EndSplineSet
Ligature2: "HalfFormslookup10 subtable" ddadeva viramadeva
EndChar

StartChar: ddadeva_viramadeva_ddadeva
Encoding: 65580 -1 224
Width: 1333
VWidth: 0
Flags: W
AnchorPoint: "DVAnchor0" 588 -559 basechar 0
LayerCount: 2
Fore
SplineSet
1630 1274 m 1,0,1
 1663 1114 l 1,2,3
 1669 1096 1669 1096 1650.5 1076.5 c 128,-1,4
 1632 1057 1632 1057 1610 1057 c 2,5,-1
 1313 1057 l 1,6,-1
 1255 827 l 1,7,8
 1249 795 1249 795 1227 795 c 2,9,-1
 1223 795 l 1,10,-1
 1024 795 l 1,11,-1
 1001 795 l 2,12,13
 919 795 919 795 844 785.5 c 128,-1,14
 769 776 769 776 730.5 765.5 c 128,-1,15
 692 755 692 755 692 748 c 0,16,17
 692 734 692 734 705 721 c 1,18,19
 728 702 728 702 815 702 c 2,20,-1
 881 702 l 2,21,22
 989 702 989 702 1067 664 c 1,23,24
 1136 632 1136 632 1164 597.5 c 128,-1,25
 1192 563 1192 563 1192 518 c 0,26,27
 1192 435 1192 435 1143 376 c 1,28,-1
 1063 57 l 1,29,30
 1057 25 1057 25 1034 25 c 2,31,-1
 1030 25 l 1,32,-1
 829 25 l 1,33,-1
 764 25 l 2,34,35
 683 25 683 25 619 15.5 c 128,-1,36
 555 6 555 6 528.5 -4 c 128,-1,37
 502 -14 502 -14 502 -20 c 0,38,39
 502 -36 502 -36 512 -49 c 1,40,41
 535 -68 535 -68 623 -68 c 2,42,-1
 688 -68 l 2,43,44
 796 -68 796 -68 874 -106 c 0,45,46
 944 -139 944 -139 972.5 -173.5 c 128,-1,47
 1001 -208 1001 -208 1001 -252 c 0,48,49
 1001 -319 1001 -319 970.5 -370 c 128,-1,50
 940 -421 940 -421 889.5 -449 c 128,-1,51
 839 -477 839 -477 781.5 -490.5 c 128,-1,52
 724 -504 724 -504 662 -504 c 0,53,54
 565 -504 565 -504 471 -479.5 c 128,-1,55
 377 -455 377 -455 307.5 -419.5 c 128,-1,56
 238 -384 238 -384 175 -337 c 128,-1,57
 112 -290 112 -290 74 -252.5 c 128,-1,58
 36 -215 36 -215 8 -180 c 0,59,60
 -14 -153 -14 -153 25 -131 c 1,61,-1
 100 -98 l 2,62,63
 107 -95 107 -95 113.5 -92.5 c 128,-1,64
 120 -90 120 -90 125.5 -90 c 128,-1,65
 131 -90 131 -90 135.5 -89.5 c 128,-1,66
 140 -89 140 -89 145 -91 c 128,-1,67
 150 -93 150 -93 152.5 -94 c 128,-1,68
 155 -95 155 -95 160 -99 c 128,-1,69
 165 -103 165 -103 167 -104.5 c 128,-1,70
 169 -106 169 -106 174.5 -111.5 c 128,-1,71
 180 -117 180 -117 182 -119 c 0,72,73
 220 -154 220 -154 239.5 -171.5 c 128,-1,74
 259 -189 259 -189 307.5 -223.5 c 128,-1,75
 356 -258 356 -258 396.5 -276 c 128,-1,76
 437 -294 437 -294 498.5 -309 c 128,-1,77
 560 -324 560 -324 625 -324 c 0,78,79
 680 -324 680 -324 723 -301.5 c 128,-1,80
 766 -279 766 -279 766 -231 c 0,81,82
 766 -221 766 -221 762 -221 c 1,83,84
 744 -209 744 -209 688 -209 c 2,85,-1
 647 -209 l 2,86,87
 512 -209 512 -209 423.5 -170.5 c 128,-1,88
 335 -132 335 -132 299 -59 c 0,89,90
 287 -35 287 -35 287 -2 c 0,91,92
 287 207 287 207 643 207 c 2,93,-1
 862 207 l 1,94,-1
 878 267 l 1,95,96
 873 267 873 267 864.5 266.5 c 128,-1,97
 856 266 856 266 852 266 c 0,98,99
 754 266 754 266 660 291 c 128,-1,100
 566 316 566 316 498 351 c 128,-1,101
 430 386 430 386 366.5 434.5 c 128,-1,102
 303 483 303 483 267.5 518 c 128,-1,103
 232 553 232 553 201 590 c 1,104,105
 187 610 187 610 194 623.5 c 128,-1,106
 201 637 201 637 215 641 c 1,107,-1
 293 670 l 2,108,109
 309 676 309 676 321.5 676.5 c 128,-1,110
 334 677 334 677 344.5 672 c 128,-1,111
 355 667 355 667 360 663.5 c 128,-1,112
 365 660 365 660 375 651 c 0,113,114
 414 615 414 615 433 598.5 c 128,-1,115
 452 582 452 582 500 547 c 128,-1,116
 548 512 548 512 588 494.5 c 128,-1,117
 628 477 628 477 689.5 461.5 c 128,-1,118
 751 446 751 446 815 446 c 0,119,120
 871 446 871 446 913.5 468.5 c 128,-1,121
 956 491 956 491 956 539 c 0,122,123
 956 549 956 549 954 549 c 1,124,125
 936 561 936 561 881 561 c 2,126,-1
 840 561 l 2,127,128
 566 561 566 561 489 711 c 0,129,130
 479 731 479 731 479 768 c 0,131,132
 479 979 479 979 836 979 c 2,133,-1
 1071 979 l 1,134,-1
 1090 1057 l 1,135,-1
 160 1057 l 2,136,137
 124 1057 124 1057 103.5 1074 c 128,-1,138
 83 1091 83 1091 74 1130 c 2,139,-1
 49 1249 l 1,140,141
 43 1269 43 1269 57.5 1289 c 128,-1,142
 72 1309 72 1309 94 1309 c 2,143,-1
 1577 1309 l 2,144,145
 1619 1309 1619 1309 1630 1274 c 1,0,1
EndSplineSet
Ligature2: "PreBaseSubstitutionslookup1 subtable" ddadeva_viramadeva ddadeva
Ligature2: "LocalizedMrHalfFormslookup1 subtable" ddadeva viramadeva ddadeva
EndChar

StartChar: ddadeva_viramadeva_ddhadeva
Encoding: 65581 -1 225
Width: 1316
VWidth: 0
Flags: W
AnchorPoint: "DVAnchor0" 547 -563 basechar 0
LayerCount: 2
Fore
SplineSet
1616 1274 m 1,0,1
 1649 1114 l 1,2,3
 1655 1096 1655 1096 1636 1076.5 c 128,-1,4
 1617 1057 1617 1057 1595 1057 c 2,5,-1
 1299 1057 l 1,6,-1
 1241 827 l 1,7,8
 1235 795 1235 795 1212 795 c 2,9,-1
 1208 795 l 1,10,-1
 1010 795 l 1,11,-1
 987 795 l 2,12,13
 905 795 905 795 830 785.5 c 128,-1,14
 755 776 755 776 716.5 765.5 c 128,-1,15
 678 755 678 755 678 748 c 0,16,17
 678 736 678 736 690 721 c 1,18,19
 713 702 713 702 801 702 c 2,20,-1
 866 702 l 2,21,22
 975 702 975 702 1053 664 c 1,23,24
 1122 632 1122 632 1150 597.5 c 128,-1,25
 1178 563 1178 563 1178 518 c 0,26,27
 1178 430 1178 430 1127.5 373.5 c 128,-1,28
 1077 317 1077 317 994 290 c 1,29,-1
 934 53 l 1,30,31
 923 2 923 2 886 -5 c 1,32,-1
 887 -6 l 1,33,-1
 877 -6 l 1,34,-1
 711 -6 l 2,35,36
 570 -6 570 -6 472.5 -66.5 c 128,-1,37
 375 -127 375 -127 375 -240 c 0,38,39
 375 -266 375 -266 379 -274 c 1,40,41
 384 -292 384 -292 409 -304.5 c 128,-1,42
 434 -317 434 -317 467 -317 c 1,43,44
 444 -271 444 -271 444 -229 c 0,45,46
 444 -165 444 -165 510 -113 c 128,-1,47
 576 -61 576 -61 686 -61 c 0,48,49
 765 -61 765 -61 861 -93 c 128,-1,50
 957 -125 957 -125 987 -184 c 0,51,52
 1014 -236 1014 -236 1014 -281 c 0,53,54
 1014 -363 1014 -363 936 -419.5 c 128,-1,55
 858 -476 858 -476 737 -496 c 0,56,57
 675 -506 675 -506 610 -506 c 0,58,59
 482 -506 482 -506 345 -450 c 128,-1,60
 208 -394 208 -394 154 -303 c 1,61,62
 119 -241 119 -241 119 -160 c 0,63,64
 119 -48 119 -48 186 30 c 128,-1,65
 253 108 253 108 356.5 143 c 128,-1,66
 460 178 460 178 588 178 c 2,67,-1
 725 178 l 1,68,69
 729 192 729 192 731 203 c 2,70,-1
 748 271 l 1,71,72
 664 281 664 281 583.5 309.5 c 128,-1,73
 503 338 503 338 444.5 371.5 c 128,-1,74
 386 405 386 405 331.5 449 c 128,-1,75
 277 493 277 493 245 525 c 128,-1,76
 213 557 213 557 186 590 c 1,77,78
 172 610 172 610 179.5 623.5 c 128,-1,79
 187 637 187 637 201 641 c 1,80,-1
 279 670 l 2,81,82
 298.412768189 676.705140658 298.412768189 676.705140658 314.880607631 675.845683717 c 0,83,84
 333.837357079 674.255682597 333.837357079 674.255682597 360 651 c 0,85,86
 392 621 392 621 407.5 607.5 c 128,-1,87
 423 594 423 594 460.5 564 c 128,-1,88
 498 534 498 534 529 518 c 128,-1,89
 560 502 560 502 604 482.5 c 128,-1,90
 648 463 648 463 697.5 454.5 c 128,-1,91
 747 446 747 446 801 446 c 0,92,93
 857 446 857 446 899.5 468.5 c 128,-1,94
 942 491 942 491 942 539 c 0,95,96
 942 549 942 549 940 549 c 1,97,98
 922 561 922 561 866 561 c 2,99,-1
 825 561 l 2,100,101
 552 561 552 561 475 711 c 0,102,103
 465 731 465 731 465 768 c 0,104,105
 465 979 465 979 821 979 c 2,106,-1
 1056 979 l 1,107,-1
 1076 1057 l 1,108,-1
 145 1057 l 2,109,110
 109 1057 109 1057 88.5 1074 c 128,-1,111
 68 1091 68 1091 59 1130 c 1,112,-1
 35 1249 l 2,113,114
 30 1270 30 1270 44.5 1289.5 c 128,-1,115
 59 1309 59 1309 80 1309 c 2,116,-1
 1563 1309 l 2,117,118
 1605 1309 1605 1309 1616 1274 c 1,0,1
711 -328 m 1,119,120
 756 -310 756 -310 784.5 -277.5 c 128,-1,121
 813 -245 813 -245 813 -209 c 0,122,123
 813 -188 813 -188 809 -180 c 1,124,-1
 808 -177 l 2,125,126
 807 -174 807 -174 806.5 -173.5 c 128,-1,127
 806 -173 806 -173 804.5 -171 c 128,-1,128
 803 -169 803 -169 802 -169 c 128,-1,129
 801 -169 801 -169 798 -168 c 128,-1,130
 795 -167 795 -167 791.5 -167 c 128,-1,131
 788 -167 788 -167 783.5 -166.5 c 128,-1,132
 779 -166 779 -166 772 -166 c 0,133,134
 717 -166 717 -166 662.5 -206.5 c 128,-1,135
 608 -247 608 -247 608 -301 c 0,136,137
 608 -318 608 -318 612 -326 c 0,138,139
 619 -338 619 -338 651 -338 c 0,140,141
 691 -338 691 -338 711 -328 c 1,119,120
EndSplineSet
Ligature2: "PreBaseSubstitutionslookup1 subtable" ddadeva_viramadeva ddhadeva
Ligature2: "LocalizedMrHalfFormslookup1 subtable" ddadeva viramadeva ddhadeva
EndChar

